<mxfile host="app.diagrams.net" agent="Mozilla/5.0 (Macintosh; Intel Mac OS X 10_15_7) AppleWebKit/537.36 (KHTML, like Gecko) Chrome/134.0.0.0 Safari/537.36" version="26.1.1">
  <diagram name="Page-1" id="_-BUsVO9jnQj8UEyCr1C">
    <mxGraphModel dx="954" dy="532" grid="1" gridSize="10" guides="1" tooltips="1" connect="1" arrows="1" fold="1" page="1" pageScale="1" pageWidth="827" pageHeight="1169" math="0" shadow="0">
      <root>
        <mxCell id="0" />
        <mxCell id="1" parent="0" />
        <mxCell id="Q6oNMEROd-UbnDSEAFmq-1" value="USGS Earthquale&lt;div&gt;API&lt;/div&gt;" style="aspect=fixed;sketch=0;html=1;dashed=0;whitespace=wrap;verticalLabelPosition=bottom;verticalAlign=top;fillColor=#2875E2;strokeColor=#ffffff;points=[[0.005,0.63,0],[0.1,0.2,0],[0.9,0.2,0],[0.5,0,0],[0.995,0.63,0],[0.72,0.99,0],[0.5,1,0],[0.28,0.99,0]];shape=mxgraph.kubernetes.icon2;prIcon=api" vertex="1" parent="1">
          <mxGeometry x="90" y="230" width="50" height="48" as="geometry" />
        </mxCell>
        <mxCell id="Q6oNMEROd-UbnDSEAFmq-2" value="" style="image;aspect=fixed;html=1;points=[];align=center;fontSize=12;image=img/lib/azure2/power_platform/PowerBI.svg;" vertex="1" parent="1">
          <mxGeometry x="680" y="210" width="51" height="68" as="geometry" />
        </mxCell>
        <mxCell id="Q6oNMEROd-UbnDSEAFmq-3" value="" style="shape=image;verticalLabelPosition=bottom;labelBackgroundColor=default;verticalAlign=top;aspect=fixed;imageAspect=0;image=data:image/png,iVBORw0KGgoAAAANSUhEUgAAAPIAAADqCAYAAACY7RhSAAAMTmlDQ1BJQ0MgUHJvZmlsZQAASImVVwdYU8kWnltSIQQIhCIl9CaISAkgJYQWekcQlZAECCXGhKBiRxdXcK2ICJYVXQVR7ICIDXXVlUWxu5bFgsrKurguduVNCKDLvvK9+b65899/zvxzzrkz994BgN7Fl0rzUE0A8iUFsriQANaklFQWqQdgQBfoATKw5wvkUk5MTASAZbj9e3l9AyDK9qqjUuuf/f+1aAlFcgEASAzEGUK5IB/iQwDgrQKprAAAohTyFjMLpEpcDrGODDoIca0SZ6lwqxJnqPDlQZuEOC7EjwEgq/P5siwANPogzyoUZEEdOowWOEuEYgnE/hD75udPF0K8EGJbaAPnpCv12Rlf6WT9TTNjRJPPzxrBqlgGCzlQLJfm8Wf/n+n43yU/TzE8hw2s6tmy0DhlzDBvj3OnhyuxOsRvJRlR0RBrA4DiYuGgvRIzsxWhiSp71FYg58KcASbEE+V58bwhPk7IDwyH2AjiTEleVMSQTXGmOFhpA/OHVooLeAkQ60NcK5IHxQ/ZnJRNjxue90amjMsZ4p/xZYM+KPU/K3ITOSp9TDtbxBvSx5yKshOSIaZCHFgoToqCWAPiKHlufPiQTVpRNjdq2EamiFPGYgmxTCQJCVDpYxWZsuC4Iftd+fLh2LGT2WJe1BC+UpCdEKrKFfZYwB/0H8aC9YkknMRhHZF8UsRwLEJRYJAqdpwskiTGq3hcX1oQEKcai9tL82KG7PEAUV6IkjeHOEFeGD88trAALk6VPl4iLYhJUPmJV+Xww2JU/uD7QATggkDAAgpYM8B0kAPEHb1NvfBO1RMM+EAGsoAIOA4xwyOSB3sk8BoPisDvEImAfGRcwGCvCBRC/tMoVsmJRzjV1RFkDvUpVXLBE4jzQTjIg/eKQSXJiAdJ4DFkxP/wiA+rAMaQB6uy/9/zw+wXhgOZiCFGMTwjiz5sSQwiBhJDicFEO9wQ98W98Qh49YfVBWfjnsNxfLEnPCF0Eh4SrhO6CLeniYtlo7yMBF1QP3goPxlf5we3hppueADuA9WhMs7EDYEj7grn4eB+cGY3yHKH/FZmhTVK+28RfPWEhuwozhSUokfxp9iOHqlhr+E2oqLM9df5UfmaMZJv7kjP6Pm5X2VfCNvw0ZbYt9hB7Bx2CruAtWJNgIWdwJqxduyYEo+suMeDK254trhBf3Khzug18+XJKjMpd6537nH+qOorEM0qUG5G7nTpbJk4K7uAxYFfDBGLJxE4jWW5OLu4AaD8/qheb69iB78rCLP9C7f4VwB8TgwMDBz9woWdAGC/B3wlHPnC2bLhp0UNgPNHBApZoYrDlRcCfHPQ4e4zACbAAtjCeFyAO/AG/iAIhIFokABSwFTofTZc5zIwE8wFi0AJKAOrwDpQBbaAbaAW7AEHQBNoBafAj+AiuAyugztw9XSD56APvAYfEAQhITSEgRggpogV4oC4IGzEFwlCIpA4JAVJR7IQCaJA5iKLkTJkDVKFbEXqkP3IEeQUcgHpRG4jD5Ae5E/kPYqh6qgOaoxao+NQNspBw9EEdAqahc5Ai9Al6Aq0Eq1Bd6ON6Cn0Inod7UKfo/0YwNQwJmaGOWJsjItFY6lYJibD5mOlWAVWgzVgLfA5X8W6sF7sHU7EGTgLd4QrOBRPxAX4DHw+vhyvwmvxRvwMfhV/gPfhnwk0ghHBgeBF4BEmEbIIMwklhArCDsJhwlm4l7oJr4lEIpNoQ/SAezGFmEOcQ1xO3ETcSzxJ7CQ+IvaTSCQDkgPJhxRN4pMKSCWkDaTdpBOkK6Ru0luyGtmU7EIOJqeSJeRicgV5F/k4+Qr5KfkDRZNiRfGiRFOElNmUlZTtlBbKJUo35QNVi2pD9aEmUHOoi6iV1AbqWepd6is1NTVzNU+1WDWx2kK1SrV9aufVHqi9U9dWt1fnqqepK9RXqO9UP6l+W/0VjUazpvnTUmkFtBW0Otpp2n3aWw2GhpMGT0OosUCjWqNR44rGCzqFbkXn0KfSi+gV9IP0S/ReTYqmtSZXk685X7Na84jmTc1+LYbWeK1orXyt5Vq7tC5oPdMmaVtrB2kLtZdob9M+rf2IgTEsGFyGgLGYsZ1xltGtQ9Sx0eHp5OiU6ezR6dDp09XWddVN0p2lW617TLeLiTGtmTxmHnMl8wDzBvO9nrEeR0+kt0yvQe+K3hv9Mfr++iL9Uv29+tf13xuwDIIMcg1WGzQZ3DPEDe0NYw1nGm42PGvYO0ZnjPcYwZjSMQfG/GKEGtkbxRnNMdpm1G7Ub2xiHGIsNd5gfNq414Rp4m+SY1Juctykx5Rh6msqNi03PWH6G0uXxWHlsSpZZ1h9ZkZmoWYKs61mHWYfzG3ME82Lzfea37OgWrAtMi3KLdos+ixNLSMt51rWW/5iRbFiW2Vbrbc6Z/XG2sY62XqpdZP1Mxt9G55NkU29zV1bmq2f7QzbGttrdkQ7tl2u3Sa7y/aovZt9tn21/SUH1MHdQeywyaFzLGGs51jJ2JqxNx3VHTmOhY71jg+cmE4RTsVOTU4vxlmOSx23ety5cZ+d3ZzznLc73xmvPT5sfPH4lvF/uti7CFyqXa5NoE0InrBgQvOEl64OriLXza633BhukW5L3drcPrl7uMvcG9x7PCw90j02etxk67Bj2MvZ5z0JngGeCzxbPd95uXsVeB3w+sPb0TvXe5f3s4k2E0UTt0985GPuw/fZ6tPly/JN9/3et8vPzI/vV+P30N/CX+i/w/8px46Tw9nNeRHgHCALOBzwhuvFncc9GYgFhgSWBnYEaQclBlUF3Q82D84Krg/uC3ELmRNyMpQQGh66OvQmz5gn4NXx+sI8wuaFnQlXD48Prwp/GGEfIYtoiUQjwyLXRt6NsoqSRDVFg2he9NroezE2MTNijsYSY2Niq2OfxI2Pmxt3Lp4RPy1+V/zrhICElQl3Em0TFYltSfSktKS6pDfJgclrkrsmjZs0b9LFFMMUcUpzKik1KXVHav/koMnrJnenuaWVpN2YYjNl1pQLUw2n5k09No0+jT/tYDohPTl9V/pHfjS/ht+fwcvYmNEn4ArWC54L/YXlwh6Rj2iN6GmmT+aazGdZPllrs3qy/bIrsnvFXHGV+GVOaM6WnDe50bk7cwfykvP25pPz0/OPSLQluZIz002mz5reKXWQlki7ZnjNWDejTxYu2yFH5FPkzQU68Ee/XWGr+EbxoNC3sLrw7cykmQdnac2SzGqfbT972eynRcFFP8zB5wjmtM01m7to7oN5nHlb5yPzM+a3LbBYsGRB98KQhbWLqItyF/1c7Fy8pvivxcmLW5YYL1m45NE3Id/Ul2iUyEpuLvVeuuVb/Fvxtx3LJizbsOxzqbD0pzLnsoqyj8sFy3/6bvx3ld8NrMhc0bHSfeXmVcRVklU3Vvutrl2jtaZozaO1kWsby1nlpeV/rZu27kKFa8WW9dT1ivVdlRGVzRssN6za8LEqu+p6dUD13o1GG5dtfLNJuOnKZv/NDVuMt5Rtef+9+PtbW0O2NtZY11RsI24r3PZke9L2cz+wf6jbYbijbMennZKdXbVxtWfqPOrqdhntWlmP1ivqe3an7b68J3BPc4Njw9a9zL1l+8A+xb7f9qfvv3Eg/EDbQfbBhkNWhzYeZhwubUQaZzf2NWU3dTWnNHceCTvS1uLdcvio09GdrWat1cd0j608Tj2+5PjAiaIT/SelJ3tPZZ161Dat7c7pSaevnYk903E2/Oz5H4N/PH2Oc+7EeZ/zrRe8Lhz5if1T00X3i43tbu2Hf3b7+XCHe0fjJY9LzZc9L7d0Tuw8fsXvyqmrgVd/vMa7dvF61PXOG4k3bt1Mu9l1S3jr2e282y9/Kfzlw52Fdwl3S+9p3qu4b3S/5le7X/d2uXcdexD4oP1h/MM7jwSPnj+WP/7YveQJ7UnFU9Ondc9cnrX2BPdc/m3yb93Ppc8/9Jb8rvX7xhe2Lw794f9He9+kvu6XspcDfy5/ZfBq51+uf7X1x/Tff53/+sOb0rcGb2vfsd+de5/8/umHmR9JHys/2X1q+Rz++e5A/sCAlC/jD/4KYEB5tMkE4M+dANBSAGDAcyN1sup8OFgQ1Zl2EIH/hFVnyMHiDkAD/KeP7YV/NzcB2LcdAGuoT08DIIYGQIInQCdMGKnDZ7nBc6eyEOHZ4PuQTxn5GeDfFNWZ9Cu/R7dAqeoKRrf/AqAZgwwmEkfbAAAAbGVYSWZNTQAqAAAACAAEARoABQAAAAEAAAA+ARsABQAAAAEAAABGASgAAwAAAAEAAgAAh2kABAAAAAEAAABOAAAAAAAAAJAAAAABAAAAkAAAAAEAAqACAAQAAAABAAAA8qADAAQAAAABAAAA6gAAAABBrtwpAAAACXBIWXMAABYlAAAWJQFJUiTwAABAAElEQVR4Aey9B5Nlx3mmmeW7qj3QAGhEkaIocmdnJhQ72ojdiDV/e3Yj1sRqNZoZihI9AXY3Go323pT3Pc/zfpmnbjdJkSABEgDrVN170nzeZOaxd+7V8atXrfE/tjkKr+ZoedUsTptQ83O0FfgrYOYCUJBzc8fBC7zkgG3HFOZ6/0SIAm3yqM29CH1L9ZT/qf1P429kSDLDlPnX8u/VsdlmKmk4UAd2ktA6H3P9jS3w6XujI1Xh5/mQ3BNBimmGXpqt+CmGp/xP7X8af+YbKeH2CfNvPrkE3lwSjwK5lbw1Sfkn0SVb5YmL1cGxuk3JaRvJ7z5b5vHQCHFnZPAz5nbEU/4OfGyn9j+Nv6THJ8u/+eRjklbsyqopScnouZ7QWrfScSQn4D3Hjb9q9dtIBDINlu2UzgnUSOap6ZR/bHRq/9P4qyxJZhAOv3v+JZEz68aGzgoUPN4NLepp96smb5fAPWtZs8s2AOxFyJqZoklvF98mqc1ZwXdc28YxskVn/ZA55R9DnNq/x9hp/P2u+TeXk12upef5OJOSgnPWTcUsgatYiZdso8Gt9/eETIJXa+gkIHteJqtnUEcRCoVxyv/U/qfx9wfl39wxJ7uSUJklSTGTd8yWs7Ot2QfgK+Aq0ZOFgZiW3B2mego+AJLEUXODbgYIiU2nuKBd9VP+n579Y24XV9j5uNtfF8XGOHPedlZaXmA4tf8XO/6YkY/wbU9FvaxTs1mwi74B0Zs6wGtgr7W9UXmNrBWZmMyhV735rmLHPuX/h9hfU77ScfznCmOvZ5zW8CY2vnXRNDfnYZNlgDV7tlP7/yH2H1Z0ry8ms1qx9inHP4lcl5/CbSyF5TW7JZNhjhCO8iWU35GqQ9ohANWZrqracNxn8w7+5k7AU/6vm3TY6F+x/9HRcds/OGzbO/ttfXOL/V7bOzhohwfHjdUWSez5BwZjy16H1M5sJnH+aFsgkXXa/OJcW15cbGtrK21tdaWdY7+6stQW5pm1F4AB99T/Fd6vBXlZlCYNFFPWnmJVP/v470vrnnkzCdin4S5VJO1fBTTkne2ZynZmAzaRM0uYjihMG3AVGL1/FqyWAQIXqem7gE75YxBstLu3356+2Gy37z1u71+/3W7dedyePF1vW1u7zSQ/Oj7EzKas5mbvIUx8UsnbTFLaFxYX2vLyYrt86Vz7xtfead/8+pX21998t7135VI7v3amLS8tdg+c2l9Lft7ib3FujCK6ybPL+snNUZq+KZ/S2MVnZzz8Rm2mExeGTqldZDvSMbSNI0PrlH/ZUXP8K/Z3mXzErLrDzPvs+UZb395OeXNruz1/aSI/qUS++6Q9ff6ybW7utYPDw+TsEaRzeSI+1a0Yf0Ff8Mn/fFtgxl1eWmqXLp9r9x+/bI+ebrRn0H3n7YtJ5HMk84WzK+38uTVm6jPtDDO1yJnMKb22nfofn3q4+seLf2Zkb7YkM81Rk2s2mOIdHe4mQG2WgmM2O6WOvl6skb/DZ1cYHb3DF93AnvL/rfY/PDpi9j1oH9971H7w42vt2oe328PHz9r6i+22d3jQdnYP2sbmTtve3W97+4dJepN/GojJuMzLmZH1BM6m/IqkZlJO3/wSs/LiUpbWZ0lWl9bLK3wWFtqVt8637/zVe+173/5q++63v9beo77ELD2fTO6+PvV//PiniH+OinBC5VQFU5Zd3SMj82w7pi3NjsLUTf+BmvZqk4jV1xJ8YiA3+g2mDBgdNgji8DnlrxFiJxNxe3uvPXn2sj1/sdVecgx84+OH7Z9/drVdu36n3X/0LEtozVsmXEjBk1ejpZbSAggBXfbzSeDCMIlF1vSe99w73m+7DATPWK4PHAHevnS+vdjYauvru8ix1/7i3cvt3Lkz7dK5s+3y5dW2urwElDRP/R/Lzk5wsQumYf9Zxf/cqyNOdiUx9WjPzEmIcowiJMcsTJt9Y/ruvQkWyr3KNepKWsWnLzmqUs4U1kMC4FP+2OR1+3uSStfcvP2g/afv/7z9/OrH7REz8JOnJPXLrbbJMfDu3m47PNTGOmUhtk6RBu0bd+YYGE+xr0STD10ke5IYF86zzH4FfjZOfpmK0qlz2ikw+y61CyTu+bOrWV675P7GVy+1/+6vv9b+7t99s32dxJ6Th04+9b/G4wTjHy/+F8OQxNV92fpMWd6oJr9HgGQaTnP3lph0xn/gJn7oSiCMZRdBOtGXj/DuO4k8SXXKP1b1bPPu/kF7sb7B0vlFe//ax+2//sv77G+RxC/a1vZuEtZkS2pi49hfi1Lwer0Nzrq5QByHCInN0y8bz1QDpv1JXK8lCxbHmNjkujNHNjrsOjw84ph5m88OtRft/Pnn7dGTy21j+6B5DP7dv9xpVy5faBfPsxTnzPfiojT74HTqf70TcyboMeinH//j8pNscJrLuTDRCfImQyvRkuHlfftqei2Y4PI1ZLXuZgQkWhIlg1wPvEC8/nXKv60z0z548qL9gsT9h3/8cfvl9Zvt8ZN1jn+32gFLXo+V29xYQmNXknMsn2NukjJLZxOQT7YkFF61DfgcHuMcj28zc+soYZ2N8aHpV0C29zLeW4BvXAze0vJCWzuznNnZM93f/fZ77X/7D3/dvvdXX23vXD7bVuk79T+2+yPF/7imoLdgeozt9RwflgXDEfGlFZxtHIw7u7xEqf+zFBO+D8ChFXp+2ViDgLBu4fHmQGDHnyl/k2Pn4Ki93Dlodx8+b9ev32o//skv2z/98P12+859erGhQEyVLok1o8l6zHmLuSyFaaO/nlethI1j4rPuFOBN7CS57ZKMQ6RWjpluzY3Pqq1jRwZ5K4ZoXtp6ubHHwIPMj9e5hr3XVjhO3t0/an/19bfbV65cYBl+Jm2n/v8jxH9uCNFneqjv4l8Dg/bkmw3xoI0F1xuq2aYZGgPiZE9w8ef3CJpBLngzuGnv9T8H/up4hF3uvdxrP7qz0X7ywUftl9//frt19UZOcu1wg0eyTpvELiMZqSaxKkFH4jpIjhl6agPOUJrHmWCLmCSeZ8lr8oeueAiTWTvZa3uosXMFEOYRomZ8m5yhi9/a2nJ7ixNi3yaJ//13v9r+7d98tf2bv/4qy+1zwTn1/2cb/zUj68ByCW4hlcwmzZ/9zNI6mUVHzmDrWGbwJDnlLCGClfY4XniJGUAp22/doHHfx/s/Q/4e0ewdzbUtZuL1vaN27f7L9s/vf9x+ykz88S9utOcPHmosbITF+MQvuf5OyWPOnlg5nqUeUNuGTU1Q2zu+t31oe2nN22ctNCyFemjaE1+ljxr/xZ+hQL6eGHNvB/SS1ABsc6y8vfM8l8EOjw7bfj8E+PZfHJHga9whxlI726n/P4v4J5ExLFvFBeV4TWP3clwmjI5jS9EviyZklaxlNE8d2KwmCi5JbtFloMtBUdzCo2D+3PjvcannCQl8h5n4+pPd9sG1O+2n//kH7e7VD9vWi5dlG88kY6yyF8mj/XpDWY3kHP7CnDkTnX7tzyf57RzsYAwmN33khFgSHAohHC92HrSlj47810AQX0Fl8M84QD9p3PnrSz5UN7f329WPn7aNLS5hodvj732t/c///i/b6rvcQHLq/88s/klkPcA2DsqTmY665WAzshJUuO78iqJK4qAXjZHUdk+DPfRHPTQ9q2obAXhyTPbnw/+A8wDEd3uy+6o92j5sHz7YbD+9frdd//nVdvvaR2394QOMoaWxT41u3f7JympL8po32DEwwvb6a7j6xbPSJHMGAWCwf/0Fm37plv/cZ0KHWPnMdqFdzgNHtWQqutNVw94nxX1WGE+4SWWfs+97h87ic5zJXoXufLt4YZUTZC4C/3z9n3swPgP9s7ROUsV5/WQXGTmX5XMlnc6oKdYRHTfYnIRkr8vTCEwHJxyqPX3AO4RnYLDZvrgye7/+nPibxL94fthubx6157tH7dbtp+3qD37Y7l+92rZfPItNxuFKWVFrmkgmVM2oWSaTV5qd71g7x8vaFls7B9emb7S/c7I2N0GBwddVkoNJZVMlqpk8lssODsIrT64Pt0Xq0gTWAWHghEDFhrRNek96PeQ2z4X5hzyMsdC2uLX0f/y332hrKxcimvzH9ufk/88q/pPIcZL+7UlWzMr15cph9AoaM7lmVFxhkhoP0xZXV5P07PP0tsHlCDAtuU+Qvsz8tZxneHc5Hl5ntrq9ftQ+WudWy2e77fnz9Xbvo1vt0U1n4nsAxjiEuImoHbVRfaRTSWWTfXXUm8Q144Qz4SjF2hRyLCspoOuSlY2VlMVDaOt86x5oOsOnLzzsEKSnHW3h0Psyp+v/0GAPG6vOAd7MsskZ7fvzG23u2v08QXXl0tm2QlJfOLecG0xAzPZl9n/s90eI/760xgPTqKqz9Ih+oWwy1pAdh6aM+XV+hJxJTLDSaFf6pGMhgSAtSFlNp4XeINyXlP8RUb2Pje7vHLZfPDlst5iJX9Lw/MVGu3/tant07VrbXV8329uR2cTm/Flnk0ktZj8PSTJTZrbVO9gyZuVLg2pRcF1P6T373M97sxbt2vs4DqO9J6xJO+yfGRfQV545E0UOxQCoE/6Bg198mLNsMEI/l4vGiTO0fAYV23f3Drkuvt5Wziy1ty+uSrx975vvcMun15m//P6PwtikcqncpT+q/dPTnzu7YGGcaH5G0e5vI4GudIQnpaqnkEjR5+krgAqgICqo15UTmOwtxvt96W6DW6aOLyd/71s+QOdNjhWf7By3m+vH7UNm4odbPid81DZfrrdnt2619Xu32t72FqYg4TRLnM4e3CnObcOkBoAJKox/5Sz3JltfEhcRe9nMZElJC//OD/unOUlostuahJ/lLwfq8g390IgrU+er6NJu2eGnbjCRCLyCu8ATWMe51nz/4Wb7+YcPuK68mBtGLpxbZZauweY0/rTgH5Z/HPQYElqdrIpT8EM2nVuOS7P+0V/ZLIwGxxpR/eYj8OhKwU6batQuGp1QIiULNAC+XPwPic6N/VftLjPwL54fcEx83Lh/gjuzSOR9HkzY3GxbTx/xedaOD/ZLf2a5mDHHtGUjTTk/Zj+a0tr9pPNNtNgWxFdB1gXQETD1QhLG2d0Ou+IiEmlaomv/Wf5FgH64gJZBl7PePVpoADy8KQgbeKGLn7O3POnI/zoPf3xw4xnPPK+073zrXR6PvNDOrvD01Lx3CQP3JfO/apeVywTxUY3G1WC3/sEnn4b+NXRKVK9kYx/7lxPSao713tpVX7xLR4WGPc4M7vN1gkS1x0W1Ua+gM0I67JeEP4fBmYUfMQvf2jhsN14eto9fHnGGmscQWaUc7u9yPPywvbx/p+2+WG8Huzs8dYSBfQOHLnUV4+DaDZY99Vz7nYyoQU3iMixPE8fAGdXF14XCjo/0bOz4nt9wAphu9LB98E/WvsGf5fPgX3TFhb8S47ec0ZZD2roend+Q/wDDPOU+7Y/vvWw/u/6o/fLjx1yqOvjS+f9PFf852YU1EzxmocERf+uljJJ63Ip1Pvi8co+KAdG36upLtwFDfL4GT3tOkun0oDtLDwLp/MLz52Rtu0/S3uGk1o0Xh82E3jjoSqLs7sYGx8VX2+MPOUu9xbGxGwbP0he7JFFsAyVjtXdVUZECUBlwTdjMeLG/OAGnjfk1iewYb6PJZVlkvmNiE28suQNFO/ScrQF4nb98aSdZ0y4hwyGSSbRwQjh8hIZJAqiESiLbxqZoj55vtf/3+zdZbu/lRQWXeMhiJPtp/P3++VeJbCT0y0ll8hEY1gwAPsJYHck5APVQhQ373qjD3eJQ8VMJjYSV9OwetL4E/A+ZbXdIWBP3Y5LY2fgOx8PrnNgyUBOs6Hu4wzO9D++2jQf32xFPMiW6SaKsejFUkhXbmDiVVDjXXKLHes41jMTSsLEx/Z1HYKSS9lg7MMGHUJ0hNoHBjd3dw99Jvf/pm/AXprrDN3IkDmjMCop9YAZml9G2jlvyDXnm826xj+49I4mX2t17X23vcSb73CqvElpxUAhW9kZI6WD88DmNvzLOyBlNPG0ZbqnFUFMrhT5SjyaNqGWHMW237mbbVBnF0VZAE+gMXNCGMF8C/tsk8c31w/b+k4P2wTOSmETe4USP+RTTsdrx/VlHPKK4v7XV9na283K8eIcYTmJhPk1iAC/0RKTKGEsvRExGmwMrUYHpq5wKZuqVzL0/dJRBRPFNmH4Wu/MwQTNAzKDwdDONdsB18A+g/OiDf83MQiqMyJGsinLs9G33I5RyuPx8yXXlD+8+y2dzl5MHnUSQA1WlfBssQZZObx/w9s0ip320FdAEOgMXtEHrSxB/eIoRf2iqSYbxu720XIKgIKfWgVIGoXNsMY69Fsqgk700WN9Oil9s/nvMxM+IQ09qfcTx8E0S+CFL6xe0eelJ+2rSI05o7b583rafP2/7vG/rmDdd5rKS9sCIlQIkmMeoCfpqqTPB+CAP/wPb+3IsrX0zO9cxsn0es/pXA7eprxeK5rirqLeEVgDkr5Di5RjZ4+9qEzf+lz8gwiUZk+SKjv/6raTyz0c6fIpv4Ug7Ywh7EPJOsau3nrVruZ2Tk319O42/8sOwh3b7XfKPU4Y62wSr5JvLZaMqa/O6OEGByChnV4jE74AFV/AAd7zQsol6vE/ZvdUOmTJNOcOa1ur5ovHf4vLSh5yVvvnyOHdrPdvzYYiYPkGuXbTVwc5ue3H7Tnt25zbLax7Ozzq1Ltnk2FC7ZPYbBmKfJHXZxKzHoJBry9hqyhdtzr/DaJ3AopKkNY1MXjvwr8k52b9m+0gIvzojbjLKH1l1rwRBFkXHO5hkVmYPodSFGec7XBGMxV0huxKpw4WSR4AaVJKo8Fnf5Lr6R0+b7wb72++ayF9M/39e4t977voWr5UfMLqurVmzt2tqio6z4uThh3QFEscRAfG8nQDr3T4olMOLUVBCOJQKNhKk5wvDn/fgtS1es3MvZ6Y5ubVx0J5yyLuTJEa38QoOb2XEZge7222d4+KN+/fbPq/oGTNgrYbQPdnZ7TslkTbpH/rHLJmkTYLa7exnQsJnsr/JS58rAhOuwEIrt1/SBkboJQHDPl9pF1lUPRQ54WEiv/LyE+36WZ1qhpeNAxL8fTrLLbIBCBHlUMfghR4NwB7wxpGnL3bbvcdb7fFzbLO1n3doLy2JcBp/iZqkjAavTfdiUezDv7ZNV8UXJ7sCzXdcUxgYumZGMUXUE9q/YAOUHxqzzy6+EkSdo4karsKHdXVYTYKHGBUbavui8d8kED/irLSfW5zcesZDEEzOtU36W62Z6Hh/r2094pLLk8fMyPvd2t0+2LjMF0sm+CUhZi01y1JYLXY1uVzSZtkdx9BM8Fsc9p7z7JUnMJPR+qD+8vIBEwU/jCQNDPX5ORZowlNeTDIKVzylXCfUlEVGvjEEOboLK1l7JXKwiuAGFLXIjG4cgZfBSP5UbfHtn3cerXNdebV9492L3Lq5Qsdp/H3S/KsZOUaNx/SP/93JlHmXcjmcMtbHFfTqBN1wsgVnVHWas7FJG3CxcI4ofVCQQnA6YpaCttT/Cc/PGX9v6PDE1oN+TOw14me7tDETJ9DNp+iNvuwT6Oh0wDHx7tZG2+NGkHopm7NOtyOGyQxJizbiu3CpiF+zqGWTAhyBxid+oI+mDBkk4hy3a5GKbcGXypuc8z5CCC6fk2vHCqoXhS8cCim7l6fMlDX8rQsra4QKP8rK57G+ujhuuAcM/wOXZ5erMb94gS9zXkAkOPvtteTrd17kCanL59dySSq9YQS9z5n/S2ql1x4nW2nU68r+R45/b6tBKr8QpRu4hKz6SGL7SvQOq8wOuNU400djRlzhpQEAHg6Y5cHHOBraf4H4ew/DRy8PMhN//IJH9khiZ2Jt5p8/i5ZrsiiXoNUcrF7yky3e+JFgBp4kMXlBAYcvZyFtShIt0K5p3OpYM0A9iUmm6oG+eH74p5w3dpiwCyttfmm1La5wG+TSubZ0Zo2kOlPtJLluztIfxPgXnNDo/DIry2Q4yMQUp/8Jm4aB1KvSyn0ItMft2sA72Y72+Ambfc7Y77fjQ8veCIItGPzWeX75p97xxb3Y3/nGpfa1K+fCJfSNua7fafz1+Ijxe3RgwlTZJZGnUW8aSgXEW66r4nXrBpd7jZtduk+eKbaxUzYoA0qbwI5OFQmdMW0jqS2OUfdzzP+QY5IdgvLhzhHXiblbi+X0U5J412duSb7oScIa7LER35adiQ65vHLIya5jHoyIJQ14dRW022ecnbbNZAhN7F/UBCMBAw+OMy71OV4m7wvxyFbA62Xxzr5zLE8XFs+0xeW1trByjm72i9x44QdcqVZYyAd6kqypPvX4l6/M1kDmzZzBGbDsFYb/RIX6s3mcrNzqmD76/f2pI+5mWzjgJ2yWSebD/bbEC/V9IgzHtyNQn3K9/eEL3hzK2f5tHrLwONnfmwr/0/jDllr0X8+/fq+1hgc4/xgwiaejaGDXv6poVbrUDAcZuFWSVxjnTIl9dumI7EOo8yiMtBAQxQK4/H8++Xsm+vEWN3qQxLdYTvvwwx66mZCGHHOuc3FUrSA3AQhkrxtzE8geP+1iImu3SiIHPQDQv5bO9FBOgmOH0LAbeBPrxBUEuUm8dLYtnuGzfJ6Z92yS1ySe78vqLJd5F3XuZTbRPfMdfsgUg49Bp+yfwUO+HUaeWUnI2z/9hBABMT5MdGEcbKge83UUXyqxglNfiPQMJgwsyLKY1QgztHcM8nHscOl+fMSPzjHYPN3mhpqNo3Z5rfHC+/m2KD4wSnDyTSlCKJUFeKXJsm1sUZC6XV+S+FOtsoI6VW1W/0VdU8aK1pQNMFGEDgY76hrEnQ60bF/+dVY5LOCi6tnZTb+5vJYOWz1gUTSF/DzzN2a9f/p5ZuKjXGZ6vH3Mu7ZIBAQ3AWJDrBC1u/7RCdxj3l+1xzuqd7kd8xUnyJyx4gBnHPpjEoH7rJYzwY4AZRSa+1KZZJxnBiZz26LHvVk6M9suu3Q+y1L6DCgeD/dryjpLXPcwKT4xPy04RDnwY+WkMPCMjx1salad3Ehi9BQGrPSswwbl1oMnvg0HVybKb0LxT0pyxpuTY/W7JoVDvw9eHjFAvjrm/MGrlXaTxzznFjbapbPLvIBgoXmIv0ZCX+CtImu8fndlCRzPnP8ZxV/sqfPiG3bY7dfp302LowAsx4FU3ug7+7C9nfolRuwg7BJviRIrJ+0p6WM2u0cSJ9kTqCHa6X1++XubtC/He8A7qK4/O8hsvM1lp6Fs9EfxqF6V6Gy/ba84HtzZfNn2eeb4iCVlTgi5HJaESRFKZePgYKw6U03AQi/Humcu8DwvM+/qeQL5DHjMri6lnWlN8L6sLsYQ7uLxm7kyKfuz15GRadb+AOvSnNSyV/78KVmCBhn8feW8gdPBhswf7n4F/SRsoCUPIUmY+A7c4Bo2R3xF7+gqnAMVg4iDiY9Wzi01fomm/fTjnXbjEUtvktXl9TJJ/JXLy+3ffHW1fevt5XblwlJbldDMFpMPgVRuduugdn9R4w/jxD+/Lf88rRnVNbi+ThCkZVjBBKesxZxZNUphFHAHS6tErAvQ26tqQ3/3F6XXOgc1AT9H/A1mZ6utvCBvv330/IhX1vp6HpeEGmFGSYvUp2bXjH07IHn3NzZ5WIJEZnaumzoED1LhxQYGtR8Sc2m5kpSEX1z2pNWFtrR2Mctoj389ngaQj0yKb1Iv9kNyu7r9j5kdnRHJruIdh5jgIHe/hkzlfPm40xnt+j9yM1lPtCN/yJYcUR7ioQ/58DdZlYXBRP5MG8nDSTjgXDXAz/NfDzlsadwdp2j+jI3J/JTr88csiTZ3zrS3uT/74tmFdo7Z+iyf1RVg+rVtB54o/Rr/IY6afLHirxuQ3e+WfyyttVs3AuVpi5Ot2achetE6XvKvt6YrjOM8qgZFNoNsNFKeihQcEfru88jf19UeYANfCvDTx1wz5u6tdaZnZVVvwuJX9bcFnaajE+qvSOQ9nnja55cijl1a02YOZh/9nfmcffm4bF7mdThn32LJzHEvS+mcgc5+mdnXc5P+kSD8ZZaRJbbUzpmAqc8VG6CkS7szp3/wy9Z9686mGpgoqxhbdnT6l9EV/ye3rfPvIORxbg1G8hfOPjABrGugNlHJtWRsBc4rltFFXCZyUbYs9NMcvnylh5Nh3MTa+NUcfl3yuF17sMdP0cy3K+cX23feWWnf4POXV1ZYhitb6a8I2b4E8Ydhuq00SCyTun6M3VC2t0bl099HNrpnA6Bbhzfz5Bni67wo72NmiYccFzvR5sSUNi57xpgWx8fCuKc5x8+c1fYBiX1uyzSQE/wEuK+mFWuB30lyuTxPEs/Pc1JolWPetbeYhc/R5rlIltEmAbDytDT5OC4s5mlTCKtMey5fOd1E8rq0LgUNApOzLo9JTHmG8tSzbO6hwsDicjrLamhCKbD16iF5FHyMQv/EX9uEvwmKzUhUedKaTw2ADjDVFP7CWO8LBUoSiTxbvKBwe0+sg0j/FsfPO5yveEn7Ome533a5zRL8/BneBba20M74m1NO+52vZKNzEU2NG8oz4NhT/NP5q/zR/3Vbdz3UsQiXWh192v0J+C/mrKOGVkZjazJmtZVbFVGAbhZ2uidOjAfsm7oTRBpIaMEC23FtypQVPLoNaoEk8Tni/4JA+eG9/TzJ5PHbsEOCEi8O/Ud79Opfx+jkLZM629f6HPHygAMuQb2ibOOwh8e480vn25lzJC4nreZylpmEZmmdy0uBBF5b8V/XjSsspWGs29etX9ypVNKFFX3aVr4uby0bxNTds9XxakqAyKvo01H+gHH8GDokZ0984XIoIP/elvMsAPuwSGQLfehEduWRv/LCXxjbSaokHnGXRyndyzD0latksuS2scu5isfckMOS+6d3dtqltUWOnRfbX7270v7dN9bae+c5bwDN2F+EsOcrWri3OJjI5vMZfxE8smsMtxMdtE+87mBaxuIEaGk6A3uCUI1864Ac7EhPJ1Fnr6/Dxi8rnWjaerlopEVCcDPAqWfAoCzA6IZEeKXBSt8+A/7GtjPGAWefd7hEtM3vLm0xDbucnud1NPe4FHLt6QF3cCHxELLvK0hjuTKv7cjoyaG6lhpFYhOD+4gl9fEhx8eCkbyLHOfOzZOwLJkXOZG1dPZSJTKzb71/2gwFXVt5bCn9PovkHlsvy9DoCaqyl3aSusmpTdlbHRtyVZKx95jZpA6ubKQBoExoS3J1vPhXOaRlf09Ez9UVf9pty+b+hM/JhEBzcN1b9MSXcNQz2HV8ZcAn0lMDgbuIwRk09NcLVjYvt53xD9pZzmZfucTrdrn+LP0Xby23c8zO53mN0NkznDAjwpWrNrVVR+p/4vj7tPn3WzRj1RivPHmieLf+sGM5LrYnoSONaDaAo4HcUsVkCQzbKNOXUVw42scZ0fLWH5+/MXNIQDxnur3Prx9+fH+zffSAHyM7ZLl78a12yF1RG8fLaKj8BAA7SwlcA1F9Jv1tt+5fwWVZjVpq5t1ciRsyYIHLRstrl9sCZ6EXspzmpo7MwDVDCucmnTEDJ2kI8OQMiWgyl58MS8MeLianeHbhDydcj/Nz+Yr6cUZv++dzyUdAm5K8kTNUoqdfzp459lYOP9Sdu5zN8nCEjBxkaJMMHRL3X8EzpqA2/B1WSv80QtvlejEHODKqBdSpatcSgl3oFm3LsZBGyL98jxs/UMkrhBiMWX7fe3bEiwoW2zc5w/0tZuhvv8MJMl696yXVz1v8fdrxX3d26bhhtj5SzZqxTMl3jDzM616vGdR8a1wdpx8op8epK1bvyxdqqQtf3ghgBUyn+xnxd4nre6P8Pd/nGzv8zjCXhYgCE/nOw3V+UXCzffxou23NLbfV91bb0sUlrs96v7J3Qg191KrLyb5CuOtvD13JsaG/Z6Gxwdw8d1lxw4PvxZrnLPTS2qW2xE0cTMn0jeu+nS4jjJdkrGlLjVt7yknGIu4JrHG8XvY38fjEtuDGF1RsM0msU8pxs8fdDi0d+FgecpQf79+el38EEL0nfK8HB1jdJJUMI52n/q9lNvTkl2AAUP5CQuOVJ79od7ApEejJMlv5lYNuZmr/5CXbSmCq9gWCAqOEg4TnDw9h7HH0Yx5geby+0F5yqdCrDbs8Hfm1y8ftLZbfa2fm2jJnwj1DLolQLoKdrxU2FVPQcLOhNuWKI2IYKx1ZStKj+qeMf65LqFTfMLAGjJImYWQdBtZLwKmIfVG26ikO49CUwJNktBPeykSuFK+mfP8x+O/zMq0nvPztxu3n7Z9/ea/decBNGjh/m2OuHZZl+3jj0NsaL3Di6Qz7M1zmSZLp25pVoo5GGPp3RaM/Jqk5seebmtExz5nmBa7/Lp+9wrK6TmjNMQNLYyTiib1ieRA1dL8nmqD2jikzY6G7wDtrE90aDn84Y1ufp6z30iz7cli+R01YbsOAN8nFtD3cCXhhIDOTJOBQAdakyh1btKung0X66PYd1uGhXPIHIPxFhcSIJYYciUOOXmEry0tu6ZGQ7lxqp2pZLZQBnDrZLX+5sXdA4z9cRAhNm0xoXvLwdL89J5k/eLDL7LzS/sO3zrVvcZb7IifDVqGpuYIuCbapbJ/0+cTHyqFO2iFMqMtv+F9k6oCESPAsDoJ2BF7ASBvYz4J/ErnYyMmQVQo+etOiggaA72EEhbMLAyq0ELnkoL+qK/1VthFAYYqQJaod8DX4T4+/TyntMuP6dM3z9a32jJl3JPK/fPAwj87t8bpa7yxStpVzZ9uFdzlePcfdUt5S6KyFmCaHsiqzy6FygnNc15/C0D8na7RHVy/xynXhXAtmKZ0z097lJOEOF0eXCLBxwS9lOl2XdtPFbsxaJkuBYieY1NK180cP+Qsg/7I9e4kke1wZRBX6SGDtP3wgGFtmycBT0bfOnu6lN/hTsZrlO30moZuXvMKfcsKjy1BL5hIq/AOtYqZMbcUXuuoAfduLKpaN/ekb/Okh38s0kbH4dRXzHm2Pofn5qdb4BZ4NrjY4E+8wkL/LKuvts4sk9FI7swzNLmMXA0KfXvyFZhRUVw3V+VVJAwZkMoK1P4B/JfKkUDdiWTEBkdFejcNXwxb/JPhkdBrLN71zdieCc1V3SlxEjebQktdnwN8kfvB0s1279bT96IP77SbHv7s8++rPmDzf2GU2JvIIDr3pCL/Iz36uXX6rrb11OWVlMiFM0sycEbP0jzlQoC4LlXbqH51UXX36RxgfYPAasY0JX3SXbgVplWnIllnLkrwzIlgwCMAdQS2VlGsNkBNiJpSBXWRm8Ekl8D3bbLBX9Lp0hmYGC+nqPDfKwkmFfZbcKVY98ghFNfwpl0g0QCIDi5oJMLZkWNFNPMsjf6w5QM7gpJ7RiZ1ZGnx1VCJJd/xeBzT62CtPr+QNOsZUPeRRAjzn7Pa/3NhuNx/vtfcuLrS/5rDpb//yHMfSDLBSV/VinwLoxZ69Yn1R4r8SGYk1rg605L+bRrFysrRQM5p6Ahg5cZoaa/VsAShrdAdJKAZJP3A4qoJYK1L/FPjnMUFWEZucfX78bKM9eLbV7j3abFdvPWn/8v593kSxWff1IqfP5Sqt9yZ7DLy8eratXrrYzlw831Z49YyJ6xb9+cripAckK97YIzD05akhjQJd0bRHbBgaNqDjAie5mJm9/JRjWw/UgPcaMYWYNPbvuPIt+ewWTvrOFuClCA8S1yPVtNmIkGFpORmjbQUGn+Soa8dWwTHpB3/2Ia8cNItd/OHRBUlyA5cNIEhAQxvKn03/jUEkQkT6tPNld5XZDz2Lf9lBruEROGrQCk7QWDWxz8rIxo6i3i7RtXcGnKG//COMe2ZiDpt2uKHk2ZZ3iS20bcqLyL69v8JlK85w8/bOPGmFrnpOq/rvpvpWvgjxTyKX1GV/lcAAahAnUh7Ksc8meGkIJooH3S8dNurA4owBp9PCxuBjEOiUOo8QSBAVHL2/B38fl9vlzMet+y/a3//gw/bBR0/ai8299oKfd3jJya0jLlv420bOPplZFIJAWOJY+MLX3m3n33mrLa0ya9oP/wRxJO3O7VKrSs7ogk4pesV21EqT3q7+zi7uYqmyj/rXzGZf9Se5JJVphUjNrERfX6vnnmmYmAT+D/5FRw6VhDG5ZclGUFoUzg7ada048xmIpWV/tQkWesrAf4hYpl1aCYsUJa4OtafCVgntmfHMnnZl9LNQ+lvKshneNfipTVqhBn4ZViBqtOsDBZFxtUhKUbKaD7Z9kiiF01fRRbuqxf7GJBeqOPH1HND9u/scYr1s3/nqcvuf/uZCrj+z0uYBDWlBLIoW/+L9uv9P+Mla2pFKyQAf9eLfOztdQD7D+CeRYeo2HBPJylGqECNGQMsqWDu+S86g52tSSt0MjNoMwKrr/GFcgybO+wP57x4ckqgm7DbHwtvt/RuP2z/9/C4ntZ7lpz29xKQwWR7jXCdDhODDbMx13OW1tbbmbHyBy0E5CRVpMQeyRgnCSv274k5mQ7UeJ+mzTdJxqC0dKHzh5w0KHo97RpizXtBPyAMuQYIgYvpFP/jhH3Kd/wgwOSgbe/kprczEd8Bwlix57WADz7xNH0DKL3L46+vX+NNRkRl6glooEG2W0LUxeK/zhzaiOwjaX7YrUNM8d4nF/vRjj/BXaIUJI2FPymNSlVYGmPig6IomivZ3rBEvlGjUNuLI36Ld+QE7CO7wYsR9r1RweOVz5Ge5KrHPAzDvckPJJU6E+RM2LNDYhv3lMmN/udgkC7aoar0rUKbTB7SkvfpGPX7rQfNpxX+x9n0wbCGq4gidgNVhY9QWUgM7xBkO6qJkEYi9YqdROKrsRtBXH3WjBxipFC1hBK7t9+UvnrPtT64+aB/cfNxucDx8l/c/PX62jdN4G4UsTBi82UWLrlYWuel+5dxaO3P+HOW6RTJeVyT1h/Y0K6eccCxV1QT9iybfPepiBtGjqb0GIY/vcbLFEWSe55FdBhaRRL3AoMOPfu9fzgMRyoD96zKUAMpCQKFL8aQpUSwgLSoqfnCqaXY57CWwSAudeCHygmMWhD+6zfCXh+4el8GKv4cFRSe/IcVNKdFFiuHPgBE9wE2iQhPa8Tf27CDQkKEcTgK+5E7Kld3ptb9gCs5r0dIND4Xu9pdW7G38GqLyzLBlRdMIqzoOJlXXCk/X99t/+eVGu/Nkj9l5tX3nK2faN680noVmetb/X4D4j4LaCRskkROwKDkdx6p8DFn7k6RLGETRJJ+2np2iQrk7yLJ0QkKjGjQgxNgi2lHbJ+XvgLOxybHwk412/a4ns+6xlH7cbt55TmLzAD+86jhX/vLk46UkN/i7KvAe5zMXLnBcfIFLTT6coERdpq5/hYiylk5+G27SVP+Uo7987HAnVIcDxlfqkCPwIwi96JlgF7/bQ5hEvFKDnSCXmFRqr9A2V3LKhKTyNkShxI0gAAQcPNo8wZUG9c/ZcBQ0+NG/3rgpfyoz/NUos0bnq+a1Ke/gD93OP3Ex8R+gyEox9tfXEdIWoBVJ+2u/6Fx0S39tFoqlNwyjvziiRZjyiERMfsYSjj6kO3kuFMIWZiWzagKIn9xpDr+2fc/a7m7b5Fbcfa5w7DNDu3r7+uVX7TJPWZ2Z7giTp0hu5ZHh/9D6E8T/r+Pfl9YIqtYZSbvgOCCm1Prp04G9jErxg0bWamWdrm43qn1pKbyiRYtV/vwOXrz7CfhzLOydQQ+evGz/zz9ebT/+5X1ObG20F+t7OIVXyUBq3tmLs1Kz1zUjphp1wReWOUv91iU+3ufM3T/QHL8PnHlP/dHL4Co1KuGGU1/TnwRRJ1WpebtQ5F9nxBkouJVwjnfo5hrqmAk1kZiaHiZOAm6Z9ww8/pz9whOG8oycwoPELolp2VlXHRPUdJSdY3Xzlzu7kAwGkZGvLD1LsRn+ZaUc8rzGn3boK56yZOYbOpMdxUt57fdP+5fcGfCVy4TusCeDDG1SxPbqnN+HRtboH2XVH64Zfbpx9BMfxImudcVOqxd/KZ74vfS3LUnMXpvVhKUxefkfCX2DJ6s2tnkwhjPc3/3Kavu7b55t7/EctNCBhV8ZX1mkUFXxS+lQDW2J2lxf1S5uJKE6bBUAHW+DmOGB5upm/RPmH2fgNYxkwURb7ZfNtuoIT6pVTwEg925DagQq3AB0y+k96vzHICRYqdmR9byzhP2/hb/J64vc1jd3uQvrZfsJN3X8089utav8qt8Ol5K4lTlJEyOEFmydCiMqXM0SeC0s8ozvmeW2wpJ6ZY0njfjdIUdrzTdGbqXTxkkaZ+o4otftU1H6A9f1zwydclrpRF6DH9oL/CbwIg9EHMzvlA0zE2oaeJJg8k652xtMOjs/ul7jr+N1cocNIPg1045269BQ/8gBDe7Yyu8j95VA0GUT/sIhy+APqAGahJz4IyXw6in/6G+DslulHVXZVzqXfAUolHeMYWCg3UuINnlkiW5R/rRJQ3i+Yn/qBtaQN329XpAA4Fvxw59SBhEA69c4tKa05dtlKw5B9/ebn214v/0xSc2vZfKo6hrPQe8zI1zhmvMa920PmWIfBej+V0z7CgAeKQcAmdg72sjLYucf/Qd/xfkd4z9UNUIKMHLv1vl7dwJlAbRqWgtAiA6f5hDoXcEeDRV2WR5LZygZUsKwhY6BUDTTkHb6x4zzW/j7w+H7ZOvH9562//gPv2w/ef8Os/I6yyNe5BZR1CKFYjnxL57pg/8C14vPvv1OO3flShK6i1f6E/hBKwqv698By0RCJTyyL/ZyGG1lBmG81OXZ8EVOrPhEEzcUYgd6ErVgZKoSEtw+64USMDlRBkZ4JgYJVyqvcjY7rOms48/6gQDaevLGDdh0DAJ5WCJJHJTwj9zhb/DLx5sukSXyUUhroq3Co2KaGDVoCyh6UEzSj4GA/pFURVha0Bn+l1k60JQkrIGRsq6SLL2RH6ohSXvttW+Vq1A+117aSkmDzFfBhVGIBabz7xEfYPm77XuJih8bOD7e4RImb4ThZYD/y3cvtL/IbzgPoQLKV6hP+5LXbz4leIGUMCnL/w+J/5AqUSe+Qw45s7R2x1aWpwC0VmOk0LKaSgsp38kmjg3VEQFDZ2ZpILAggvKZ8DvadG0zAMD8Bv5eH97n2NJj31sPXrQf/vx2+5effdyuc2Lr2HUVwe8LZMtH5cxia2J0/gYLg6N1XwK36rHxJV6dw1NOggRM/tmAHfpDeehvfrgZLLaVZSpRLKukq4o4LN/Fb55ryEvcKbbsLZ8cJ2vbmISIjdyJUIkWjcx4tPVLzNUM02GeTHg5PQyvvEFA/ZFIHJTMySBmnjFzTuRhkSxRUgSowwbPnqvDG/zVZZgjwpooEijcSmJtrjVOBj/tkIkI2LEvpGBqOBnz4Z+ZuJ5tlgFbVzCHPgjYcy4oGj38RQ24BMrWdrj8tl0XoU3UTH6GX6mtPqEpqp/YXxtSYXMy8MELLoKQyPxmNUAeK6vHO7zMwCepTjZxJI5gEP4s43/E3+SPCPGr/HOyq/rKSioWJGEzS6JAVzYR2I1Dp9YIql9FOmYsHW3Qz7PwYaG7y9jhJZybtDDem/wPWE5v8POjLqH/7//0QfvJtXvtweMNAraC1QQNamhwTEVDJRMmwDu5ZgkPDeIyd543ui2dXctNINwZIGM+wxnSquS0uYYF9e9QgorCFgMPxr0/Z50FHvAGILcdLXHv9tIqgwYnZrLwIwg1ae62EljZDEz1J0mTGtrOLfoAQZ92C3/LJqvRijzStMsHQzz7PG01ztWs5xJOSPgY+MW//JVlMQRMagfYnEaTZOQhYYcjfZQSPsoRTZQxdLWG8tHXg0dTuZzWP9lg6J8JGCLIfgxueKiPtNNddCwbf2N5HBrqKxPlVwFhyLSA0k5IJHZ1i40eTilOhwiuuorqdqSvY0vbyv6HENnZn2u3H++3vz983p4wS/+v3zvPa4Uc9JGt0w6DMCpaktQmUAqfCKV9ZuGVRf7+gfC7xH8MOAQuJmH9Jv9KZAXCqG7ydQvOkLq4VucQbgB26Kr2xiIFvHUqaeYrSlgvgAzoAeHrDf5HGPiYJH7+0ruzHjEL327//MHtdpNf8Iv9oD2WjYogGQ0EWjadZ79BrhiLPvu7utZWz5/PcfEiZ62LEOAQzAohFAa+zREuYJn1qPZJMG3VK3wFXwVxqqW6MjIjL3K32PLqKj7xlIT6G0BgK2uIEEQ+EWG1t2VGTZ/R6T8wdA6bRc/0dyRtC79K+JACCYDwo15Gg478oTPLn1bf7SV48cd6k2wmt/h8mXiKWTmnUJMO2j5gNIWFe4glcENX2SyoT83iOVElU6VSJsrhXyTSLjH7Ij8MJv3tFbVvgiiDYtfXKBSQ+r7qx+lwCp/SRblKt5BCPH/r+gUPXXjcbGq+dQ7b8+e92mc5fqapPkEoPp1LtUQIYWyNYFaiQyTsSg5dSrdCKjqlQsWT+HxiO8hof4EGIEWhK5EDmJb+FVVPGobTxe5CKF+24ZxB2fYoIMfa0kRRYwz+Q65A/Br+ntja4SzvTX4U+//6h/fbj39xpz3itsvQUC/+MlrhhHGNNXwTuMOlxc0ZZd5j43eutLNX3uG68UrOEBt4boNm1OstFWqpoLL0BCz9q0zdgn3dI9Gu69/PIZPIvPqOk2sLLK1rdoIbM03ugkqGyB/5mD1yxlk+tCR0pKWe1AwALzlVLdpXFz3pw+YuByOSbcoEsDRHUso3x920OwH2sRMw2tFD7KxwybBce46+qOnMRm+9jECiFdjCRH/wlViPO5DoB88c9xEgvUVh0iT2H3aUjbKoVcnvnpJxJDltLO2oRB9tBd35o+sYdLMWBq9sgpzIk8FNO3T6ljK5d/quwsaTZYO/Sb/H7HyX68z/38/XuRvssP3v//3FtvYOVziKvd+IQa37v+p8SzfWSIsqlPydv63dtAXwa+K/NK7uAEdneaWg+rV1/k5LKApapJMB5QEUUNUGH0vPjvZpoz104tCOFDqjtxQaQo0TJJI94fE6f0dAneEzwx/decxMfKv9+IM77cbdJyWnLkLG7mql58+TSJ1nV8SgqudlgUQ+j429Zuy1Y8s1MyofeOrfxa/bDItaEp0+eR170ZKSbR20O6day0roBUnL6iF/l/ZLDCKLy3WtuoIKGAWUabIsnGgwwZzZilq+SRrTxMQzOLRlSSIfeVujlASybs1LdPBPMzjxD+3xoQMf5fCXgBidP+2+Jig60h5Tqr9ySgu65XC5liTjOL0C1zYAhQQl/IWEhlvxL4hcIQC2aMLREYRN/YdZIhVCqL9kh+2U2JgVpWQD0iyPYp0OMBmcUHSslF6LP2mOLYMoJKgP/h4zK90GP0Rw/YCrDQj1Li8tWMCGb/M6Id8TJidVK/t2emFv2YKf8hmF0AiC5Q4u108j/5CmHFtqwEAPDCUji4agTTuV6MpEW3a00Jdg6A2Bqb6SlvZ08WVQ9K6gWX6DPy984oTDIc8LP2//8e9/1v6Pf/hpe8g1Yx9xK+U1DAnV2bnLvcihK3VbepiBoMw60vdjLflbSByv5jnjLkv6FE2BxJ7RXyfVMTN0ZvSXwwl/5Rp8Q8GvkkL+GUS8HdRldc0QYQVK0kHZgEtAiwf/HKtCs/g7O8ofBGTIF0VlKD2xR01VVtmwjkkYikmBwNkjvpwCJznhka/mVzvlA4686fK7EpU9wIjRiTizC9dxirCdtYW/7MALD5pVpvO3Lfec06z9lXXorP/l7ya+z05HEv3PnwSVI0kcQlQ8OBZKuvo1+Ox1WkjZAUDEDVDyPvrTHFuhS/Dgn05oiHLE6sRLUg+e7Lf//P5G+y9XXzLJ8CLAckBww1jZso09lRiMepr4UrYOZSHlN+J/Nv6Cl4EISMSK/p3Cm/zrVT+zAmQ47kun4jRYxxdlTHWlFAFV2LIGsKFLqKW1FMpkxBkCSK0r2NE7/dQ4Y7ib5fQ///zj9qNf3G4fcuulfBz/xnGUYsm/zuvktomeWNLocrhWozjvNVzeTOnzxi6pF3jQ33VccesiUikjgZ5p4DfoT7eBJ3/vLHK2TRDwvaD+PSW0Q25LrSaxGEho45OTbzrHZTWEEi4Rxq8hV83CMRO4HTBneqmkfqK/wQ5d77ZSeJNLCORMUGj/WI922+Sp/vAP5e6j+I7OiAL8WKZP7QOvuHP+Ql2K1xGXw5ypxqU0GKpyNy78qOtDt+gE3qS/sH0LiF/YL6YLnbK37qwqdcueSJMYn+g/MbUTItKRCP1vxl/iKLEKqESzhXvQlM1BJKIAd4SNfGPn9Ue7XHnwWJkrEJz7uMw7ts/w6xdCflrxrwunQ5fIVnIpYqlFXRXfyL8srQNU4liM8hUEIOmBeMLmSWsqFRgSjam7YQb+CAB7J1FET4JL18oJPcNNyPvMvv/n///T9v0f32gPfamxyICVTzq8MpkMjGblpC7iDKMECjz8RcLz77zLdeN3eOE5N38IgxHMo8idBllIu8sKnromaeGVPlkKUmBU5F8M/Y4cVS3AWL2AVdkEXsD589yQ8opXDhVN+wVHj/AkfAbNdNGunNAKuf4WziRsP+tWfJ1NIgXAIRlZR4hP/sOI3tLo2WST2XbZ6Vb553JQ8E006cgfmwAQ8j6GCQIpDB9nSuhURwa27qXQhBH9eg3Y0JIJ/16Llv/rxgSueKTZ2MJHGC2oinTCn4p8oZ0rFHSkv3/bK63oInYQqzVVRdf/QUpUdYyKP0WNbeyyXMTzs0GveEnF3cdz7Qc3NtsON5L8D7x55IyHaW/yUQkRS5lIVsT4/i3xHzjwPmn+9ZfvaRo0jED5riBFlumXEi0jXIQGsswXtvnSAOqczehwpFdoO4JVQZOoCWBR6rq2PV658/TFRvvg+t32o/dvtWs3H9bzwyx18vwwNMvUg/PEDfoEAbJFA5uFJfjEy7HxhUtt+cLFNsfsXCOCMokFrR5r42GFrBYhlBsMpMWyrWbRDm/wB5vvGaWnovRIFvlnVu6w3mW2wEkvj5U9K+rvQIU/cDo8C1yNkf/0EAvA5RJaBXTBT9YMXsjzJf/onwL8kdtr0ZEDezjD6o4sQ/VPBg/ryglujRidvzygEf68FghEySqlIloqL6Riw+TuVKQvf+hmuSp/OuoQjb4Q0UZQibw2KZxA5UtrlNADXtLjU/yLZ/ifsIdW119E+YHnKsh2GuAvHSryEYYtWthPPSu+3ppX9NImqPztk94eA9DzzcP24f1dnpKaa+/xTm3vyfZ3qhapd7LhPxmk81cX1YhAASybdlOAG+8plP/AAsT/75p/tb4KkujhCn44UR1GLAE6ayp966OWtcLwW0mATINlO7sSM3TTNhDh//TlBrPw9fZff/Rhe8odW0fOWl4XpS+0lAVik2yUaxXJHh5DNg02GQvcHBtzxthrufllQnmWd0sa5MzJs1i0FPIkSbYQ/k38wXtD/5o55V84CWJlg7YvMFg5u9rOnOVtISYGLGqFw9xC2cs/Qy4nSyqVDPapK8yySojUAnBI4RmZ9KUaFGcq/5OEBJ9kbNA+NXvS5DGlKwptimyxrHt4WPtV/uAIGxlk6QoA/8hfG6WPPfx8DYDBXzLbp2+Kl0orh0kReoqGfpYjr3tghv0jZ6SnXZnDa0QAdOAf3LTDqIh1/dmBoyxpgG8GDveRk2a7+g7qnRb0aZcuBKQY2UCizM1JvB7qyfP9duvhbrt2d6fd5qz2NrcICxf+Eu3+p5B/CZpi1c9O2raNJjtl2gUaGgo3Ejrl9BcnURFn2pLIZSTb+qhgUAXeIdV2v8asoBC20Sp4Z16NUi6hApJopWRzDNpxFdw+tiOMtcUNH4+4f/pnV++196/f4dniTcANljLqLP8ESCwtCY0RAUNLRlEI0h7DLPMD30trZ0kijo15IsRFmAAAQABJREFUvGkMCtkHU3n4GCT81zEeHLJshCQKZsZOoKC/oPDrokf/iX8aS38gQrZmGSBYhbqsXr3Iz8Fc4rHJsTIow2AEAiH20S6Dv3qh/whEqtKNXZL0imejPNlrTuSOS0aS0uSWwFXHkr7PzOkJzbw4/7fyV1MTVPkiTPjXiUbqkQFFLcofuNgG2CRT5NR6+CauL12DYMAqnhtluVT5xP5xAV/y908naPIMhp29tkgSpN0+GZX9R/xJOTDpg1eXT5XsUZ6cJLOk/9PuV7RhiU288taRR9zC+cv7O+3DBztcc+YNraoeHYu5lEpASjL9DfEvy08j//q91sqJsPnXeCV42iJRvqKm8sUb1Eq1hI7qS6RgnGKs26UHsi8aNgvpty17vBTt6fNNRrin7aPbj9pd363lU0Ion8sVJH39Sb1wS9TiFWMDI83uRgocj67w0oCLl0iei7m/ug+JIRDxAo1gODR0IVr0e/A42HBSJsESCYo/bMpUkUutXRTL3yArWkGyDvkMf+zzTjCettpn0Np49JxeX6jucaTGUQyD0z306vATRvJHji5jgpxqQOWfoK9gE79+n7jkk5h6mlClOzL2QM/8AfwCdNU69vTEVZbXyONMK+7Ev9MJvEIicOQypeQvLygpJ/s6EYU80phgtU3hwomOriQ46pWns+AfLxh/ItolDRTJ4GssuUXvFLrNoQx8iQ1MHCzNIRNEQkxc1IsCNehnlRL51b/bY0q6sqHgXZxg+uVlqav80oUvS/7aW2faRW7j9GELHnKb+Me1yqyLVcSNKv8ppIX27GWQf+NPCFoH04Lo30FNf+wZ4sSXAahPOjfKmtkGiflxR12B3PUASh9NwZdGOoEVVQFmt8RIGdXmHKsEnrOBm9vtgxv32k95munewxfcjrlND5p7gDVk0MDhX6KHvHLisDF6etW4ZEQAAOrY+CJPOZHIvi+Lv0o4ukMXiaGpalm+lLXpU38CKkzUSzHEUH/5dcNb579+QmVGf1UXV0RB3ENyjpNcq+fPtl0+i/G2dEgEQaWb0R86CXB1Vw62EHA1QD3HqpGI9uon1DovtWPzC/5DyogND+UcN4OU/cu+ZVaQTGKBvdyDPPIvl9un/vJBDmRQvRoUxCj+nrATqzZTpfCiR/ykaPJwLx/hM7cWu85/io3AyEiq2odySHb+4Kpj/KIM0iuylC24EwE0PiZ1XVemHkD7hv8FLv1fj/+AhI7865Co+O9xjmOPX+e8ubTTfnGHKyOcfvnWFW7FPefDMZ2/ZN0Qr64UqMsb/FO39dfxn9VDRRRF/rbzyb+W5qRuGbUMVfyLWbCknyDrzOkqInbUFp/H2NQH6uiUH5vdtcyx4gehYWZq+aK8f/jB1fb9n9xoTygHLnR0k7iO0qgpjTSIFwD66EljwQIWh5sY/hzLyll/V+m8L2QCo2sameAfJ06thRcCMrJQPKI/5TxbbNNwviC0h737qqY1Aqe3JNX4XvaaW+Ul6R6r+4PkAOXtFSYuM7PLq8xo9sQR8ERWE0e/5U4pqZPAhnD+oz7l7LFL9oJIQ5Dib5hHU/slQaernaKTKFOa4p/BQkYdVvLglf7ASjvMi06PP+wgfwDDSS5sVTWOAVMPMNNWQVvd1ZsBoYQuROVPnXQHr/QHj5FPPEXI4IZtIx+tYT86haGsfzKsKDoN8i/5gVfMDIgOlNWXQVXc6EG39Pmb7A9/Ja6NN41wTfkfub68yWt3z/4tPyTHJSkHTEmDli1qhFlv6/GvcJVPM7YpTABDIQqoVwYHmn5T/jGOFEIMXPYt7pMUKtgtggYRKhDixSodPlxK+N5lh7qUWrVMLG6cAeTdSeubnCzgscTrNx+0W3e8c0t60vFf84GZYztqRvWv8J8YgAssMF6SmmN49MUBvsJnjr03gOQ4kWFLFacRU3biFaea1DvJvLVR2CxzkIWzkuEPAXXQwW5jARNZq2mMU+nX6QaxlvCa9jxL/gVfMuBF8Jysgb/GF7AvKqiB0e0V/YPtV5mnBOiC0Eg9S0ToaEKVjD8pSlYNPQ/wKu+NtUG4tFbvm/wBP7G/mnX+jjld/0nJYlD8M/J0GUuJJGEuE6qH/JUmwil0GIWXA0SNXHC2Ofjwdo9SkcL9SJJIRV/famVDBXgHQkhkc7ntwY+WyG88Sy9A6eZr2IEiYLFf7xI0sS9fZxJU6CIHT7Bt3jBym6emzrDi+vZXdtra6nzd+eU92WyhEWlej/+ps0saPUWJfAPTujag0Xj7Ff60d3hNz6blUjj5ikYdqgdtgRWgpn19oz6adK7lKViExGCjn8IGSfxLTmy9/yEnt3iBfEbXAovZy6LFpYxnWR7lpNlxUbRoiTdNEK8X+1L4eZbUtWym3QBALqUfskujU02rVNyiYUbqDjmChw7dPkujMPxWttoluVMuWHvDn7ZcT+b2Pl824NGDHJxxNI4DmX8mkTOFNlHC4GdfuuvYnB3u8AUCXB90crAoTZMj6OoPi9FvH9vgZ3NWAWlnwFH3DCDFXehKbAEV1Xaz2h7l9hscmuyvAYpC7G0ns71GC3/1Yo4EKfoFl68EB3sIVPIIV7axtQgLJoLt0kgxe788iy5O+MNLNWIrC27sgqPMqQuvWNYtz3wc+MCrPoAFZFNMP4lXm1LmluLN/fZDri//6MNNTtZ6/sO+E/+DFTxpTAVxq8Hu17fwq94ynnihEjjlnd1YBdjQG7u+ATDKsP7r4L3GLnxf7zyh6/AAQC0RpT4Ai553Bb0gkX/xIe/aIpE9To4DND6gZbPZhPFEhjRcDEKDcnoDfCK+BvI3hVd4I+bK+QvMxt7tLPxwlnvJuFxXg/RO6sfRtLq5pD9ZZo0YLSzpxWwz9pLs+HiSTPJjZlB/+2z0bPpK7jRbyyOVw/4n+msD4aNhylJOsqu/fXzKbT0ypT6Ess+TdOKwbNfilPIdEYRzZHSblCg6IxEiSx+8xJb/ZH/wi3/nKT1h3HVY+Vv27L8spBGawEYPBxg7+NQ5AZH56H/3+db+aaVeflOP4U91eD2ZAhaEsqlF9SoaJ2LKR/3rM2DD9mRsouo6SuvVlriBiMv9GiDATyP9APkyghucwb7GmewnJPU2r1/2N6ncSidL8mTzLKjK+R8fdC4FXjCfMP9YQTqfs0nL4pDcAv8VTl2ACIJYqdIZ1NEHbi+GJmVldTsxB7gY4/D4sD17scnlpjvtZ5zkWucBicG/HA+Sluc/EsCwSElplr/tg7q0Wb3xStuVi++01bd4AwgvDrCtE2KHpTS+U2Y6wKmnEQpEmQPfZU65eHRV4M4onQqd+qNLJpdCBiKOMkgH2U4U7AVuCFl7+3w7e5mX/nHsnlO74gIyzYrRvWYku+wrAL9HUqKD8toDvH8Fh4oGRFek2vkOjaG3EWvZHfYT3xlIuwSZDvd+6JNULC+8+vPt3o4yhXAlr7T8feTJFsL1Pq/DZSDijH29rJ9ZdeIPTRlVxgAHnmV5K4MF4uCIdvnTiX2xvuTpV87o0fkLMcXGJFtlalYT6ist7zITXToqE3rspZcyVOj3I9zgL27gaXNw2uORx6cvD9p9fnfqzlNubuLlkL4uyC2yp1T1k/iT5qeTf3WyK96Ak3yUOO7pTBUgBtY5lE2qHAuVAYKaduC7ZmkbWoofxNrvHRywrN5uD7gEc49LTk+freceZI+jNGIueZAhCRV5gVakOIDslQxWVGpADFKXnRmPY5WVs+d4/pffWuL539pAjDrIjOy5i6qrmRGRgBji5qQGlfAHTZa5tGJwImKOLSNK6Q/3JKzBlgyHfrAlSJOyFpXaz5PIZ9/mMhTvHtt8zI8TZR0+GElLwcIIdLl30XW4tJDD91w5M4yA5uyKghUz9ga4thRdaqlXCT3RX301XmSVBx93wTEhnA21AM18xTYOToo1yx9esVdkFlqA4l93R9nGpjyhZnfdKRf+Ye16XP58pB17QGfwDyZ0wr/0lk1mRml2VPnSS/uM/uBGr/pKRaihvyzL3h1OcuFLB3BKP+xct/x2cp1/xZ/8SHCuL28zKDx+sceNIlt5OmqFF1d4SapjZR8po2uIvy5eMezwVvqmfY2/iIWOvyb/+i2aIsmQvUziOYkEM3WbrGngaEjNUMqG8dIrrluqiIymI4hykgK4HX4u76NbD9vNu4/azu5eyCVtO4M6idTpIFNRJvBe429d/r1X/mSMx8cmry+6800gItkV+ho/f9QQ25NXEVdU6JjeEb3rIOx0Qkc6XaQ4PvXBX30looDBEpMyNEPbGuX0vWpLnHxrXNvefWs3J+QcjUzMnLkGtPRXpqBNuJPdCfS6VxheKpIBUEbdViDGRaiTM+GeVEOQOtGjjsBZ77KGP4GRR0GVWT0gVxvwgx590nXgySwaAIcS2iOtgPyHOSRYXjuhe8nGY+5j5Qw+UeOxLHwisUA5yceXALSX3VKsNr8Hf2EI6pJT7naGMKglSfRFlrz2CP76N3mQ2Y/fhx5xqayWo7+2Ua4ix65v4WBP118cJRdC/TtCKc8h41H70XV+ngi1vnJxkdcE/XF+n9nrIOhdykZyBCiJS4GuTcTWyGU0W+1XmQry+E/HdZD06DzhHOED74X07Xb1xt12jWPjDZfUgORlbmMKkUaO8UDNJm7fLAyxCI5ILT8+3is958ktkphpGTlm8OSPs4tOGBBcEKKob72RoqdB7sLyvc9lA/nBpRCpyMw+26WnVl1/m6B37GwNiIeJOVsrfNdfNF/9s9xv1VzwshgDiiAljPSBSWDZhnDUw87qrHHVn3onH/0qQZUIfcMfnAEgOuX6fWIpE4TyhcaJ/YW3qfqi99Bf2Gnmp8zWzVD2B7GW572v6y+TyVLQsCZP+Vt0ywvqFZjNm0mG/mNloJ2zhWFZQ9kjjjg0Vfypn0wKI5OIVe0PQGFW3NQKqsgW/yGMdJXSuhhdT+th2PkD06O78wcDFbb8qV4+F/jlivvPzrV3Luy3C7x40R8xqQ06yiu9zuLTyD9l6eJaqKAMhyRhOMKvhK+g6Nxt8mPvaEohZOygYAef3m7txcvt9sNf3OIRxVvtJT/x4hYy7B1lHTlzzJNWKvxreg1b5AazgUjdoDFBvKd6ZY1rtiYAGBLGujn2oihtG6XVqVA/4T/0Ty/6q7c0PNRxSRjnG0E2SsuPUJ2YAWCT/nYrvjIwSGtWCC6zZF4BRCL7et5KGOHqkzOl8DDBZFV1aBgp6gPYRFvrMKuIa3LI+kRD2QKvgdgfSR9kb/OUZsQUFQg6OqYgykurjJBd/cGgOGSge8KxUx7SE085pOXHZbNXcZXZI1OgaM6AUwVbTuxqDRnr9lz39taJNttoQA1pQgQ4/9RrnI3nCLq67Om40UW92ZRSEW2LbsJoO/9rFw2G/U2w4KWPr/AvXHlLL/Rt52/iD7ENfpbm+v1NHrDYbBvc0ukGheLlfmYrLjT8AfmXRJ5oapRU+FZBWSNUOZo2GSVKI5I2zCZELFDI1eh3wGrc8hhil59xefFyq93nbZi+LGB3/+AElpJLxeI1cMvJtmU52QNbwrJy6aR8/s3P8eKAcxeY7c5zHdk7uQaN4p/6kM9pmHL3U+TUkQkK8ewkemvU7jLIW+lm9Hf55JZ2YqgGoTJdbJOYg5cyRoCYkNUAl594zeoZ7r0+c+Fsjutj5yQKgJFFqgZv2cSxQD3DUjtB8ER/hMhyVdyyRxiGqfqLHClL2lpn1mCQIA9DaNbJKIDCN3jhD7/wL9Fs1xqz/HPGW1pv8tfIMQb86S8rQp9yBqPIWHjxv/X+MTHy4Iz8QpfUiQ/xNzRdASiRf0myWf7qQDPDaudftnfQHMe76RbEjYoDgiTCBNJj4JZlxZ9dEQD+lPuYEhVqDKERu/DZ5PnlD+9uk8j8cMIOJ/ekEULs+fM/H3bTpl9T4fsT5l+dDRJbTpCZGNpEuwf7kSD9XVFBETZLu4FlvATGztnNxvm2d7DHmep1HlXcbPuc8FL5GCOv0FGAkCyeVe3kVLtk0GEpo7Au5H6pkpey7+RaOf82v+X0NokxrWPo0ThZyJVjYk0oDf76ObSKv7Xx+GFUn3iXdXS0JBzRs5c3nxEvWchYV4foocxZyE78PTvsDSsX3nm7HTK4HTKgHfX7y3MrHwTlUzp2Qu4MtF7NjNL1ynVfBxgRxkZVHZ0RPbkTWnmemfkygmNJGisxBpJ17QVy8N1b6DsTknqSyjb4yyIBD/+8bIF6EkvUEB/2Zx9gcNgP+8duRYXEJP4AylgpHXnAr/QoYesYvOypBOZyHjP1cET4Aj5RqFvR2bP6jHH+wPPiZETsOO7kr8pu5lIvUktn2quPeucfE2km5C8d/QULLkeRxOf4OaK//fZFaFUUxLbyl3aRKCaWlcfvzlTZftf8SwyqTehAKDSqUow600RJuMAp2os6lFYLqtmkQCWE8qU0POG01z78+BE/PH6/bfEWEEMrZMQb/NFAjCjono8al50d8uICdhpM/pwB7Xw8yeUvRzgje612lr98QpmCo2XkY59f6QsP9O/Ng7/V0mnwN5D4ByDHlPBPMgtGY/CnsmFT6O4TRKVZL3PXqJeh+CnXs1f4YXWSOpqhuMHmzOBfBZ7YRWUIWctBBCEaK5VkMjhShktxtwy2dC2yuRSMt9mLMeDCAyD7wlc5hBCOsjdxDB4mT3nqdf7ChyY44VsV+Nf15HCTf+SBripoOP/dUzAufpW/9PhEZnhklaBGngFXNotd3iiqgDa6KZM6ndRMlEnWNEdTG/2fYEMquksGAoNGyBN/tCX+VATzFA/KtPsrj883jjhO3m83H+20Bzz6uMsjkCECSDjOZGyRLqsOPkWv6xf9FU4Sfr2ef57apZH+AFAWSAp+giBxYQRgS9Evi/Sl6BcMTcTUgdX2VaELpXhpwA9+dqP94McfMTNv2dn7RZCH9CmbIBaDa8HeggkPiuMSlT3VhSRY1BNdzsaZUeXvlC/lJAag3mYJ8Yycno1Crjg5s1DnYb/Fjktphj8o0ctjTDsKtmYJ9aeptwdAW9smkdA0+UsbZ+TVSxfa3sZG3eVVBiv5BA4hjqXlngCWCjzoigttg3/dSopQYSI8AAIpqG06lsAvnYq/qks/11MpSlGwXNN0gFR3+WewVIIgwA86zjq2dD2SeDISXzowAjNL/fGE02irk3/KEwhwpNv5hr9soWh7lCwDDv5yiP2D4xE3kqSh5M0AryBuJnZ8qGhdf/2VwwoBlLP4R/jUbQZGEtG/aMW/oVv8bc3gxr4Mqz70KUYEp6qO0HjO9eQf3eD5evr/7ju8/JGzXl3CzkNcikU0/MN74q+1helYKRbObP5hqQFQnSEiaqqhXooNuA4e5h2laGhUWzUQ2wSHGWnwmWMvO92+96BtU1aIE0Ax/NDW8cZJiKJHn91CTHQr3kTwfdHzPJSwyAv2PCs8bR2H+QA8DW2o6TxlHHAzBIHTicpW8aEdnLl725v8i5St+VTclEPTRKsEDXo3jykHfwTNj6wv8a7tRe6/9vp3zrIqp38azX8EqdlKCpEsexo5My6vghM2SS28lfFRfmp1JtoVjFOHNJWp44ohHetTcll36/TSDf84ueCLX4djNwaVWf6SDX9o+6B/+IcmpIfskUMoebmnS/2z0SbPVAd/YMDNIUU6lKdy36kxNKKHSL9G//B5Xf/OAP0LR3pUgv+a/cuVdma8S2H4f8ArU4fb5o6va/d22o17W22dE2CxfXwMwMQDKsWw8//k+ZdoLqe6SAvlEKvjG+syVKruDst+bPIjTqK+irY4htQGRWcDKnv8FscWN4JsbOzyg2umVudFX+lwwt9kjT0DU0464S+CAH2HBi6l67iYCmRrVJS+/K3jTKommqngFv6CsL3JX+bj+C6McuzjkhQpQvaEfxii4wkdMYpH+kK8tPU76ACPFgceH+7Ij8llxUCASh7AzDbBN2hJQDar6mRwh5qJ28+6OFD4V7ILDA79SlOzFb3BVwqJsGOrpHHAUQ8b+WTmLb2EqTOySO2oZjP8y7N8+y4v/zQODJQ9NCJogKFdfZExcLTbNuFBe5Y/Pi79gYjROWEEfE6wdf7ypBN5tA2rpKw8bJO/dlG24lG7igPxnKULcMjd+XeZ6sRXyViDJTp2/lELGupfPGb6xEf2GoA9wevz9vu8k/0gD1jkBQSQBUIhs30a+ZdEziiL9acANFGy1f6EqTAIkBEdAGUx6xJ5lkXSTF1I6KjsASdz9jiZs7u/3/ZzUscAE5Qv/osLo3XQNM6gI4i9RVPTBbbzN2CciZdWecb3DL/k4LExsPJUl+CKEC/SU6Ts4a+oymxwiCR2EKwRTYQU6uSa9xvn+E0OOkM/o3+dyQYvW/GXgUEvOSJMwOqlobfSxgkXjpXPvXOJY2XeK+bNIjTK0j1YgbGhgmbYn8BBp5IFGMWUGB+DX+j0dTrh3/ullSAOE+UCNpmH/aVAe7qAD3q+w52SdMFhVh/8A5MoopQYou9N/n0QStwoN/3FBBzl0ZB8ikznrx4hTh8UIxf72C78O40EgYD1yZluD1hF1u/2Z6AtOuo7rYqUA9jBvzwkKUtDf4qDv7JKV/7uU6ZbweUT/bv945S5vJ9tm1+teL5+0B6S0E9ekgNm88z2aeQfInTxI9QIMYSiJ0uaCCRX4GbWtSmqQOyjUvln14cDyaJYLjuRwDt7e/zQN8C0A5qtx3bKGsjBXjGEMDk0ZZGxEbpUrLuFPxWfcPIE18oaL9cjqZOz0goM39Gr81RGcDrVTkQlKHac4IvNqFInieAbmeTfdQttvib9K3EEoxQZ5VMJUmwi0Sx/AKS/zKuILv/l19tb3/haW+A3qSJ3kiVChVpdvy16tZylTLf2yYxDoDqDVAjZUeWRMOpW/IPRbSx+twWF0r/6DXb1l16AoB0z9kDVyCNSFDgnn+QJntecxfcv/CGg/cJfOlTYZevc6AQGHdTdNi+DiQQ1G5KQclTn6BJh0sGiAwwTNTJCg+YMZsJAYczydW2YOgNGleUkazQRFhrKFv5KkvhXh6LHLv6M3jBRjpRVuNtfOrP8J/tDd4NLUNdZXl+7z6qUM9pQy3//ig0MamWK0uFvDbg0Cq80taU4xR8rNg1WyLQq4ICk0eAIlUFLhQPcGywHwbqGLmOnUa9Afp8l9VNeGPDsmZed9jv9TleYOEwZEIW65MJCQ2lca52dRUWoBnuA4WmnZZJ4aZVfkFioGU1ZalB2uS4OcjlKpOZ3J1RR1wMImIqf4qEs6B8J5C8h6sa49K3HPFSt5+4g9Q9D+qF1nDPbHU4c/qrfkgSYkbmevHq5fnB9yZN1k65DfwNM/sWwzrqHadGQjiJAKysaCzYpq4iBgpaxQ1+FijB8gDHYIg04tZwUj499XCjXAmV/AMCJHCEbrNCXn7kk/6Lf+Qex4PStCpsA7pNg2F/+SSxK+juJKkHg4n/lNEYjb8cLKdtkKL2Am3tUVZRNHcZeWsKOmTow0NWBCFYSUu7yBFOcxJ/8IddlmvTvWL/CX7hJ72F/nlvmWPmjB1vtIxJ5i6SWoqYVX4yMHPFHKun+JPnX39kFqRhMxmOjHAXYlTypV+9sQwlSsw90BFYyQSjs7Oy12w+e8JOojznJxfXjdKUTGHAJtqBg3DlfkKcoUc72CouJP54qzI4PrkvrhTP8YDkzm3d3ja1wlCcM4atjqPRbeiO14AGBj46TvgJC1xxAgpI37AS0xc1v4FM21JEjutAWxgGlV0+x0aZOHrtKV/za2cYxsnd4+eGxywXu+vKFhMZYxItc4HWnF2coKCcVd86EsX+EBhZb5sGAAMALQpFS/cm20ChFgZWL/cp+ctY59lFu5ehMc1Ui0IUhCeGk6PK0BpmilwHJhInNoCOMOshfO4w/72m1PMFatT/qBSo1ZM81duiMAUorSsdtDAg1EuoRjaPgfCzyJ3/9UFv3TQZ4adKurIGRrmjVTnPZH9WkmPxnPwbd0NZWHUv6wUndirdu8tve94/bxbXltvU3QCJblvTYP9z+wPyLi2Vc3rIQrdkNVWhCORU42apvdMRo6fTyhoV8lQIk8sf8htPtuySyD0nYB1ACO6HaqSZaNHTxd+eWHfwTHqJqxUQ1O1OIwF/0LZm8TCBvAtF5gARMZMrJJ5tDjL0k+Mu1aPvd3uBfZkAz+43H4BSpOAxiOaEhasoUcIozU9oHXZqVYeAPeRL0JhEyKffS2kpbu3yxnXmLd4yxyoidlFEElBn3/w79JZ9ZCsJlG2Fpg78MK6kCFZuFToQwiNRgBHvBBJlWaxIJPHATf9vt13gxqLUyzAl/oHt/+A9+yP8r/FkiJG4iMHQjvPRlD3yyXrvRwEyp/r+WP1KUW93DJY5XD+CDo0PQRz7UTXjr0V+SwtmW5QyDkU2uDDq/Sf+Jv7Zx1tfGg6ZIJUf4Uj7hD3108ATvSy5FPeMY+QWvB9r0JiDuKy/+7Hr8JSAUKfx6ZsmGppMtAFSrQ6jxnB/0AIVhEmzQj6AGm4hsAz9VvmL92S6VBHngw2ebRL7Jz6LevP2QJQU/IA24Y5Cjct5yGPSqyyB3Fo1kjjxFL6z9QpzaAZvZBFxf5UNCF23FEgIxMNT4wfBkNrjj7iN6OCY3CYDlv24wGfrD07YYCohh1MGATh2cUVX0AqfF19GqvB86MgNSopiZKLLLuSDCP/gcK3MZ6jLHyYI+4863Q06MxB+uUsKrcNRfhsqW0DVwpcj/ye8j1yFFfi9LntpRPOyqxt4iqkr5KVURKUsxAxAwymebx+OvtG3npT6Z3Qf/sBZZWdiwT35MIBTArQk5/CP3xD8okBvJDF1olpzGkLRsg253oDaMG6J/NAceOBLQnR9tovT6Q9gaEKRbcHxTLt2lH/3tY9P/4d8HEHUp/mFYNEIYYHBi/+D6BQ+JwCirSJhHXmlo3oDwRXmHQ83HL/fakxcr7Z1Lc+1cTtCKW4C/b/5VIkskI1J4KVIZRikiNUIMJQxmm/1Mm4Z1643Ryio/TclZ6ic8c/zk6Qa/JoHjomGHDy1wJO8ztvkLofCv2RmjAKKpsncwNDgZwXLyyQcQKPv0k8vJbF1Gg9c4N/iSYAlEG4qnA2udcS5ndezw9gvwSV7rMZOjKKvB9MEsTqJTXOUvnBKjRtmuK8i5mQJAnRVzh7886vW9Z7ll84BVy/rdB1BUThkQzIiXQKNeSz/bw7B/waPXDUZtJapfyhe7+UVDQg4i8pyl4QAqvFBuhSeM/KVPoGsmk5O97Cbg8Ct/yP9kK7sGboa/upU/Bg2k6u8AHnroN7GxdOwlf20773kN/BdZ7A475IvsakdD/Sc+hh2lW8tZCoEN6dIB2cZTYVKw8UQPzlCDXPZnP2JL3poneonTSWl/WdCX/t5hVdjtnf320cOtdvHcQjvLK5/O8SsVcdAfmH/9Xms4lyyyZUMYpRibwqaffSwdkOq1b2hni3DRQo3xO8uU7d3dLKt9M8jYZgO+DEUPeHLViHG0FTd4pB0k2cXBGoxj4jlG7LATzA8RkMS2FtnYGYxQCG7kq0SsQBGvJxa043CCJ/yLK23dGqEHJfedTmSLTSoEql149O9BXTN/CViyVsJP/MHPK4A4a73Cx5tD7JNFvjUWtTkfrmdzvq2AdRaBF/bPq4mUix4XiHVJGvhqim1dCubYGcL9Of3Qy0oCXG1U4MhDtkZ8Gjy3YLsqlYHC3coMhoAQLqFpLxir0vVfP3RK9c5r+mpjJaNvhcRA8s3LH0Z3iPBlHzxyQiwySRSK6j84agPg0hZ7SDfsi36XQJPyH3nDN7ADTjmHd2iTtULFefIXrVN9jb860gNc+SgcJr7ivOQnZ3720Tr+bu0vrqy2dy+vFAPJTZvaFG6alC397GXuNuDtQ3+khfxotD/CzhCBoGQ7ZGi8SSdD9OgJqgQpwOSIX1E44CX0B7w1M8d0gYNiloRUZE6ARD7Klf5KFQpRRwOYDNXrnj8T2GNJPnxJKP+Zpakl5iJDGSX0hhGkLV//2dcnVfiU3HYXuCmJDcpSooS24ncStFXQ25eNDp9xVn9pD7Z1QgqITqTg+UbY/E4V15QX1/hZmfPn2/I5HsfkDROas/T1W61SC4lqqSB25rRPeD2Wa96U0w6LyAG+ewWfzoiK19vcG+BBE0Z6gvtHIf6jPfYqKCh2/sAIWcrWsWZIdTrSzuA24OJ/iYM/yvSphZs8i78l6nlGva7f2hIZlCWDmADSmuE/iiwhpCPFHHd3uBwzh1vpnzqyTPrTN+k/+HisoLzWoShN7yOvMn3iYCf19BxB/A587at9h5Ne959y7/WTHS7JHgVupEIo/p75R6Q4q5VQfk8OTiUNEU6da5QosQungiYGpLe22msvxMybEpyVfSsDOnWlgTTIJR/+GqZceMLfoPJTjrA9MyGQcvCZ4/wUDO/lMglCT6YS1Yj8GXxKWBv7wdNmPJYQpNmxt4KUgku3EAk4KOXQLClNzs5/nJuIFirmJmrnF0hws1mxvfMPGF8GhHJqyzo55cMUy+38e2/z4Z1jPF+tXRJQejv2q8BQZtsd+WN/aUNP2gal/Ukyu21VFPEDUzh1QqrPHnEO8vhsZvQRiz/sL4XYJWjyP+E76S/dfIqHMk24b/CvQRTNgFELabhaEL/OFkZQuYeGJ5dmfx9bcuIEXlmJL1EHfyvy0HbCluJ9V4AZPH4tfy+5dVtov1zLlpdxER5lnxP+Nr7Of8TSrP3DFlRzYZ+JbY+XD+xzX0UewFHEEvT3zr/EQehgmmxGQIVH0TZ4Ywx2gvQMzq16HcdwRIKgB1jdaDrkCZBDbp/zppA8EK6BhSLBauQqZ0j+v9H25k92ZEeWXgDIRCZywQ4UUHtz78VG05L1jEz//08yk5lkklq0GU5PN8niUqwFeyKBBErfd8698V4CqGIVexiZ78Vd3P24+/W7xPIirNH1im9opTDi0kpmPY6AoPRertnP2WpPdM0b5MMQRWFwAAUzI148SRmbA0RxqLddFKhmijfp8RjplNPhpbFOPiks94yjy1rTbYzan2BKEkni81dZ2lo5loqjONq15UXmXc57y/FdXgN7pw8PFLcf+MdxVGRGJysTLghLAbT6WhbqMigZZOGIoHQiA5z6BDsKzEEkZZbHRvhjnKRVogOjVNhk/2YvWAcEQaUbew2M44tPTwx9MMfgmHR0Q6KswVYmfo0cZKlqG5DiEEFLreVQzfZdn8YZ+6Fbnas/5JNB2+A5h089f92s70AZm9Jwsk0+5QY1jyuK0sP+4kdZCdoeUdJVhOXaz570Kw4xX3LSy9nZF8D5ds4I5jsj8F/Q/1iT1giNsQGz4YTMjIl2Na8BDYKSJHCsTxVfs/NYDb8d/QVLEZ8kqLMjWSiD0WcerQUWxr3B1+R0chIRPzCkL74J/jkI3OFpIH1+NWdW38C3M6YxlQpETGEvmj5dz5hP+cP+aJOGFmZgURd8lXMq5l/7Xca7+Z1j1ZmxbuLDGPJBF37bEz+UW2bsV0lK/Enj4d2by4uTZ8uDf/stRVDhPw95Lth72Hc+dKVCGt6er7c8migQWg7CVj3QxzoHJYsdhIIfg6BPiEFhu0jJH+q4d5AMvjnJg085HTPHsaGzvSNmfKGhNiVwuzYY0ipP/Nirzd2SDw95V2EGt8fp4NV+smvAB7T6waO9Xo1w3037naPi6LVcyJzcPIcvXzljrxkIV1snvuXgbxDqU7tG8bv32/wGf0uvLfwXXo56eprPzsU9fvDjYVR1KT7EYg98q76r/2ltNhsxm2CWRQjpDn3ko15prJ6go2SIaQ7eM/heYPgps7H+z7iHd2zwumM4ZTAaFN0oH/i2UU5erTUUsNkgl3zIHg+htzP7W+QhJryz8UOcChZn7DOjroS1RyxxXLaveiU4zMMzllTKonmQr36kolwKrTBkuikPutzcrw/doA0+NdqTP8oMBXkVpf3a5YmuXY+Tr11d9nhk7mXSXleW0A4svQ1ayTLzsS5lTaft8L80cvk//Z/GSESnhgr32gNxaMlFJjkKv/FNkZabHvqaX+mtU/rElxdgf8Cw6liKyEsApJcELfim8irV4BZfqcFn8Ao+dZZJG/uTCVXKnPVCZ0ug3Fv48OuDXhPr6iASDU7q7EbK9hP7ydb+s+Ap01rrY/9Ib/Oko2VEg3bV24AHm/IMLFnKvOLkLzeI/Ik3rXz+LDPzv7f/Vf902hqhfmsnRYHMOrGxBqSVYgRfa/TO0uEMA5fq53TiU5bXLv4S08xSOkFHGbxS+xXJiYy6anXqwJd248Ay5kaQy/4E8IDZuXeEzc5oZ0ngwq8Tw5sdloltmWLciU++jUxBqgJIY4zOYFYePmKM2sSkmrkpqyQ4xZmPsuDoIwK3J7rkHfhS9L981Thp7d/l+Pj4vTvL1fvvZbkt8ej6SuafJVv8r7wWZcYyoCnQZ/MeZLG7Ki++15vTeIqJ39WR9AjC2CIGfsxZ5KSVu+lU8p97P3F0Qgblc3DIr5HsKJTVbkEmTst6AmrwiY/u1ZUk/ndL2+Q4xXr//aM0g2wERr68sSFkUMC/vayun0a5erZAkeTMtyz41s32t86OGd9CbB2fc/gps1ha9v6pvz6kIBEBW9qG8ocnL5d//tdHyz//+vHykMcCUaFgPjZFI0yM79v/0mcCGBnOiqKhQGR1BihAJ28VXHEyiRa8hfBZiVIeYzDoLCcUsYpgOWsdjqU6J4pcCoUcfgMkYsQTQcMgH7NU8GHUVx3ZqOb8/UWC3deV2qlDb4cpY+S1Y8MnvsxIFjbBqbz5R12CNxiWNnRWfHUa+J4NtlZxvRokvRuC09Aq3pJ26OLn5v5IllJboMN+5bTBZdOhyMOOHivfWY49VsZGuZQabNvHfJbHlo6PS1JyfpU6uQRcAgz97Lj6X9wGLmW2jR3Of2kyDJtBU4PR4IxE27UyQossg3Qwsme5rdyUW9ctqxDlqL34o1wl8pf2D2Ow1pNk4kdR+PQ/f5580j/hjf02rnl2yInsxMF5fDui+mldaPS/LOiT2RP70ybR0fhTX01RsPLBx3b/OvhBH3zppHF7B76+1rfb9lP2nHuvf/enp8tnfJ4953fKEdH2/0v631/t/cj+0Okxn6eMmj56rMde2KpN8SFB5107NpbFo/F184hT+tHgC02Y9BYCaCSOny7xkL2LO5y1Ro5+sOlCld5Ko8fRVOS4lpoSFZ9GyTEetAmR4JsC3zbXp8E3hPtXAbYxspAJS+khtYEdIGRrffEd/nLzipqJj08cAETKKmXIbnAYFMhl522nRzwK6CV3w+38ei9UK35wobQj6BtEG6B5PzJpz/C65SabHKubE59yZCfEAcneeuUQhA4kCXPIoKZN7DTyme+ZcODQT3rngLlHLM4oPlI5BpVp9b9ZqcHRZ7pXRfRV7rRSjkYjXJ3if0nUscZhI4z9zz5G27HQWfH6PyxKSICJX71DAG/sfwsfbsryVJKJb8eLsOkj5Kg7hNZUFfQ0r/8pSwe3rsJIDXx9LoGMpvlX05dn/D6fdyw/5SeOr1m1DqFUG/8SwySQvP0a32StJhesePGv+H5k58YTGtRVgzOygdqmRwUVTC7hTx5tjRA0vJA7fGxisxpiGpVpNBtPd7bb2pc8c0MOebFXsSbIVxzGmscxNqo3QwRa+mCWrsliGrDtePAhT5FTN5MVqGroQ8CI07UKCelRSRCljXbLi8tfc+daXyyuijYlFBBIk4EmAWnG4GWI4Rry5Z19nrJ5xOd4Ofn6EQ/pO80VgNgwlEMCPMpUXpLBt6QfKIDTR5cwNHgSguFS0Zif9te7djMsmrN7HCkfQhi89LTfCUfq8CwCKHVAmJv54FMAoPra0TNwpk7CeCiS1HTms9ROnT6CUSh0zaymi71CEb8RYake+PJI6xcGVaYM4GOk/u8JOKsjVGKooQ2xX2K6kQ7NoNNOHac4vpomn39pIiV5aeR1NzfHKAe1bXwHAO+veM5s/JLzEL5mR4/0vVlyV25k2AYTX9tMF5zvaPTXez+ykwJn1pdTFDQ0ssxFn/inQ+XoMCpV5+h+6eoFjXFrN+lN82QJKAM9NDSqT9jQBVIrKVtFUlaHOqjgx/oiRPLPEdNAAEPn8K/oVZAtzMcTV5dsnK0zuAGE1KAQRbaURUzCO7YoIp3FYIBWPZZXUBNY6jWDKrNVZNTuOdP6wITDu3d4yubp8vjzL5bXvvBOumwiQ6/efM3yXBrURPRWmuV6yIE+naA59NEv9Wc6KjrG/nBUDzuvh0neKZZN+pF0N/0VP1ihOuxDw1fspxDTKUOf7CHKDR5qrzy0Z+lpXQZYE/LwrY76Jv4l7xJ1WiWVROLF/vCTx9CuJKQ0/tjTCOfxpYFPZrnZT3zpLNvgzyikGHy7u3XZ3sCfxUpQjHSJfzuzelCmVibE1+9eT/ZhA5e9N0KHZRv72A95lJMtkgeN5SQRZHOXzfrVWxYNhhio6mzsNmIG0FpAfhS5V3k78YlOtQA5UTwShjx5+ahcFNQ46aNsBfcEQ4MHmwe+dYRmokgTbKQNfiaHIbt3OLWhRlFAI52v8FGin4aaqrp+jH51k85jbTUv77ApBXTKRgW1Y5OIT1a5bbHwhVw7R70dNplpG3sgy8z+Ms/zunr3VjrzJV9KN8RHWRUeW8pjBLLnqAV11zwQ2QHElSbLWPZpG22vjToh/hdlKJjfCBu8+gBj0japE7gy3KdI2TaS5ePjMXW0ZO/yGcoNvjL5S+tptPiWRVhp2/52Rf7UN3XKd2MvX+SQnfzqYR0fpQSfY+RI1HbX7soZhyDBN4/fymFjQE3ZW/iJgNbZCR2A3KuG+GLGx+yLT7EaqKM7lQldqlli+wxs3of2lMciI2ezyc82dEhatZLwK1atBTtWBGgKn4QaFlq+5ihhMoUaPBw06YWYKABi3/KSjnyG5mkjZYx6DdV5+Y/sCE61Wf7rxLBYUFQrrKu+Gj0KosMGf5qSWS1TIHgeJ4uvgDRG8x3xWx5VJon2+y/2Nj5l6m6DOx0ljY2ZWTr10k7VK8dqzLwKEjYuDX4ER4oVOU5MEKUyMuM0dL6059nr25mRH/zms+qCoHbQ0iNa6atZGRSV4oiGM6TWhos2ioBxEHUJVkdvjZo+ViHpLNU662VBTljFnPhWwGeF/pBNP7fB4YZXuzyZJS7lwzWB1CEextAVIocvqaJeOiyZes4yaUqRQ4JBC3llCQ5JBJgctAqbxR3MRLBE+/lHrkv+ZrpLbuCds59qbdUr6qykzWanJifzqopKbOM3bVkUZHfCTPzHB8+Xzx8+X/b4AcUelx+zDfwYhI+zKS6oyjmPz2GjRvlhU5G5OdshYNSM0pFjF9HnKydnGw+CUz5nWPbaxo0yWsnG0rpBYrFC+LgDXxUi1k6yhZ/GptauI0GCRGO3N6qszl1ekjn6UhCZktIIxlhfpaptbZQAWu+Myz40toj44evg3cZDBgIdJGy4qULI+ErexgPfV7RonrOZMld8ltazGc7ZPyYK9clLz8D30prvitrj0blXuK58heNl3wGdBp3giM6m/Up28IoOPYudZl9pqVO5+Ef6eKeKo6SB3T8QpFEZPtrQSC1NOlbKWi9NA1T8yuzPBEtfOYqCLgMeaf2zjc8M6QBV2jfwo4ez+8A3r6yUmwZTZ5Nf8ZEV+lWmLNJqP3viQ/wcVihH+8efxsf+0cgz/r4VX35lIr/H+bUlAyAyahPqSbdlv8+x++yLJ3ye8lJDAmBuP7D/8ZPT0bmQn9HEfTaVQjf+/O7mHpWSpTKss25DpkxpbM5XeCNPueRJHjqhmxE7Gluj3Kyy70wSuZNWAxvcrc2S4x/LOKbICZTUbb66zIUabEVMXM/MxrE2XnsWfh/Hx+a38RNwMGsIVdELlbxXNnEgPlXVbmAPUzyT2q0doEFvSQyCadqPjxzUKI476ICTdu613EHr8pX95fqH7y9XP+C68sF+ZTFAnsMvaAYasVTHIJ2dJUvBqAA+dsQv+F98VcuS0EDMpz5q3SSAbQ1K/VCMLLsh7CBAV0ygWgdNZA17R5vnOoZ+JB9axet/5dmZxGAW71I6RkRXB0/xqQ2Ns33jZepnzODzxJT41ckZ3PI4WT2Jgy6JofUuL/HSrtAEHxrzSRefTESs9isz+s565ffz5/CJovhf+qdPX/HkkEd8Hi/PfIUSIropq/Hld7e0aOIvlVv9j1AIdWkVUs+QMDM+zmwm3XCmASyDemdLnkzy04HUaysniHZ93CvXfJ1d0rAKmLTi5YMkk+nAJHQ4H/Xzz/9s0tjhCG7xras+oYqQqY6iwofO0dVAkJ79pk6BkPkxqS5Dro1mYQJ0lVU1ZGgAyy4DdCMIakMxlJnZe2ufzqdodcl3dfcYvKXdKz/16LHDEvvo7m3uw76dR+d6fiCylQGUfN3kGVkJtspbTAeWYNTFXmyOBugfD1HnfGKA12MoS52ycgIN+riJMn0U+w1OnTp44t/BI27x3MG7jS+hwioweOIoaxt/DrzKUeeKQM/JG8Dy1f8DE326Wafk8gbCdI6ZLeVv3OsQfAbbDPx2etaVsV9Z+uid+MN+6HN6V7j4WHwy8urX+Ic8A4UnXU6ZkT9/cMJ7lU/4IQUytCdbBJT3e/Q/okEuv9L87NzPz5hZCFoDPZtA4ZlzgfnBL2/43VHGx2dRXTk+5L1MR1z3zbWZ2hRa5Eu2hZ9j1qlL9pW9wQcj+mSRLXPxKdv8USZZFSVh99WhFo8fRAw91X3FB2rmQqyQyHjT/krurGnAqaObGrBFzqZc+dE/jUgb0l7B0Q6Wk8UPO3SEoeUy5CMWWvuKGR4FdMCjgLwf29FsmrD6P/hDB9mHXs5ItV9JyAd/fV0OgemZ6+iICnppu/91dlY39IDO1YSdSpp1pqtBYFAWl6mzs219EPzEjUFOnSfNoM2mjs6+7vjqZKry1OZjBf8DX7kZMGXWLj/BITt44k+CP/rC7B1pQdROZa344GBI7YjA6fLI6gAMJzxIY09CueDVR8V4E1+GbfvVs/x2XmTlEMIk55A4Y33y7AXPs+PHE5TXgTrRz/fvfz3kNGBEcEu8m56flEbsJnIss76AXepSIi/Fq0MJNoPu6CY/y7vJO458d7EAeDMjSBxDSfAHM7uOLgOfnc4XqV/uaSoKXDpbGHySitNhdfKst9wBA4JAGLTU6Wwh2LyGlwx5Z8XWtb40urwi2tLqLDHYftRh8Dqo+4kvbAgxvNwmNluDoRgqqlriWz5l5JJQ8kNHZOS5XlyK2j++uhzdvkmnvrrs5qW78I4eLf+77OeMUn0ogTOn/ldB86RnUEZZMm2bUV/r4hNpI4IyA1WfaJ82WGEH89CjvsEr6iUDBJnJk9YRYmzkw8LWcs8kZ0ZNvjTxcIDV30092imTG4pkIFCz4Az8oWAHJPmRGfsdTZuO/dv4aTz18QN5PvDGHO1RTgcl62N/dNIrEx/9ohcyZI2+ytP/nusRnzPpGH/CTxpP+b1+bnkNpPLnR4TqMAS2IPVDM4DS5YMXaoPChMhWkeFf16ZsOGiWp9haMSVNwj15N/KX+VnetfffW67nnmGO7aA1DAYLRJVe+uK3diwWkGXI2EgRHydyZCxIcDb4F3GQM47n1irPb20RDTmWY2COc2ILWatTK+Xmby2Ftx0T2TqZVo8K8K2+ivPpbMFfx9GBS8OG0QaWv5gmh/rDLvGtbjBYm5m5kGCCD7A/orj5Nx/n48MH5Ip5CPs2+7P8HLKL7wxVRbJkRW710ZChJPjaaU1vSyX4MCCz63CAuiYw9QlKXEKmMwOc8MqpPC/7SDnsiv9arz12pu6VRTlyXmcGJWd18tLrfwrs9QNfmXn6pjL5c0kr9ja+fMGHpz+aKW3oqbNRNvjRIFhpXFVCnrDFlx5bzM+/IaP41e3b8LMuQJgDzRxsvEfBDnxGkME9PAXAD+x//qxms+ks/hJiam8S0ASc33QegzeGWwWy/UmKONm+D9u6Ub/Db4aPeePgMbPI7j73RUdYCUOa3iAWMhSYsQUi8GOL0uXxpJR7T/Cwd7TvSYVC2ldyjglRlSsPnwixsnyUgIMsz+wmzdfgcehwdnOWFSoV6kGZx9VpQNI5KQyBK0rvEQkdJ03yy0GIoqdf8aGhbSBv8OUQwIGF/w2+QYL8CNDvJoMvDVKw/RLnGo54ttdrnhH++I9fLJceP8lTWJzJztk/5Naf+rX4BlnLhp7SuVG81sUAeFCgbYwiKGtHUD/bX1rNi5JUe/7OhUcYtIp/ZdbuNo72+GmltkqTAvZSusWhyQPUwTM1IOL4tM2gjXthihpi2TDUZYtsUya0P4vP4oupLKu3tk38UeiAARkq8EVC0e4sQ57xNpq3NpKp/+vFiA2A9og//U9yC19fpjPLzx1eVUogmNlt/CIwst0NG7f7XztyGGCCc+ptrkwVUAAcG+WsJK3gyZVGlGtrg/XS5Z3l8DrHdlw+2ZnXyOBqg0A7e4VlnsFNOyobCI2PNepAPeQidsYdNBRKa/uvMs37ydbBSVfaOFnuUacvhG7cmChe/CcvRXY0m9+PM4PF+VDnjGPGxszqwMDAYdE7VX5JLb4LSfJrR4UfhXw+pvgG4KSEIXa6N2V5gEjogTzb68oVHgXUl6SfPLrio0rpxz5KCXxgBlM4i2/oUazOAyn2U6hd1VP1hp0FpVIfCzwaV9JIaFvEL4pkM1a0Kc03+LNTPpXhiM8cLp2bGJSCD/NQWn4vGQZTmZGNlAhSjoV82MbQGJpU60f4tVFdSmii7X8en5y6KhKSNJMcyWuz/JUQ8IEpk1V+lGdsBjM+pCz4g4Bdt9JF3xg0uLfwpethCe0EVicHyiDNidm0QajqqiTVU7+qj4cqKWyBRcKkll38S6YOBblcRQjrNBquaWwkkIkgGosz1XtcB90/POT6567SUiXiPLaTd9poQ6Tt1cMK6WZaokDZYVAdwhpNoU6ULq1QulES/lpmQFdaGlzpZO0A3ZfD1UWgUufSUhrLygsUWEbOcKAeF3/IslzKKbeNqOLi1H5pDAt28LYB03LJF38ISeO6tJtTwAWOjfePjpcjbhTxri9vGpH2+9ivZrqo/gc7IH4rQN30P+no6V7t2es5s/5Zp82UrbfO4rPIHLQrPbTlF0uxdlT5Z0tEaGRqwAY/3oGDTh9gZyto6ejFV9rEp3zgK8NyNY0qQSc9tt6coq7ICa32SMrXNj55dQl+5E380jeeBn7ItMmEnxEMwVRyBwCzScfPG3xZXGrLWWWSQl45IlaZ5tU5itt1wYwNea71YAoBaYmU4CcMqixNOORtXcWsYFZ02UWFtA4tEjN97nLm2tnY2cRfFVizYpimpI6hBszCSpVmzXdkRkeLa3RcHWF8jbLZYeN7bYhk6E2iSzqXpdJTKIInw3p8D5GdCrr+TtbBAtA16Ew6eNjxxFSeCH7RROTrXrLGUqZ89s7E6sF17+B3qh9E2iI+sg1y7cdN4uckXfRXGJtjh5Kg9SF9Nz/9GF0uLScPn+Q9y1b8WfvFzobOyMpH3BaSHaui+Kf29zUs+kRfySG1+k206uc3QzflECXjMSt/5EVa/U+dEvqLJyvI4dMKB1/nxZFSKYFOFAdRnuCIF0KOSmx8ScrWAYaE8ZdGsEpdobL9sT9tHUaVdBNj6Gh8WucnWNaP9qNMOfEDpST58tvC6hQ1LAt+lYpsZQ38qWudVD7l9No50nT7XC4M3SgRraDqlqS+bUqWFFYhkqkBOgTWARCSQTd2Mg15pvKZQierpT5WlWl5uczx8T6XoA6v+nRIG5tajZU4DDqVxJB/Dp+atWLUWzL7ycR3qRd9t+RIZ5g2CO0yxZk3bSQoxU8xdg/5VY2MDlaIFSZalLQ3MKmnMhLUMFAU878AAEAASURBVBnELZtpO32FeiyUDppOCk/4KzcnnQIjHzxTH4RNXZSrJPeXuAJweO16nu11eOtmfiG1w4pHbfwLITm3c/YnuKWwp7hVN/mSTiOqQyopNojXDPpb3vq+UK5pKdoe0qP8Kic5UJxZncHolNRrXkAimi8HuxiYmgyYhaVcWZNuyJU3+K1IfW4oQ/IGH1nQKbED4wY/8RdeBQ9sk9FPmwLYuoFhWQaBka+9kw77Uy4+ZdFTZPFHu3MS7+IFHwntoYXb5JVDHSyx7If3v7RmjVKNIRglOrJVaKM77gDMwONjg45GTURu6eX41k05GsGszHHd7ffvLdffv58z2ag6aBAXp1nSMoNF/NKMMkdltpAOfHeaPvFTR8lmXrSuaqJFtHJvx+jycYvdmWgICD7mZiaBtjI6a23jd3JDa05S2BHtmCq4bX8KEaiYeJhE6SAesrc7bbGQEeEKdEOiHQqDc4LPYm1nhvf2Ta8KXMW3O/ve8WWVzTqEs9OeqZX70ljfrWarXQyAQnztbb71pElop2NBOoYYGpPryK2Txp/r9cRRedJRhILWwcwGSH0Eg6rvtC02wiOuu+Sl1yaXtoVLHTHq3zZ+5UCMLAeNfrRY+chQf/Z+xTYzlqnTii+B+JYpQx7TXeIHQwj+qKWOb+yXpvjS8h8+6yBWYmRAM+qUHULlJImFypL5L+h/6chzqbEGIEZ1e7PR6xRbUr3ETJS4LJI05Koinfog0SoUvMxthb4S5Ra3Ge5xu+E0QhGDmPCTS+e4mxiU6ZTUDAhdiEcyuQiwhZ9GC758fPivQPZuCJpD1pQ6eUJP/Xo2PKAKSNNmKHGg9WSNzhc/lrpkEk5CdLXRpDMeUpaGHt1CPu1RzvhI5d/0v8u/1nXfeunLAELqNc7nex3d50kifC4f8XwvOrc2R9a32K+93dyDq4koXP+LY229YyrpEWSxYtwUksFQu4EMdQKQzgptNnc6AmdFd3ER3k5kJR9oow/OzPBDffHhGfTSzY55Dt9eoe4y2hh8MuBBb7Hs+UpPsX4b33R1aPwXX/CqH3QFsJlWH/VVqB1XLNIrvunaJl1skjT2OwmZ4QPPiASSyDWP3spT/BwoIGaLFZWVvLziSE+BnxH/bXWJrKHQulDYOCqhsBSyT4uHoEkdqC/k7T+7hmNiCP4cN8N3+eBgufPJh8utTz4g+A5Cp+jId4eMXN5ICcLSOZQGRbQegwKcGUEFjJPKa5L/uFArTHcZ5L51FI0OF6lUtCC0OFJT0kF1KnXqE0oDpsTRU8K1EYf95/DhjwYWVhO+ISTbDl98aWIa5Z5gS/PLIi3rNqVkZSSrjGziqp6ytPPSJZbYvJb1+NatnMm+wGOBPIZXzGp/yfk+j79pxMp1ERA+vyPDYKXOGTdbFBn+t4BKb+DAaXlPFNn0Le1Hz3ZYBwgq+FimTZmdWjLsrwz9kU1+gG2RWJ2BwBrqNT6yKzNnIqnvCUp5tOU8vvTi5o6s4EdE0LrCLH5olC1GfDHtF9Mi62qHMiPVy34Gje1HmSdG1bE2Vg+ZzW/sn/iWmfaLO7vg84Ya6R2cfkj/45cMFZblGMqsfRVZa7DOBg6gnhoFJOtp8+1oUYLCxDDHxx6T2rjehXSR2wuPb92gU/P2RE/8WEHAggob84HxogHKHfgak9PsYDvoZoDw4ATe0MEaF1NB7FGmI5KA1pGm8tMhHLGtk1NmV2v5mSEhp/4DX7XEsuG8Njp/Ailn6gpEurqplAHRDmQ4QKksZ8eJpTSwxB8WI0waG1nJ2k8BsmOB+MgPPtXKTx5K9bEpQgfG7g5XBa5eW669997yint3n37x9fL66cl3248cBXhSRZtIxWZ2apyvBG0cIV6sCm7bHytU2w+bse8VBKTxoVCh8ZMlEvDR/7NNyBsj/lIp9lsvYWSwZ4u9iBIi7OiQjkf86SVx9KX/vqTgcH+X+/rxB3cT7nBexnMxl3gigvf7y9GBrQKrI5Ao8coHxdMDX/Eom5f+yJ+7rHx6xxnPnk57g5c2E0rHD4VIVTPLKWxYaAQE6prOFA1ja+yfzCoNqe4QQx94r3c6O7yGpfaHXHFKNZ/EKBBeXfj6q70fWRsciQcOAcuZ1gu8EoUbGi5zq6EPlDsj6ByAai+JOBzDNSqMKokMCTQAo+NS7SFyYlgopJFEom7n8qPOzqxcG9VNeo9Fg28O+Y4Rg2g0hPnKVY/IHfk8whU+ZzIbsT8ggH6LTqT15hOXzGB0Gzo7gBnR2NP3N4kll7pGmebBXPFbC4XC7Ijc8cWy+uaPPlou7F5cznhR2BnXlld/IC62vmG/0ZUBAimxUb0jUXrN0Nvu+R7xmXrtjyNaH9mtkDoyrO4AkSK+aC9k6Iu4QGz/ehdJXQxT3gE1ceHKAKLs8Cq9qqqh9quKqu3tX1yu39xfbt46Xm7cOFyOjxncOJzb48EMu7xM3o4ubgZlxclH8L18yUMieWPoyTPeT8aTLR89PFm+/Orp8oAfMTzjoXNn/F44r7RNI2/jJxzjn2l/Ojmy3aonICMTmvhQvdXeOu0fPueh9eHXoGxQ8W9OXzbRmiHdmlRIww0hg7HDSSsVZkTT8GkqFIgwarvJo5BWZLaLHB2ron4YJZC5gxxHayPdkfEKLym7wYmZp48eLY//8OVy8vRpRYoPXy+5wG82GJTi9blcVLUL3PwgXJwBXfGlHrNZJA12VZWHnV/Zy0sg9SeQElA+7PcSknGbsrEPP1Gw8bEVrDXQywflz2cxeWNITKXafQTpw1Eolzpa2Wd4+SOSWFH/hE98EqmSmjSzuyO3OmflYBk1GTicccC4xIrnkOX1GbPJkz9+uZydPufNjs+Zoeurt+y3QzGIDPTgK9aW09AxcZqLvsM9G/oMChgCYUJFnpoWneMre46q+nGjXt9a5+ok+NPZAXD2rv1pf+jEN35iP+ldXgZ/cHh5ucJ5lj06qA9gtENfOdhd7tw5Xq7fOtzqyHvLHrOzPK4AMxDqR/0P7jfcjefs+/z5i+WEzvzMB8Y/er5c5/fBDx+dLE8evVhenDrZcAsls/UJ6VM6+ynP2cpNWGO1UvvVPK5iP7wa5TVAO8w0Hfvf9L8GU7GuTuKo0f7aP9hXIRONCtt/c4smGQV1KVvA1YPT2SgUfvdqJ8/YWpVmCI3tcpkPA2XuVc4xA+kr146Xj//hF1n2/Or5/0VHfpJ2tlHdiq8uilEfyslmIWXw1GvUe8JBhn6qvsEEsezyDweEThtSXpf6nWNgbeZvvukw+AVEVmfJjTwoVQewdZmGWEd3h/sMYhiuDIMlZ2/Rt7MeRKYzAxFU1L9iWak56jKfKdUCDXagkYfvNCoYmRUoEz+GW4ZMc9oNtr80u/Hx/ej34De/X16/wL+wpAdt24+MaT+1VHcQrv8pUC99E/+L0TKgWmeLqE98VG0ysEGftoDMV6DOWV386Bm5solPvJiH9oLXb8XDJ8Fyppr41KeQssOjveXTT24vH3x4c7l1+/pyyMx7iWvpO3TWfT57LK93uJvQpXVmYTqwA6xmCJSlOQqqzWuu1u3uXlquwHMNOS+Zfd+jw774dLO0PmXGPqUDP3jwdPn9Z18tn//p4fLlH58wg79MG9euqqfUtMzwkQO2zfKW/zXQ9o/9sTZ+0MZ4evLPEUwnubmbdSE2060dWc8bUWyzKjxqIUMCibRZFMh+EpKVptlRCIsPa9vj6zIfn22da3wEyx6XoW59dH85ffJk+c3/+18w1AAyEOuEhsSQOPBVbzooj3pN56i+gU89NNCnVJWt4Cv5yY8gwkfC1scWibbwh1irQkcrGK8eZVmV42hmSzvvdI/+yarA0cstcou9oYPf4NSX9mJ18RjdACPtDB3ud+Cf83+O48fMJUOUKq+B66GL7416xY/Un339mFfPPCdiBOL/u+x/R/tPA9M28VFVV9GoqS1jUxX9kUCk2PxKlyT2b+ErIOy2GeW5X1M6ys1GMvvLHPMeXb2yHDgDX7m83Ll5vHz6ozvL+x/cXG7fvUbH5jCNTuuKSszwsXdLXDkYkI6boTBnx5La/TdeevdNHokpudgoT/uT8GeGPsXja5bb+0e7y9Hx/nKVwfIRM/Zzfn74nMOYE2ZpZ+ziK7RiUmCSiuL5jeRz8SceumRADGmYFZFJSWHTKQKM2FplD+p25BCmZHy1U60l256N96mZylpnYE7J1YCO/JqO3Bn5KSS8eAMWDuI5AeHtmpe5OcSfOLrczlm/waeu0tXx1SAzoMnQiGRCTCjZXbQRRmmOM3AUUlMWtrRc8dvccKu2lWyhXGWTR2g67iCSLtzoqlPrV7jkwX7x3RKQFDaohkDKXQIrb/yDJ1t9rGwbURGWaLcAoQ8leQcA6UbdzBVP/Po/6yGWmvvXr3OczDOgrh4uzx8/zhL7GwKtHlHSG/YPmyKeL+nmwJUybNTmGqCWpUneOtpirB/iOxSCX/8Uq7ha1ju9FJYqv/CXfx4buzkYOBPn/czkj+k4P/3Z+8uHH96m415frl8/WA45WbpPp/bBhDu8Lmi9TVQB6pmO4moqGlo6NnSnXow0bWwiDVPKoVIL2yb2I8Al+T5xevvmxeWAY+4P37+V5fXXXzND/+6r5fe/fcBM/eXy6LE3esjMJ7i12uyAYV/fWTJCK5WWZ2bYqlePdYufzCl4SFuFWsaDJ5SkwzXObXObZfMyy+PZzR7/tjxloafOdUuiWkLr64hDig/ozA8jHCNUwlmDN7Uf0JFvfnBvefaQY+UvH+SYToNywicShtHoFp2NAzsJ8s0702UphsxSWqodNcTQbjAS3qMs+DpFyuhrWkHs+VeCsixVvpBWzMOCaWNiTp9Jp01MqxlpSWZVYBF1/ihizJ3JZzAIPigjkqQTPzMzyTwaafhS+eKrk89FXvHD1JosqYPfwj5WifdH8e6oq/c4i/3y5fLk8y+XF0+fDR2H1DfsX/1KIiYFufhZ7KaJN56efjLo66kOJnW1Vm/5H+S0XWxQ0NA9HiYTnxTQ55Htc+x7cMjKgtn2Hh3nxz+/v3z88R2W0lfTiVVdVC2JRlHeEspiXmMi7U+Qt6WsnVzoVvKUOVG4mFLneY5EMfkY2zueg2A1ecADHb45TNxdv32U4/K9K7tZzn/xp0fLkyc85WPMzjmJG+kTH03j2Ci49sfoBL6t7NYHPpQmBaPmz/U/Lj813KeR+TliGgdhkTcUwcp2iK0GAzsKRAeJTXTv0vqAYeKAEW3Hn7lwYsHqSXFIoH3yP/0dZxR3l//+f/zfy1d/OIETGj2QJSqSFYV7HShoD8rtWg2hjMLMdF7jzKwub+j9qs4JMoWkKJUrfjoPRTl+UursPLMHExE5hkwgFN97dZXtv+1r1EQqegz2YOl0a+YxoJ00TeU1R+r0uHaopc8xNvi6koAO/NgtiU4MGDRg5s2Ib+Fbga/4pLEjm8MaVj03f/wJvz7bXc44mfOSEzn6fg57b9k/PLPd/tEjWhY/is58dI65IK5SQbBCy5iTozRF+oqBi+INpcKpzy/HUmpwMPtxzHrnvavLhx/dXX700/vLvftcI2dlccAhgyeuOplMn4k2gkpc02Nvzt6SQx5V0j9S8JU6SFEHfFqDNokFVtr+M/7VG6qczET/tFPi4cJyxEDz/oe3WCEcLZ9+enf5/e+/Xn71y98vf/jdg+Upzx5/wcMCGn+ImB04qtr+6lNdGn+gb8df7JCPz/C3yn5X/9u8xrBcdToOrWEKijQTwwnkVWIYZiZhm0aTNtpyAoIziZQd0InjD8vZIg3D9rm18M7HH/BKlOfLH//bvy2PvuTa5ziW0/ljwpocQ2w7iDZ7j4JLcpfBr9D3UhojEFSAkuCRXSfZCOfx26yQtrg4pGUNMxU1iVBB1rCsdHx795fjioHkKOoD7GVO46k8K5EeA1M+jDEQ4p7R0WXJyG0+UQJPZPZnj10xw8Q/pBsPysfAeDEdvbPfJU8SaWcA0IegP2CZ/ZoZ+SkrntcsrZ+z+jnjQff65J32a5064jykNZ4FH5u+CQL46/E+dOm2yBS/BrLHJoOv/qez6Eyz+VK2DQS1hrHtcTny6rWj5Q7Hve9/dHv5iM7x4x/fX25wTKxSuDM/ZlG+PG/Gnw9V2OBDnCkWwqGXfhFq4nsVxIKJP2rif6+cSG37THvVNs1IiXJ2eJjk1eMdVg37PBSAlcLRZdqEOxhZTXz5+SOOoZ8tz56ccuzMSbG0C0xskfeW/5WoytjJ7J9BUNoUR+PUT/9Hb5RpW0XTzeWnZgeTQBmZyEuttSY3VpPJEBFnzOAJml/w74C6z4y8f8aMTEQrWcUyq6GES6gDThoc8RyqQ36rvMcy6sXT57kIL6G0WaaCv85WwSevShxv+WsRO78znMNFOkMYAUvvSyQVW72Czx58ZaTAWsvlI+0uLxGD1bdYxHkpU3/PNEmWZpV6ugYRw7ERo/86I2VGSK380HtWwsfhGuj4MDKiD2lGBtlVIv4HZh7qRN+xXstyWv8rTzHShVFm8tblTpJv8OvxcvdnP+JE0d7y+S9/tTzhtTNv2Q/PbP/iowsi6v9UDj9QmA2fqXvaRgvEj0NHNVK2/Y9yqU0xX7HXDJ+MuEtOaP3iHz5e/uYn95a7711bblw/Xo6JCX1S7YA8Z+TEp1zt38JXR+VXP/HTtnRgBwHbew7uFQst9hjuwSP+Z/wpXwPCH0vMj9UEsjjts1xjZv7F33+UE3Cf/faL5bNff7X89l8/57o0T8Zsq674rk4bb9VPRCtzbkV7+Y+tKuNHBYMv/djaQBGtfp2RJYpDIex/jJDZWa8dRHkJu0iqe6bUsMXEVpZunxmDk45IdoT3wjq1KFX9uDzA2TCX2N66+YIbGD7/9WfL2cPHA0eZ/DH15sSHukRLvrUHOa8Z7fy0A/QES449nalsCBstttvRxdU46tRDESQii7yDQUj5nqN9wpblsCOlcelIPbpafVKGyJOWCyiRL4SXYpwx2wb57Q8zOIij00Zglag/kCzxDLJgqiOjvKsbZep/8aHku0ZEBWEpqwWUo6+B4CGJT988vM1ZbAa8p19xLgJ/vfRBBNy19K32g5P4EVM7tD+Y9VKR+01xNuurFwmZv5f/OfTi0s8Njn0/+fTe8rNffLB89MldZuZDLgn5gEHx22Gm/dXEqrfx15JvxUe3NohKDp8lib/0LH/6kk9s/g78KDdM1St76OtHvXeJ613PpLNa/MPvvl4ec23aS1jql8lA/Sb+0MfIukS8ipvNPf/ft//5sGkY/BoWUFAnNT87sdZJFelxAUmjt4VbdRTiFDuNk49n9132FkLJugs2Wt1O5Gz8yX/4+/ws78mDR8uzB48xCaqoJGaDOPiOQlmzaiAvvvLOsLMXeWBBjpkB8bj0YmZDBKRVwHT2E7SSc/JKu6K6ZFYNPBMNV3nUW5nslZVZDkLlwZU3Aab/qaclGsXAZ1DAI0sEa7/1dGL9om0X5uMxSFNMA2Lb8KeXkfSSPME3bcfAaRsPQm6HEz91EsunnP6mtk/HZLnGcacvgrvBgOng8hUD5quXTyLfr6lmFX7b/k1baI1a1X7tqZC5s3W1f9N+GvuW/zM5ELqw3+Sk0T/+558tP/059+Hf4sGCxwfL5TykURht3sgSedt+j7m38a3jZsvV/9Fz4kMaXdAwx9n4LWZEKF9pX32Ov8S00rIt/ExEYsRhVJuoUt2BtX9lZ7n3Hj8r5VDh2g1+mcZZ9v/y//12+dPnnKNQF+TmRh5nXiGihjY6YQqn/1XOitof4aZT6PdQYMv+dOS110cAtfYw2QjIGmO+waUQAaME1V3uWOBnSIZfVTxJwOo0xV2qwwaZ5iSBkPwq6t4dltWczucBfSeP+JH8c2eMXDCNKnFq5zs4xgyBYWevnnMMyK2IvBOJR3QC5CUA50V0ROUGAU6K5y0obDuqGW2FJVW6uJm5zF7t5xpvghZbvIijJxKs5C/Z2PD1u/Y3nWKVYFYVAB7o02mlTycQX6HsEyXtiAlGdcH/+TECA0FRVRU5VKWJYJ3+V3fDmJIGhY5WhsSkd8dzsV+/OltOHz3lRhEHwlNWDr3G3BCTB4QIlw9PYd/Ma1fxSSHT8Ih+4mQjGIOpXqKri7aW0yrV0v8u9W/cPGIp/T6Xlz5YPv2UB+9zdxoTWdSOuHfE37QfRd7AV4eJb/uow7vxo6OKKCRsnfV9u0d+hfRO+xv/4ssjierFPxREJvg7HDIecuy865UZzmjbLZ9wzdnj5yePOavNnWSwgYMA26tqR06l6O8RF++wX51t0mn/bP+/2vuRcSGG2ukA1uCgDwVURIX41lAfk3tw43i5/6NPcovhn/71N8vT00dGSQJBqrDIJp8NhGNe5TbEU26C8OZ2jsPBiGNHI82H4bnETgSVPeGeRo9OyhbHljFFmI0htw4FnU6XQQHnRw/8nGPXaGOwqxUjrfhipD9xFE8ms6JL/WkBdXmVDEQZeaWtBoMReY5hyPIup056Q24av/pY7yCrRv6Z6tBHyTg+npey9L8PItg7Pl4OTl8uV+484i4mOvTXD5YXz0/L/Q77NayuLIZWutXeiWq31OSpixlL8IcrEVkSuZaxxVcXlus3mIn/l58tP/nFxxwT38zdWGmm1f/Qy8xOGxUxt++PrwhkvIWvJKW6q162vynb3ylX67bxSyUD27ChXu/8uX2V3njxJpVDbmS5x40rzsAH3JH2X//5t8sLLlOlyfkOBvjtjJ2RWaol3mL4sD9pYFcdwDcnfo1jHov7QxFriY9EIQQShYMdBDrEncGagCKff40ehkuuLBUYSaX6prgsrzAwJKmvHIPfk0oHPK/57qcfLS/pnM8ePOB63DOO6wgPOxX41bNIwX3N3TTQvDx4slx+dczMyIkRhedUb4NqXQrnso+qxdDoa0fQDsXbJ0ZrU4f9KVBYTOQbAgltY+r8ZYoIBqwB4Fi9oVGYebbUU7ONT3X8J4b4kBXODgEfvTjBJH/8XDmRKQvEda/45jf4ljuIDwIyww9OuvQSb8CxM19lBZSHIbw8zQu3vfNrhvH59lcJNzRTlzfxxVPncFsZ0g2+DG6rni49mYlvHy8/+skHy09/8eHyAdeHD/JrOA7EghGPwFS5smfgPoc/6th9N77cbOJnUKk+Pck12t/6FDf+vbkmEQ2e7RGTjL+BP+MmNVaG5u34N6Z3ecf11es8qw4qz1E8/OpJ7u0+4UqNP8bwGLrdWQUYENh59YEOMXwYACCo+A771ZOT3VE1ijZAYhWCx57AiQwrKWonpnpsDcJJO0vHHpYoh16XmRZeSkbZ5liRggrPu43ufPR+fhH1xW9/vzzlpNcLfpHyEmPVUDnFwoWkXSKenT7hGunTxbuW1Es6v2JH2qVuykwpk//ix7XS05ghbkM1CVG2zd4bQlywZ16gQ9uZsqFbZmoyWXhFMehQtrrI43IczgTT0M0pEjn0c/Sx4eD2jLT68JfVwUhrtGNI3s8sLrqUclBbNPHl0T4ZBIZe+zJTi0/ZZZbYx+/dD4eHMy85CfOSHwy8PuPeu7AN3SOgMgzieQ5CfPG6xYMk1bp6jIrsKg9TqQwF+ty8eXX5x3/6W05sfcj14uvcVOFyGvuRK30V39rDQ1Xs0Pzz+JZbNvBNb23n8DWezbKc2yCRdhSXv3TULfyuwGQovowTX2MjTXoSPfaNGkJsNuovc0r7kJN3d+/dXD7+8bPo/5t/+2J5fErchpKGMR7IqYfz+9C0cgZ+4lRcnbG1TfsZBgeb9ZU3yAZDHExajhEMGyDKB1nk6CXzEoxyO+ARDXV48Wx5jAwPfWeoSKPawl7g2GKXSw437t1d3vvxp11i//p3yxnHzNJFXGaWIT5La46lX3D8wU/A7GwxlgbrzwFrRoI4CjEg6LAq30qFolOKkiYvFgWTLI5Ddh7IZw+Kj3Q6CWltB4gzZLQosnWFQny4u43jsZezZZtJfjb9iYNCKz0DHuRjE4w6dwAFv8aEd0iIDAuCz15+9ckeTlm00O4flVjy+WD7g5c3eJfUe3TgV8uzL77k3ndeoI4iBnTohGWb9ifo1RfZ/FuT7/kVfWLIoBl2iKr9+xwvXr99jZs8Plh+9rcfLh9zTOxDGfOrJITE7viWdKRXjzyXaxilr8/jQ9n/cMSR5tVRIWzDi0nNAXg7/vRNLJHvHfja70fe78KPnPiv+DFCBYj9PWbYa3Tm9z+9w++cXy5fcw/8M34v7u+gBVcfFgyM50ix8aLRMGDgjyB7p/3C/NXej6xwFdrDuGuch3rKtdPT028Wr6rV4Sit89DbIJgjzhEPH/jJP/4DZ/32lhMevv7MjoxxcXaMrpmv+SnjK5aGr14+x8Ge5CJkGPrrh4aPTjHfGYU9s54NEiyCS+S1QwgQkLFL8FS34EdXG1V1dH1HlbDkaxij1JzcomEcOGwhuxk0uQytAIpj88CXYupZFSRGN3g9ko4dES9+bdJC/90o4buBX5zSpBgZkR/yMrig2+E34Tc++ih3fnkp6owAe+XNC+gez7xpvwjAiORnLgpJji0AqezgYzHDHfaq0y068f/8n3+x/OTnHy3v3bueTjwva5WpupWLbwMYPv1kQszim+6wZJlb9wPfvL03m36o3EiYEJY18LJ7E9/Jx1VNMP3+FvyJrD5q6qbOOCc5McVXnSscPty/d4vVz8vld7/+0/KIX1M9f8YNI/ZleFxN25Fz+SnAyHM/8E0lmULbtPqlnK+dGFodokCZZaI5UWK056CXEOliBKzZUbnZGbw4SjBuUR0dmcserK09SZWTMUaLygxHhxmjfGvjDc5e+7var/7weV6l8eTLh/zK5DkBBj3DZnSitXod+QVOt1PpLin4Vu9IJ40ezlaZsdinBhlZzdhA4tuobogwGdMgUM5cpSo9+sJrGZXFHJcRwkOxflGmbvZlKZeCL69y1YMaBxyvMaes+EkD4nkqrfAMqst5Vxq6yuW5+N6/ndVH8CmJH6na2iZ+hjOUda/8WKaf+L/Akm+PFdDRN/y+lh9W6MOTrx/2BxZxsAPIefvV2JVIlsEa2obYIKsiW255jCO/4fiXAYNO/BNm4p/+4pPlw094thhXGC5x/Fh+7S+fes2msIGm/60tib5ACzPvgB9SVnyt1j0Z9FLZ9n8r/t6B33v+a7/V34avHm9u0/74P7z9sdAhl9Zu8sOPDz+5t7x4yTVmbhw54Zr+Lm2xy8wd2xCYyDBAjSOANxBqoeF8Wziy4u94k0MYLazVg5MCGVYxkwvhCAlPgmlKhH8kIxMlzDJSLNeY959wNL5L57MsQ+ZosUkbpdSdIHd0unrr+vKz//QfeYTu8fJf//f/czn9jJlXlRxubeSsc+jADAyeFWxwNRJe0RsMAg9Mc601ehGAOkeSi/CNa8LO4vbFDb768Z9oibJktZ0NnXv/dTubeqgO/+nXF7xMpY5wxNGUp9PJqxTvcEOGAeYpbdX5hpWKs7bq5nnWk9/wQ7dVkDxhw4eO3NjsjTCrPOoyOLDX5tg/8B3kKB6bOuq3tMSyc4V7snk+tifCvnj1L1wJYGAUu4bAMwIr3B2IKNKaGC2+0iutEMFHR1cSN+nE/+l/+7vMxLfvXOMasU/rgHf49834058VJo3ysIVvfSZKLPk2fJWAZx4DJ0u+7ddKv9+KP5nEAuhNfK03zMXVrjfxExPUVe4G3wYN4hv417hv/G//46c8veQyTyB5upwyK+/5gwyu9XPX59BVJauT+N1UMBKFLN1W/+vJrnO0G4YhAS7KElSUIKUX+HEPxWGNfDIiTKNG2isv/nDigCCfF9qzpEqDdcScQa/uwaJgn9vz7nz8fp6j9OCPnzNT8PtafsP88pSTMgYCyD6qxctOCVRnZUYAZ5EGNxQUNQpQIj2FYCDZOGqHMNiUFUOwcc5m0hdFi4ZtkqG3HVAG69tR9QVUDgriRBi7wZa8vIA7EFxi8EwcWxb6kA59y1R0ZChGmugGQwxIIfZjC0Vu6XjaO/MWRrby+ERbpXYw7QkxZwpmfm7K8WSXP3n0DPbzJ09zT3YGx3BWJ2VHpAGvLYpFYlw4DNIeDymu8JO/m9zg4VL6p1xi+vDjuzkeVkbib7R/1B06R8UAWFAPJGVZ7LeYkgx8Ex9dQgQ9dbaK2dBFoJmUZK/U7fhLzazWnu/CV9TAd1/7342vLtrQbQLw+3x+fnn3yk068Sk3i/AzU34xdY1LU9eu8g5xL6Jv4Q/mlmF/zNDGBPD5/jdu0RSw4168EiUUM5Qhb1HUESj66TRbg20TlSPPDjqDRaf17i4b0I4Llx6gPJ2ItM63JoLTKnQIT8rwgvTrvBLlU58ownXQ3/zzr5aHPFhOZaoP46OzDUHoBfcsTogSL6EoNTND1qqGr7NXe3a0bm+kY6JLLjl0EFDuPAtZY/yeeCYbMJapt3bkhhpyluUfRysn1RTop7pIHbxdlU093Y+A1v/zbLW6xxuKR0hn5qbDRKP2xE3t3PZ/VxLi8/EwRpWwOysJ8ZQ4zhWEz9EAf+3wZNObXP7b5Vjuq//2G849cAundaNt62/ZUYqMOrb9AZjtT4nt7WuCPCP9j//0c85Of8QjeK5y992wV643219dazHykY38+CbfA087or55/yc+hQM/5xKkCYt+gwp5atsrF4Pre+ArpogbfOXW/g2+Rd8XXzr1IWQ5hOSpJPwg5BvuTrx9bX+5w7PGfHRRGizBo2At3uBv229d/V/83tkVx0WlrcAaeeWxVQjfcZol1luKYuzSvsbEIEkNnSVNBIEjBmqmM1cy30OEHU5nuznj5UEBCLjIbOHvlu99+iGwPN2QZYiOcEnyghsb7Lg21hm3ab4+82d66tLO4nK5UpFLZ7ZzjyaNDIPbgFF3O0o6f/RQRzqIBsFRKWrGZlYGNmdiVxjmc5wqObq/crZAnh0RoX4HX2MdO3IrHrU5Ewq9NMWnHhm6N/bHGuogqRfVFT0hsGwNfXm0lfLXOXNSOZnptYNy9dGerjYYzGp0fBpZ+FBf73PfuwPii8ecwcY/LzIzcy97ENVV4NpUfGuUrY58YeAVZpfbd25wy+UHy8//9uPlg4/ucOKW5fRkl0NSLRCc9Hb760MHfP/mBkk3GcPEjj8xJ358B2/Ug1We/E5eShxUyvJ9H3yHyLlFFpkMnlv4jSftt12oH/iDZMW3gcR3i10IPGBmfu/9m8s1njV2m899nje2z096NwP7Bl8+dYjjpvDIq2babN8q0SAUKKCJOit1hCqrJXkFWafmbuSTRNhUVkdloyKBB7lLbFbYmZ1fkFaMjasU924ZrSiJsaPUkctXslrmiR6XbP/2y39ZXn7xFQ6k9BVnW59zY8jpM07z69B95FAeNatzOiU2EM9ZVlMaXbUqLY8C0hNB7NVZCk81qZPI0PGd36VGsHl9XvvsKKqbGV9fKVZ8eE144koO+ghk6JGfdtrZB2GkQQq+W+7FlY6sQf1q+D+/qFIrARgwYodAdERI6mv41TiBmDKoEmgMeNSpkj9gsV1qGwVu5E35TqnrHNL41oqvucPu1Ut+AikQXNv2x0aLlQPjBWbcywwG792/ufzT//p3y485uXWTGz/60DsJlVB8dXVzl7LkLDCC1EKBDF/uEG5HL75wrRNUyomvsA54lA35USz0Ev5l+MrIWyq1HxnfiQ/WmOyrm46hbNobN1qEnCscOn7KTTEXeEDibeLh/vFeOnfacdgfQu2k8M/1v3RkjcxGACe49UQ0ohRF6he+dbQ7nWMVmrVB4ZI+lqaqXyFL6HKiy7PXF5anRNMjrkGdjobQ1rm1A4nGRwx2/vLnEsu9i7zf6BKN6xLpOTeK2ORP+c2nN4a8PHmy7PIQvzw6aIf7rg0PpyllpxN1Se1AodB51nJ2cJe7Yl3wkaQxAjJ9IXk2bEBWBg7pKNNUD8tNCOP5M09WZbPAjxv4zYAbY9mDp6w1iAdt70dXugMKO5fo41KWZS6P3RwwvMEkMxlllqZNcteJ/JTMNlLf3C0mER/biTpXBnKubSk9Nu940oWZWVyfq0Yiv0x7xQpI+sw+wasoj7HlOeb35Td5IMBPfsoxMT+AeJ9H80x/Qxlw/akK+V71TkFLDahQQIWe8T96TR6xZ/zF/5BLI4W+S5NjRukRRXq0VOT+YHxFfAe+A7Ng0VB8038GHw58zqDnr744+XflNTeLcFH2Fvdm73PSq7rzbTuZ2cLX2Gm/crb7XztyGKyye/BdaYOJTL0lK0pIxyaAgknme8ZrKre/pOAdRQTZXX6ZdsY0c4qSz+nQxKnM66ZDUjTxU9OZa4efh3kmO47Fg3t07t/88r8vTx5yu9sz7h3muujuGe9gvmyAogyBGgMIIiXYCS7GOWLwhx5xG6S5UV5FAM9ZcWdG03wIEbRQq83ObI45nTUMJjucZMh0J3zEhS1H57BURlxpAJDNjChtuQqjU0YD9ByDtEiN44f/yeamSvZre9sx1CWdRp6BZ55kVw8Cm+WP+sxgUVheiCjLyTtk7R7uL9d4SOIut1Q+/O0fl+evHuZEmDSyKMP2txNf52aHD3kQwN//hx8vn356Pye52omLFv9LH50GN3CaGr+1SAo+q/nDbCrjtCFLArbqOejlSjtq/5ubUj0v8f3xIwFBgYrv10yaQTMShxTrUTEziMT/346v7wZ19jucnN1jcrvKUz+PWdF4biEUCmRrs5N5h/1pB8orsYet4UjDoFKqrGVL7EC6mdoVSoVrPoVjRhpMxCgZrpQXXBqEIWiPmfUGSj/jrCi/6ArOvFY3ckEXX9wqqDxnLpqCtfklnqR4jUegxgjkeRPDl7/jWtwJbwU44fnY3NCQjVnEm8/Vu/w2ZmX6bcO6/waayGqOb7s29Yl96eQaA0P4zEOB3Axi9JyeAZUL+nRg621RaKDTjrgr6dFRAq9d4I1IkN/xIz5nNozq8GYVwD4/c3TWlzd5Z2h/q119tEdmtbab1/8kaZeuPExajzeDzxl/aW03/9F5zs6ODhe5tumji7XgJY8K0g8+9+vVSy5Pod8u14Iv8+SIG5ykuf/BHe6d5ldMzMR37t4EWl3Ezlfw9YVbvGnsRK8oErpq3vhb2x8xVEJquY0Cn2IchLWbstV+5BUhBMN+07X/++ArPC0GbppFvwz8lGzh2/45RJn+/xZ8+dOow37z8gaHY80dOvA+z432PJcrzomv5YmFgf+m/WlfNJj9D/Z4q+VpVIxPQ2iFjhig7LNJXgRVWsHqsJmHdnpCJuQ69TvqHDEKXTLQlJcWG/jSqQuYCbzUFd+Zo/QcY/s7T06m+BtbZ+Xf/eo3y7/8P79annOM/IpltsGajVl7nqbP/OXZaxyXmThixVIPUakLtF8MAPau4BtoJEdva6OqyThRZuXEQ8BrMPIMKOU7wzHl1NFpTg+7Q67oBLtny5PGb6Tn7Eo7C5IvqqHlrHz2yFE1g4iKxoY1bplzbJFmJXTKQy+DIGpSFf4s1yefNJKJX6HxfxHznq5rPCTRG3UeffZ73sXsaPIqS8M7928sn/zNveUXf/cJz5nmpes8JSP2Kk/xGKr0+V4onEN5QlWK1E//xeZt/K32L0ftqr8qV8sCkC/K7CAxR5zK/z74kyW6GH9TXnypRy3Z4E+7Jv5KP/BTHvdGMoqw9992w/7YmlKIKHcw8qECsdNGTYCEQSNaPvClH0aSpM48KfpXFVxbOjWIxGOKSIBEQdNwjZ3sg9SU2VVosFqUOvOe6JL+YPc118ucfSCwVQZvZJt+B74zR/86U+zzriMfq+vD2FyOeMz84OvnPA1jl3h0NuLfZS9OcYyT/6Kdz5kGXDtuR/lpo3q4UZebNqpaOhs6Sj/NaZk5SmFrZ2qtN2nYCTyOj30jmMz7eGCfs+WPH3Ks55n0RKWwCoJYn1hvVvmuGNDeGd0hRdl2FOtUSDbHp27a4hw1eC3EXkhC72CYp5YozzIU1zPW5iO+Qt3HZsr1Hw13mUcyWXZ2csIlQS4LQuZrWT7iAXkf/+genZnlNJdSKA6WEjXFbaKkDyOjZ+TRVHwNDRe7mdYoyr4t/iJXEra3/f/vx9dj6lbP1aO9dFXrVFdVo6X72Fljo8/gnHTan2kLEgdK7TcedbMDnFdXbEKR4os/Y79yQyr1YJHPiTKKN0DaZaTImdhJGW1taDvAEKDW2dinEIQhWOWbsQ56W1GlkWeX4LiepTZLNkRmZrFRE6Czy8pnme5UlhLbHYVS5iXuENrnLpm7n/C+ZWaLL//0dPnDH3jQ3DPPzXqxS33hUg74Ha1H6eg0ipIm8tPxvRGy+dhUD5MUW9gt+/0to6UqlCTHYe7jF+nAl8kvWisnqrDHTmmQ9mFxQwQ0We46iPBn40Z9zqDpegOry+VxrEcuP8tTtmdc1EE6ytu6pi2zzkLtrifdrzSjzgGu/he/1dEfWveK9+0NR/yg5cqlO8v9q5eX+3e5LHj/FsfDR3miZFCUh4D60Awf/uN/hCi7nUQa67ulU2+1/4y/tf1tw1iw5X/8XAliCIJEC/4d+F4tiMONexsKhO34846xYPi1je+A6QizhV/t+KZs2m+zti1dnHH7LpNOfuzgD+eNLcriO/B/aP9LR84sowMSMKLViHglpqihW83S0XG+xXZSydetJqRIOSZ0EIrK580h10F9yjL7oa/j0FAdF4o2ryimiuZ3ZW7jK++yMzI/stjnfVL71zlG3n2wfP0FTy9E6NkLjmDO5EO2gUrvSDceOnVIqcTO3rMTy4GutEAaTX62Sqpmyc0Z1etqMVYbNREUPmnXYMFvZ7N3ho6dS2oJ/Fc8e7EcA8TJ5SblDJ+ZsgP2GjQ0dFDfW+RY0jPlJvpxsFSTzPwmBMhNH8pm4yv4SVvCh38HIdUTx3/bTGvrB85x8OulmzzR4/bx5eWDm3vLHR4McJN7tfd5D5N8c7OthF2D1sqt9rey14k3XN8Wf8GvMut3uLBpxl9+PbYRhS4/DF9TO2CoZwW1s9kS5uOMrW/JaA9o41rjX2PXrfiRBE1EDvtzyIL94hk2h/TfIz67Njxl/57+N5bWCDIQMiupPmljmb8ITx3Ijc6obDJ2zmApVwpjRL6QIxHElcVMDOI9nshn4LzAQG7tZSumJ78yW4EXB2Cc1y67BK2c6KmqyufjO6N2mS18bKq/tb1+54Qn/z9cHnx1wutSfJWH8g1UMWyEyox1LSDJSEjaJ2po70WOAXtNl5NJ5DMrSRB6yJUV55POuknZXaiKZWoGsw3uMvsVo28WJopJY0KYAKAAfJdZr7zJnH0CnWJvP/VHF9Y7QfSYX0/WAencnN8zMKjOrJ9lOAA5DJYyWFAiBzI586ADdiRGgdqKHyEOY/qfj34J3+vl6MrB8uOPb9KJedPhFV6kxg0Ne/hdWyIHDZRdT7BXX3LOMdqfYUE4MaKtBLMALvC93h77xR/xp/8tSwOlfahTguzK+nfgp2Mhv8v44icNnrDq/F34scRTBtqBTarifjVrlLdOG22jUOSeh1tcxbnBoYuvVqqNjf948gf2P1rCBlM4nM5cOsfNslZYWeeZ5z9E7t1CLwEGJB2CyHJgCANFGRBo9T2Ibux+s3CiefndifxtGKPaa4HK0IluuTZo2jJ286SJy0C3qEDv4NwfTzDsc6B8haYvi/YXJc+4aP38qe/m4Wd6zP7ezCy1iJGAVy9c4vZFdffPlqCDZoGjreT7UHj2svOxoVWyS0+lWNj6dNQ0J+XwJjDTqSrfR/dkCasgbbBV7bv+qcM4vk9jK5py00nJko9fKQlflbLp4afcY/z4DzL+2QxHNvMx0KSjT8scHDLITXsBSadDFosm/MqSmtn4PZbQH3H30d1rByyz8bjGrluAg19U8rTlvCpR31EGvp4oDbvhb+tn+1s99TX+YssoSz52IMW9bIoLU+3/vvjhtX0RZDp3f0XRSqjOG3xVhUizaJOhEOnoB37aL8XKIy+hE5N/JiHsikqFmZHx3yGrtGNOOPQMDOUj/oWCBB6/SEfuyFPUhpaIzXq+xjO7qO3QbenYoJgCJI6Arbq1QFWV7TefaWQALGOLHMzDmC4puJXPE14EUR0A3cAP22QKX0Wm0ckrPgLBMijiKEvE5+PrNd//4Ppy88bB8pRO7FL795/xwPCHXPOKOvKZTNMAq5QCJfDIz5FasIzQVkuO/MAPekoiUrHRJfItNU+d07UtDV9onPKwOR1eWXYsy6yn0Rr4MDoaW5xy9ubTu0kjqdKaFsv5PwNElAQpNk0q8sjK7LplQ2qhD4sSGfyCicpC+ZiafW5auI0ff/TBteUuN/h7c/9lf5c6Bui3/K+Vo/2702o28flrMJulIOXUM/VqUxRp46ZKTw9R2Usim5xthVCQjiXQSMDne+BXitT85Wxh8R1mFFFJG3wVsk/ZTtl0VKi6j1ttK8u28McQGrjUxcGyyscYziDubcauwN60P0xV55z9YRxeCE1RPdk1lOt0Ap3clBFwAsbJaLrlY2jkUZlWZLZN2dbSgNoVD/LJL4zxu8dR/iGz5j73B3Mou45yaZ534MsX1QJZ/MyKVCRAwNcpXpc7vso1UDr0Acdzzsw+ieEyr9w8fc5dSr6J3uNnIpgna8MVFxObtTs+djYZcgXtJavSOfDEbnkJ/gssjeKqYS7qycGficpshrwYEEgjU+9U06CSeiybk3Ksi3uJe4SsHTOB4uE2kp3ZxXegYGTM8p/6qVnaTFALEoHUkc5gYXnsYzmP3Axo0oSZyxhE1xVWNUfH3NTP3Vrv3TpYPuS50zevcsdcfKLy0MMwB5DZ/urUQ5hp/yBVvPLZssfkPJjRk0eRRUX8H4roPC8dxhboZ3WR/3L86aTc0OP6fWow2iZexB8TP/U2EfqzG5taD99RsW2/T4SRJ1t8PrLD/tThf5F5+St2BXFjoAoq4wf2Pzry2AxQBDgbxdnRRwscgYdi7lQoWb4S1OVvlQEGwaTR8pmWiXRmYBIusa9fdol9YXngLZvQdtm6wfeWTWcp8QOpOsqL2CKmgqSq+LPGzEyweAPJPu89un2Hxwzx209fXP0FL7D+6svnyxMuVb1mgvb9xNO0Cz4LWvvlraII5d/jVhL2n0xV1Fueo76UwSMd+C6FunQuzVwqWW9gaLvNZsNrxlmW+pTYQbCz+G3kPqlj2A+XUAMYxc3N5bEnx6q3/pr4ygqavosCKoEd+lBj+GzezwutnYrifV7Y9dG94+UeLwy/yU/rrvLe4ENfGZKABVbFFeWXRo+NHCVt/xRL8x3tr9/bmSogg7F2UDHj7632F+QvwNeu6bsMxCo48GMG6Xfhd2DFLxgyRWzjd1CPqFHv6UkiY+hoE2lLYgeKyCCzSyPspvn0lwGleup03v7O0tTrrNDwNWUrbcv/7cgWOAIMOvfmDIqkFCSN2dk4ptfNoHEbhRWlAMrIpJgvZCQAkOcPHG6D/oIDfq8YPU+rR0gNlnPlH/jYlKXggEm1LDY+u14jTja6X+CmEV9k7Y+4rxzu5m4lnxN1QGCePHnJm+q5T5tnVp29MAR1qrxqqAHJYe845lRzAC9kKRxTKKEsUUKKvRzJT/vJr8bgt9qjPAwxL53tCKY/pAgtDa2Lk9Hv45g3etFG3tOtvYEIYIh7Aou8M2I3aewU5vlQXg3BJ9tiEgx4vpp0nzfSH7qUvn5l+ei9Y95DfLhcZyntCa10LkUgf3ZO05utkkfrVraVo/2kzQKaxGz/sGuoCcqdod2m2ORWfuRLQ+UPxY8X4Jv49UP1XWMJwXnb5cAXe+LLn0uHW/ipH4qGrtTo7vA+mTVLIihCa6xw6ZX2PGQ1eoTfOVXUTcPeYf8P6X/tyLbqFBrRGjo0NS9Q6tknAiwLYeumd0PLVwxoOK5FJGYoWUb/Wu7s8TA+5HzudDwmmKI6K23wcxwrnssf8Dc1CrWsESFJ4hj8XnHd0Ppyrdt3OM5jifiS5fUjXuPxp8+f5Oz2k0fcdujb8+BXtnq6THefTQzS/VkcHZ68dZk7SecnkHCGOr2kASt6dZLXhuyMpb6O2ko14a2WuSwNta7LzMY+NCEKPBXFtSi6qRcA83KSg0jKkVz7J92UOzDxYWTDu8Og4mHIvZsHy6fvX13e45j4gLcl7NOBPSxx097gqPHwf/xs5Rv2b/u/rSJR2KOburut9pOeA4Xl1mvDdvz9UHw7kPZPfHUyXZ+JQrgVKIrNlYF0LTYWqilFUXbaVd1goyJ1+mYgiWFheZMLjTNy5fJCBicwgv8GJ7kuezbRzT4VYc1WwqizaPg/UqRNWXepI57oyKiWxhj1OGHStqTB2KXhNK+4UY6vBHgshSP4gpnwM4LXXBQOQa4n7zAqXd3h4d0YlxtEYOt55cp3slJGXJIRq/jTZiXFjzRbOcSQI12BY+CRonCHkzdHPJzgG2ZnA97gdfm9x6Uwl96+1/aUY2efpfSS54W99sA9W2U4iHhMmpFdn1GnZqHKsVamSgtRRfw5GKi9vFBiv2dHB3PLJbfeOnmpztlZ8o5bGpSwIu0MEktND+7sKc/9QxqfGpfbXeb1DPVkUG+CHLo9/cEtrkesVI55Rej929ypde/qcp3ltBhK8uN3LMD/2rBBaH10doWhfVKHqf6vr97d/oZCNxIj/izqXVSt+UvwVbAtZmdG9zF4Rj19HAuQL2xgij+LvQSpPta9C18W69qq6itdD4tSJztg4nQ4r/2Vx3kZ5B9ywvCITuxjsJT2P6L/cfmp7q56QGf4GGbEktEQBkuAa8LQAWWhlZzUlDEKKLKO8lTxNUjNtoolNieLrnHA8ASxvvT9dS6AKhDJRhQui0sCq6yRVwhbj0sRHZzyCWR1R9oSZlYfEarFvs7jPY4Fb3Ms6OODPMP91dcnmaEffPWMX/uwBPXP3qO0rBjQaQs/nTOQ0kWZ0OqTNCK0JFVytjhZO5j6tshOlWoLgAkLnUb+zprIgMbzWhLkEtZW4EcQAoLvYBdzIYbG92DV/xt8+5yXjm7we9i/+eRGOvABt11eYRZ2aZ3xUnkKiqy32z/tQV1VRjb/JTYhU/3v4PRt7S+PTZZ708n4J+92/Fk/29+eM+PvTfzYPnCVkXaRM35BCP9qZFOuGm7ha8h6SLIV/5BDj/0Gu5kEvULQQJnIQCoVbsUdlqdke0meMIoMb4ryclH1+h/V/7yXcWwIdkuUdVlpO8QL7th0rE6UJx0jLG30XEqJ562E2OlkOCUjzgAKSwQ7jrHEpsBlxgmXAfx54ws+1mRGQ07wBGezY5vXgbNjOssbar4hIAqCEwcH3yLz1NcYKJFBtHrsvMuZ7MrjhgeuNftrHgP6CgFtx1b/l5zxfk5Hf3XKGW8hKPOeZTtWjz8pUz4yM5iQLj5K2vkGfuyOPdVpLhcpkij/TVFCD/YJnKtJVNvBvJOv19KLlTOr0PWmE5Sz57sp1BN54Huuzscm7XsTB/btc4ixi9PvcDnpY2bgOyypXeJ5XTPbO9o/4qjs7LPl/7Cgi/5n0Ij9goeBSvy0sd/CYSY+me2qr7r9ZfiiV9p5/ByfMinM9lepCWVZ2h1gVbTcktAM+42/MmAvNamNiuftX/GH/UGRdcS/WLbPDvvLNOIR5R6x5DZc5BbDxLfbb60bYqJ3VKMxMq6QiTVcQlHPmV3ltRHk5LPxtqTZwp66WbK9V6QeyRC0qUgx8lJsxo7LwwZw+Gcco/7y8TfLF5x40iZHZp/za4PME0nT1gr08o26kWPnNnbsA4TqxbfR1Mb6Opi0jTkaVPIzTmq9zLKak188Rf+M42jLH9OhPZb+mtn6KQ9MO6VD24ldsuXkmt51m+BFAc/BcGN/qpGXVcZarJ7UpLzBFVHpteqIJSgur6Z2NdKM/jdWzjeN8ty0zYb2shsLHDNXAAA8vklEQVQzLYcOdthP7l/jnUtXMhtc2ecNCBxeeCycl36rBEi5k1S5+l98P4AEPrL7VXzrtgrXpIXn21/+2klqq/1rnVXFj52SbuH3kpYCNts2vjqc1yO1lK2OLqN0xtQcYFGklqlS8WMoyfzAZMt+BQRnqCB92/98uVK6Imj7T/mHtOltPjc4lLvhNfqcnRqY8kQTfBNHUWC31Bl+zhsXDUKfumRp0yGroU6m/wkEheZaaQQqzy4hg3gTsYKGmGakV5FEWqkLTFqlwlpJzshXmRFOXhFYl86WR7S/J8AMoEwwnKrP4l8e8e18o54dZcNWkhFrobjg92Z1iZzhGvgOCtv4yjK/y7NId72DnSV3OVSV5zI/5ldV6OSM9vihJ8p80F9nZRvbzn/GmW9nbi8ZvcosAK/3VyO3jYot4GcGN7bcgAr00Mcxx7zfmWFNOcpzrO5saYc2Lp357edeZ7bT6Ruft3WJ431v1tjhUCVP7cB/Pl71MiuPQx4ScJuO/CEnszwGdgDMchHjleVm+9tGYsyRX1W1w4C1X1avMnyf9t/2f+1XoMoXUUnT/+vJRQpTDqZ6eEmxA4qscajMbI0fxflR14hNFXWjI1hXWhISUKAYM67kCmZu2D/kZRClel7SNBbniiPscChaXDf3uChlWQ1sxb98Sj8i2LnFgXiS0xJw81X8cJNPkT4XE/vbVqSRU1SrqgUismWpDiUZJVRqiZqfQqwr66CVfct7mzoKibouX5RBDYqnPh4cOFg9jbChdrn8cpXAe8LpxCccK5+qi5ijQaubaiIpjCSBKu4ssm6Dn06k8TqO/7ZgwjWMirF4k1FPnC4mf7rlgNns0vuMoreu0GEpdaJGLzuvt34+ffaCu8aeL0+fMFtz3+lzHnbg8w3Ohv4CpAMHC+koHb0UPjbzdY3aSFP/ZTCCLp3AgYl0/uzABIRnlfc4vnW5fMBJq2te8z30lkovG/nQcwcoL8H53GRouD/aTjxtUzcRa7UZ9cB+lJGmPhcfrQzMbNRt+R+FtjZpCbw32r+HAIpTewcqEEfUa7eYlk+85prXZvH1RbapG5k56LTc7w1+fBaZAIzRSnq4Br7AYVHjlL8L3yAI8sCPbvpJDkNNVrZIiG6CcGiIj+T0ENCYdG7xfBALoXR4YzhulBGMKINcJfk389+3/6Ujr70+ECgyETINIDx5R5Cov8FNZyy4Cqw9eyqplSoZJygnevYrHhhljDpXqLtN8L3guVkvMOg09cw3Oi3yGtzqoFNURZJqhelxhk6M+wIVQMoR39KBX0eRiWxljVk/0rw01NB2QPL40XfdcoCJEG1lx/6MmfiEY+cTOvAhnejpkz3uHHvB0z05601dZmZwwzHtVwtlkDeo52+ns4yLUdphkNcerwZoX5pFi7SXj7f2+VC7Hc4tXKGT+vynIwacazzA7Ygz0IesKrz+e5lZug+xr/0y67NcPot/kU1+tj+ejS/yOtRUmJdGfUmji74xtfpfH0qbz/C/NvIvmHWuVFIglqSWZbmlbMqY9W2/SqYLyp+K4ucaM/h2TuWkqUmqUuJj4Mz4C39Ikanc4f9RFNmuLpQ18Tt4622DZdgkgG3FQKBufkcHdR74OWehPQqS1zT8mqCfba8dZFyBwafkuHKCmI/0A3/OuvFs8atY7Y+wgS/Pm/ZLO+61Fl/N/KfzxHCAog11UXJ+F9+c6o8oI2XaMrbZSOgRi7NPzcCQqKZrkDX7LGvfp6/4rIOvOT59HJ/ErXGIRBEDbVTVETjY34g64GYExkJlJVDViEyOr6c/qFPN+NCE9f7Jz5e8CaYEHuXKH/J0XuuFxXFMiQeMPnu8fO6Ipas3ltghDZo5axcfPhVXEJv1/qgjt1rSuA4ylvmWCm/ZvGhjA5Q9HTadGj6X0CqqDgad2lzEZ571dTntc6N9iqX3SKsbRdzk4E8d0Wc6LtFXVRp6yEFJpc3g37Y/jrEOGn3Mf2lNNBX/y99OVlmz/b2NeT2U0RnyDTkm5EtjUKb/W3c+/sKijibmFtJoveJjJekNfvJRGuKSKj4YuJv0Bt/qiZ8h3cMjmQBV7anjEDPENRd65E37AzHiX17ffXadOz/86e5ubGyvUQMlKDv71Fl63v5RKWWTJmKIfCZsXAaLqBxJbe15gqjU4QhYOiR0WQYZEArJvwr5sZJiZanU9maw4tScqbU69dKLbh5FCMhjtLnBw/OuMtM8JcI9i50+JYKYsiSITfPhP5cNSIs/xa741GcTf9BYFH2RY5DZqI6ahCo1yoGYumpm3u08fnxGJ/NpzZ6B9K4oulHooh6pSFMu8tVN+z0Lrb4+O1pce7EPIwwuHZi+2ONehHhcnDPOEVjbMiCQdxaYm6nM4qIk05pKjYuMsty5pP8tXwnVhaz2D42py5BIXmEDB74sh6FzGZpVgnX510fSUWleWVFk5Q7+dvu/iV+f1f9v4ivZgaHtrPzabxvohrTFO/DlC2/4N/abFT+eGPaLnwFMDu2nQLmV7m7T/l7n7ixMPf/1lrRv2N9qYoSnx2Iat65zV5fOgXI2FPjhTPGIPw8NlTXwpY9TNVYIZGRwtD7/9T+xE1HpKPV/wSoMIRqlDCupqpCIz1d0S+tJuylPStFsVs9OXP1QOvKmUnWURfsIvMM92GdMI39imfqMRlRMbi5X/nC+chOAwRwBaiFb9a06YRGfP93WQXqDrx5xBUy6skt0pQyZ2k8ul68G/jAr+DF92i8ClcpIcwzCNDYFDUKF9WZ5p8qts43oRpCoBJsyTMqjAvPymSOAfV9V/ORr4AfOr1SwW/FJDz9a5s8rlVfde/nKgVLfTN4kAsIX5bP9p/8HRMh67Buy8aVibN+Gj2XKS4fRYYCKH321N1v3oZHCSougyyBoUjrKzKd1J+ussxHYstuyPy0tvszIc5+BKqq0vS0T8k38OfiHVOGKkHbgxBzL2fqQQo7KOGS8yomuXOKT0SVS7BGjklb7I0nuYQz+kGTa/239jwGjDMpt5CjEzQJ3qFlJ8YiNPzisXMlSGssplmCyJ2tBR7ryblVOaRZhn4ejt5iRvZ78iLc3PmevkXFoescG3yYIDkJ1ps6JfGSospu7uJnjYC89VEQra1YbIYSTT1EUhFci8R01YN62Px3U6iANfPNNpty62cwZzZFD9ShrOgOShODLZL2bHXZeN85vYN9h/3R5uGZGAcpjK4sF9X/y0KU6XwONdJfCZe0RYfFjvwG1ZX89DVP/7ZqoMPIjuY3v3G8bFu1t/Lh52I8U6EqT1Yf+fwN/UoRPoL8AX175opOqz/anVPRUB8DBE6phv1zaH4oQWUVev5qHlLcjco6Cqx5MlQcc7pjuwFluvwtQj+i62f6payU0ICl0C39wVMDAZzE7TImkish3mE3BppCZNB8TRqdpTcomtgZ3w0mrXNIDtA2OHPLtGGK0Mj+mYBnygjX1HzD+EWewbcTIFhp8XTg7kUXlRB8dLUXoSluspld8qNTevKrmmHNTGQsTvLKZQ2CqTaa2+JnBBkkkIi/4OcZSLpGxyoVzTiUJGIRJr658aZNJP24OXm49o7rBDwV1sZ/6wU5qgFvWS+CoDR/40QnKqUpKBB74oou/2aA4h4/M5OUJ4oofnoja4OvUSqNiCz94MqjINj7p6kTdUCP40KWDhKV2THwvJ1aT8qz8ZN+FD2gbW3J1Gvhd3YAfnSpLEcU3NVpmmjfsn3hTB/OqHvWx3wnpLp34FrHMkVfkCJEtWHAqk53eXxtnkKBAVM7XDOhJG6zaP8mJYaUPBKN6bgnC88270k2MwTZZ1r0Rrp5D85poLYVuGfqjVQJtlQu+s9M+Z3uuce3kDhfPr7MkYYIeGo7G28KfKriPj4UY+DmBIVwMV0btyRlYnBMnbtmfGUc58mD/XCKTNTbSuIpffQxhcCVgM51t4L8a9r+Fv2V/A30EASCrvHfhD4TRx6JH9AJ05VOBLXzLxS/dsB/8zHAYM9s//BBJ5+cV+NJ478TmIxX17CJ37E1vf8TXt9v+n/jZb+G/af/E1/8T3zLG89wLII7nTdxPPUzPLenvwNcWH1usbDvxt+H357NdwQUL0hnH0/8qUbs29pvyian+duAqnfgandnnp3UTkG2r/f//9s607Y7iSNMvYGxJYLNDt93t6f//k+bDePqabto2iwFjkBDgue8nIrLyHB1JIMQmTkpvVVZkRDwRkWutZ+Jf9Gxrg/9UTvw8qK2HXTSNWhie40orMYci0ZFDyxqP3HZwSJmLDECpsYFTLqoYY8b4iJWE2iodx3auS/h3seMjngz5r7s3N3/6x9f8SDpj82bX4NfvLgVkM7vww09ReIMDusc29ByX/T5ksfs/cp6val8G1AgqFVH2KgInQ7r61Msm2caXWGyWlqw0iB45UIz/hit1t8XfQa3K3ZvrRCaS4qf2ukw6emyk65xavci6PeTruLRJVwiOs/qX3xlx/F9SjR//wXegCI8CUaVvctdxiAd6E8ua8T+dY8MPFpvBn8EwOtnE5vbfsiRUqifn7I1fne6IXjghTjQv4cvjX7kzdk43Lgw5jPPEP3rVim7vFLzJler/4Ot6PsXlXQjr+kijXS1H/L9L/6uLXYMR/QNSpgXcoNQaBGSA0/AJJeSIuvGAsjLNXeUjX1xkDT+m61QarG6EXGxCpgKchbmC7RIbvvfp0J8xlPrEV+7/Uab7s1JNjMCfoKgzF9fawKK3ZS0LMyZSArOmxo62KfyUaY4pOf2W170lHKjetPCnTBr5skh5ZWrvNvcsz/yPqqg9/AiLcthi/FHpQeKvfv2P3aFzUAwwFd/hQbhiR/D1AHZj3SojAkNopfWQdmatAQtpMaj/c3wvFq3YCL/bUlaqHIhT/wUOazLmY4TUmONRVjZb+8uKA6Hxv6DgJDOnBOKPB+WlAD3oWHcdf6mqTkKFA9DIip0krfHjlzZu+LrnvXj1834dT29xu8mHP8A5/7aZNn2T9q//K4m3+X+p//VFU4UcDtnbKhMZ1eghNINC1iMrvzBsnBpPqlZRsjlmE+fbaARq9DKkaKEGcixWauNBfIt8S+QOT3y9wXBzj7s7ztB3WVdphyN18DnIDX8MnHuultsgcn8WLmenuW2gF97v1c9cZDLvf690xDGl/SMlDsUbEtlidgueJ+Xi67/4YZLHuEdp4dBqxHe0lkfIxDmM0DIwutxTToU2QlgGv49r1tOv8t+tfCv+OBTLIYof/9UH1x7/dDrtkRtjxNd/tphV+KqNc0E4q/+H4QcLMfBX/INT8Z/z7NxDv4A/diYQja9NOFNWlLO6zbF+EVf59vZX5OW/cVZ64q9P43/8szLa/8Ev3apVWZxpnIAVCT35aV7tAH9kbjP9/iunhG/wrj3/O1GuHV3/xvxx7b8ED3xNibq0K0v1K94Hv57sgqtCRbllMuvAlkoJ2wTNAsuldiXrL7LYG5aUzFqTRrL0K0dhjluFAVvlje+xunjEmdtR9QGCu1TovYx8wqsnKKl3c5IcuIRAjPLqnDbSA085hy2CSdb8eobYIv/sWJZXsSzJj3OhpwOgVRvqv/WTwUG91elO8UsPhchcxI8xFostSiXlIitWjJZu00mUuhBKYlcsQd7iL39Jie//8t8GYvy1J+WpQ/N1LE1sU3y9gK8O2cXP6QD5yIAfT9YgKdsU0rnMwlgPcnCgmsYf/6Xu+DPjqmn8z2QF43n7s/6jpwep6G/83f8d3/Zv/Ge5fo4/8Vfv4Ou/y2m/+HGHwPvTSL/Nerrq38vh4lViD3+OW/ml9q9/e0oMzuq/IoMmCr1frd5KMJaBgmFEgKDAmd7vsRVpWTp7HSc7xkESL8mC8Ndhq1sdr7keic+jxDdvMrR9xb+PeDPqHxj1ZXWD4FixC18szQOf+igbpZks0kYPu9z+ms7niCyZk2JH63rgQh8l+lCKGV4KV4d48kGXOviy5N6sIuTVly38weVIm4JPafLFEYHiV0J/+EsjRBEC1dB4hgihNOSOf+IMr2Dlm3WFiFgqFOwMX59TZPHgzx6FwdeGrf5roGMNFHVstvqPPdI1VWmL1cd+8MkFdPyX13QJ3w6Umbvxndln9bXwHSY9IFlfiJzio1gsebRPTtl2fLEHf/ZS4r8y4CunDv1X2rsOwbNMfMjxHzpPyt684eqRDuzkYyPIdQKBFSepT7GKVUjZdHFkgi9n+18+PL7/pSMvlQxpigTZlmAWQwqIrRXtTuMsIjI2JjlyawVnyvsUd15iQhheS4KhR6beVf5BfNf+ft/oPpF66xZvG8HvEttfqPAFI2cApfzJ1G3gL73wpEFu+LBTxpYWXVYVa9ELP/5MBbSvymTZW4w2peDHfzbi52Kk6oNhnIQ6/DeQiieiFA6f7CZfqJAj5cYf0Ym1dPEn/urR/4n/7n/0Rp9Yp/iWfWN87Z26bnwdGNqOb/2fxB+ccvAUv8hRUsVjLAW7/zld2rAojf+ZfcGiKP6b8Wjwp7rEEeDc/9Cjq4G33Tn+xPqQoa1tNsX/oPMoJsD+/rd/L1Ip2id+KnFrf1K+Tfv/xv2Pk/SKyu6QVnBcjoicaBnpNk5zFLDRue2NBxeTfMIs7srNYeMpGtIFfF8P/pRl9buf//Pmf/Mg9ntcxR58VzHL1tFpKXRVubBxpHfGNIiy+JcZtnk4DK96cl9ZhqYdVxwrVNVB1Ycu+IIzejy27W5p8EU273/VZ3b0kL8QWibn+jDElugfAXgVTDKjYDWVMj6Hpa+y2ZbPFf/x34LBrwGjBKJVm8hMTPU/HQSiMqYahiqWuivv7oM8k8TMTAvD4Ktm4W+ygy/eJfzBGHxbwdKjzID2PvrO8B0jT+TAj3/IhL+PgwFB/5VZ7R/mWnrXKcmvOfbC7P9iKvYHy73A5QRzJONU8Z86G3Wptwv+a8j4nwodAfdJIZS9HFeTQ6LKDTOpmavRYEKOcb1kCyGiGBcBNi1ThnIwdPWhqDRLrLIglnD0lfjD8f2h9Nc493iHX5R4k2C9ykPOfnVBFc6j1kx0ROeBL60akYgTUM2jMhq/6Jpxiq/parXSB0B98vOQI3sadiKItg0/y7nN/8EXNQ0gZRv+Fv9AASKOGzHqvimSHDsj1FKv8Md/y5QZH20E41cuvMXjB/EjA7M+yp8kjsfReYrvR+s81XBIGl/8ztqT4oujP7m/GxsHVwO0w8d13fsoKfvv2X8gli/iPyz+tgAr3WccfJ/+df78DtevfYHFjpNQZvNU2r8R0J7otXLFh1BNmHbLq3SFapmMMsUQDiIA7SFp9FYxLtsRIqMs1PYjB9IZpmY5HlowmzF5ZB6D79dE3mNd/e7df978X2bnT/ojeTYtvap/B75q61yl8I2HtAwuyRR++KSDn4tdxsC8tGhVT6wOTbqShrOCaZVbvVMydN2mrP3f8RGF28pAZsTE3OIv2fIpVsbkscDZ5/g0/qqYwsRGfJYuxr9mCxiitBjjg1n5zvEhmyza0waBqlP8BKf5U6bwhfrPOaaGyHuOT6/dMczv6fT4wI/OFqzdEX+vleorlMN/svHN/Zn/kWeUcu+fKfuMXMzEdN7/uP08kwsPMvn2WZZjcMikT0kec3DB/4waD/M/Ro2OB/c7xHrW+lBYxQajmgljog1mPJ2Ao/doLGVxjvEgGpYTXRkcR2fWZtDQV+dazWhg4tCj8f3BK4Pm6MxPO9kvuCXli/zEKb7WDFqNVULNNh57oSK/UihO/sZH4164diKpxkP/S9vGbxbWcLv3OLoKX+nSJF0asw0El/+5kDb6W3uwZGz/L+G7cvCFClFthAKIsZaUsRMrQi/88V8fnO0G/wWExPw28Rf/YfW/+7/jx05wB3/in2+bQXUW/qb1n5VT+4/o8j94Hod4+G+bGHzL9F98P+T/AL6BJM2AkotYyEz7t/5dBayeTt6q4lSY325iJibzGi9F+HZTpa5/ZZJsQ2XP02j/47+q9b9cN5Y+2mVQNRCjDXwKEw3ZpUuVUFfyoiCtqEoPSzmOA25E4c8KMIppqPI/mL4NvlY4qn7ClYb/YVb+H96Q+jP7T60t4PQjMxwHCaH4qVUqUTNgY5c0eynjvx0vdBjryS5leMwO/xkGSk4l+F/y7KMUuVY++JFs/7VF/maNHjehbfEXP7j4WDYVlwvZFX+lxFeZGkcp+7hKeXyPcnm1bcNXbEvGv2JT9R9c4Hb/B18rLtV/fI4dKg4we20rfOt/qHLIOum8/gd//E95+z/4vhZZSnoPc5qYIAuJTiU+/6tjHrgn+FFqWWV2fClanvbP1TybmbH08cs/cjflLSYVbzW5pI49Z/i7/1p2KZ37H/PbJvkX/iP6X91+smb0V6cj6V5Xa59GUQWhWJMBl8UW0GJhQW4k40RUaBWOihMDF0dEain5zfCddR1VbwP6FsH0VtTn9Gx/LcLrX856QtjlJkC1nq9zyjKu8JcVaZlaOJ5WR5hr2MZCnXomfkbtidWZ/6LIK5/+h82Rh16hfEGRo7VUdOE7w89sFT1lRyFHoZuFr1jeyjqpglP/C8RBqOKfZ1gQrG4VdcHXTuvfmCRujS+2f/pUebbKw5u+1P7LZVLD+C/P4CciGkzhWnWUiMCJ08Pwtbb09xZ+Y7Tjq2p4LuHrf+rtMfjK7v4X8uG/M/Etr9fQcd9kWe1V6nwEEnqlksjhQ/yv+l4CiYdx+i79z9ptfMLgqJYjtpTMMqOIIu3gMNpay/NEUdkaPcjIasWZ1Gve/1GRwuJ5QnzfLnmFEdE3TOzQnqvwH3PYgOPSuxqMe/3in3TM0cb8hZXOAt1CO5fZysvLkQYjtBolNEd3KGV5VgLylW4v/CQvC5myw6XkgW8jVF+0sEeieMHXPoXcL/zogp9y0+CnQ7Fuz+OBLRN8ZcOKhtiqLvLhUbfY6tPC0gkjMo2v3cQ3X/bWzvY/vNjSKkse/3OrCB59zT139vEDPcWrXu0s+rn/FEVYu9ShzbmoFvkYCcPmP0ea7e2u2MZAGd+UUxd78USL//pFJWtLXSwLi9pDU11kxv+OZXQYJJ0xDpRzOnzze65w/RsXXf2Ynr9fTQnl+c+u69Owfo/tH1NO+h+rBJfWxsXIJANHpxwrUUYmB4usDyQd3hmWrAKklBsRmVqJOyuD/ZPie/HrL1z8+jMvV/yZ/Uf5dUcqjsqoRzYLP6Od05FICTB2iNv4zsYSEiBySRhWy+Q6tEzRcVWblSpR9XogHpmWTSVHzs2p/7K7fLXxipNzRomd6li5ImTX6odt9hqlvzt+GaQAKrb4l53wijv4bfNgRWjVYY4ybo97Rdm24kdlG7hkC/9h9X8JvyUSwzV4ARVfW/2GXHyNXx1YQ2CMo6WtBuKOP73fDrf7H+3IGKb4KECOgxrf/WyPjwv/u3dO6MQvsqRe3wNPfCPE5kH8h/n/Xdu/iKb+ZhfOOrRVDVeJxmgPRyse5ZMU/lKSffG45a9qs1gmItFD6JazrSi9ohe0T4jPY603b/OLn17E8qN9X4Lh+TLfJKAetAlTbKzYkgtGMT3dCy+ouDzF4cjMfKDthCGVSWkflv+GJ9rUS1l81WNl+zh4JVdhKHzF5MtXOlCS+9RN85W6lLb/6euSRIBXDcHtNmg+jVJ9gARfHvxfPlgNlrT/Kgi+Cv1PucfZnuOnjKJCjQ59kd3ZrKytbXldmmr1A1M53jsxSMid4EOoEmrlMfiuZKJSAW1nt/yPnsLXKf1Px9cMETf/03UTQ/SlVMPgOcPf6x+2ttPP9NiJ/3nzFiejv+XWp18o9Rtr5Rl4BlXu9l/ZJR094Hb8ywuKUxHfrf0PPmZpAMnRPFn3ZHIC0i7biGNYsRajhCqIgRHmPMTAj05Z1Mnfkm+x+oZTBSJanxDfm+8vE9B/vshXLXme82u/fMf5Mt+6z4UJZ7vguwM7JkFzWcpZVhW6bfxqCJThvxzxpf1Px+rGYFk+Uh+5NJvoU0pAt6sBchDcM/y5Fw3rESCFNLqfVrmEX53Gkhp89vin4Te+oNO+zI9NnrLnG2KsTctS8Mf/MJb/BuwEHzbPJNRUJQ/W/zl+QANc+FG/4dvBkho/kdran1IzxstZ3KVQ/w2y/pcfR/ujJKoiUOwlaxwo9Euhz2/+T/2rLwNAOpmna3z9EslX6bhvMAu/yozsJ21fcCm14ZdlB77w+jr4VmuS+/bfzwaPRxP/c//3+JcCt+3Qhp+r1sWgh4SD3WCmQ/eos5RYWNE89CFhIAOq9PAMXvZsoGf2Ckhjja4qfGJ8Z+O7XMn+gF96+T+ff33zV65k+3OtfGI6dmbEjF02QW0se9LQYalx8fBf1nxmB/9rtC09ipqsghXP9kdCnvay1lDvWBgoeRsvnWPzXx7Z0zFswMm3XI6Pyg50NmGr6vEYfRmY4A/+iGgD5ap5GP74P/gxreDjaj1iqoJOwSv/S6/0o/6jp3mMQUKx4Z/Xf2IYDehA4eBHKyOOHxhIMCWYWnd20VvEzLgoG/zYNvh2nI7/4Of6Akp2/z0dEz9JWZTcYfn8Dj80+AZXp73NdIdHhX0E07jG9vAf/sfAKRv7slehdYGFcfLptv/qyCq2RQnYKdhzoLcBh+BQp6Fj7PBc3J8znR0PyFPE9wGR/0dH9rz5fTr1Z5xD+ys0qdgxGjPSPKDb0OJbel25pSuaJo/FxqaCT378nzLLSfJF1zqSlmZV6hddza3XLIJy7fFXVxeVTuL/AH7k1HQk5ZK6zGY9c27pLHvkyfGAbPEfHSkah75h/RfGMgEf2v/BK9QwPAy/pNt/O7aEx+CHRzb+Jq/Ywm+ixztHtQlJ0Lv9S5Pdur8F7musWf/wGzoyHdiP6OWBD9WcqoJwKZ0znR0LFBKb79j/thl5N2QQNlpIZ4ZYnA6+te7Fd9BG2+yXmISLaedshpAej+8tKPoxM/NXN//Jk1925k94ySKdGVVqSDJ2k2c/9EJgZoMS15onca5eX7PcyMI0nxCObNvpfec8yAFfRuEGcKea6N787+K2o/yffiTUji/vsq3x02hTUAAs/Lshi9+Y6uHPdAlfmuV2n6PLh737UgEMTEo2/Dpmi+GDL628OfahocT+OWl01v7AH5b05UTntDtWbMvX6AqYWg7a+J+Lig3o+X7wG2DwLXZl8BKB8G0mX6F9k7W094qfz+OXrWB2CeTR1svZwgchXDFJvfwVhTyZ3f9RV/uds0tCUtrMlho/58h7Q/Mc8RTAZQOgtKQ6/y0lAxU9Ln+MlimWTqkH3lQIkfqFroBsza5hTxPf18n8cy6yU3sLX/y/M1PfB+urui+TeMT2DV+Txn+rBjUkmySp/ZeW45SMO1LbofZf1Fquw01MLR3/w8kmtDP8dH4KKkoINb7ntMZ/kAx3ls0wDtJUgXURPyiZ88hgEfTEWrUQpLmVNqeo/j5wqomSrqn4u9e/ctHnXvwL9V9dsfFjh3yPx9f/h+LTE7Vpx0+HXFEpe8Y6690LYHpS8SIaGBy/IO/+A5tjr0K/RP5VrlF4a/N1Z2I/+k9+xfcb+F/RE+mHaf+cBljrW2hSQ9mULVNliUcZlgKzFQkypiHM/pxU9NYc2WoE0L8HfB/Z/JyK/5Cp+L9ZZv/185ubv3Frip9nWuc34tcvOhIC/uWqNXJ1TkyhJrf/eRfYRsZlZZtCKl5n+MsTUHFGgkLV4OSxPKd5awqQgwLoD8O3JYdnw6/RQ1zeS1axKoRryDnvGnzL/bNTJA9+XcDDXsUaP7o48J+MxT9KIQ09DV+F3TA3/IrFDqY8CdLYl0veKLfkUfjFf+Avux6BL5SDkcYfXR2i+Gm37qt8DsUxP/47fyv7O4z7w20+ZsGFLZ/e8t3iX1HBdcdjU2i23SRHGsLsz0lFb88iG5P3hqSOMDSXIkVoPyS0B6VOhqT61E+ykeoo15lVKjUGFnOAGyy/T9xAaXbeN5FBYO1wiM9ahgBBd2w2RaRaS+WLPCVPDd+r2b9F6/P52D0zDo31uXvP3XyCAXcZpb+2YkmaaBoLNVsjjtVH8cmWi4x64oEdgyI7vbPvC/T0NKb2v76DDSblmQUqmPG5rphfxg/DGb5wafxuYLAqV/zRa/z9fegVZwU0bot/vbihvKanxlJP6qpU9lzCHw7v1CROm/92Hrv24EdpDD7Fr8FReTgSi8Kb+FdJma23PhddHLXVhuDTloz/8h/v4815/PXfh2WMj+0vmOXJxF/S4P8Kfh/28Jvqb/Pna4l+zTUDfYmleet/qrjr34Pg/9jtP+8jY2ibM/HsRoDRBiQtt70ZpzQ/Zaf0OkpNku3RY1hWBUNIYCWgn/R94Xtf2Z+e+YTL17419Rf2f+bc+dO8FV74WiC+tnRfYeLBP3p1LbWtKnkqDb+/K6wbJdmF2bkEZjCY2QtavJTRkSJhMX4tmV3lw2dcwc8VaPMghB7dpUt7U67Ylkpeogv7I/7xC3INMOgAOz53HU7jjiqUxH/K9N/6Vy+hnOLI1mymdedJfieDAz+iZ/jeqoo30rEnnURVQhr/c3zLGmz891hSk+UgpZTdcZ58jn/S/sDypQcf9HibpwV/x3L6NvbkFlP7X3qPrQg/pfbfH98zdlZ1RcWgxMgElPFWZ8w7snXIVtDbt8iMn/ITnDRaCyKl42StPPetadry94XPRYD6kTOA7EPOTDagX33xfDozq+000LmnG3PdYGwaLrdA4jWya2TXhThTbuqPIolgMnQhG6IDgccwpEnBN09vqbP7s8XI1ipIdmXsJFk0gF8d+sBPCLWveS/h2xF1ePC/hDsmR7hsUt5TBuWr40k58PXfxz8zJCQPlxUm2+C3fHS1bHAv+a9y7SIZy+Si60H8iX9+nxnrjIUyx8hZ8Yt/lqGTXWX0W3xtDIi8h/9RE+66R/wSM7BL6X/xFhN7TonrYQ/1Wv8GzjyCbTX7oImYtPA9kr/jX04qdeCXaGl6Wu2/rloLLOJEJUia1ualeExtXg0ekvkky6zZapSZcayBTAeQjeDg2KuUN/0A+D6Dex9bPmcm/oirYM7Mf/qURzq5ol0Xhgh0O1TVpXHSsNP/6QAeHaWH/ZbrBhpcYsVhZ2WIVj7+l3jLcjADge4LkFh1/NNxo/zAr7qxS3WjUEwTSTkHF59/X2cVkCElnDt+cdRANvhVI0jmsrgK1VLUAij/p21ogfRAN/6wKzf+p+HKtfk/+J62VJ0XQrzMAKHCwrfjpdQ2E8gq86DRSxiuKi/J8b/mYmRaPqGNbp/HrkHdWcwPAvw735/26UCvVP+adplfCBl8lZ/hL+AxSRuSZPxx2v9P4veR16iXDkAgZpjypDSVbsRqcDCIq99TnA6WSE8QDTw8iqQSOWZ0fAE53zR7kYq6Rcb8PaZjToP4YXXenoLXucfl4Frm+eTPGb7NSPy0O/ZllQ1YYs/e8FQqemYHaJpT7Spa2jd32IEPdn2tmC96eFI++PXj4Wrd/EeffkEBm780IvUc+NLFV0428ZPJQdsEfj0+SlDO/F/x1xacPma20jX+i9PzXmEJAyVx2fCF3fHLjImb2rb696R44t/48VYduKMvg1+D8XTfw//BT0zgd9DzzTk77B3q6y2W0u/w+cvXnYbrqiR7OyPMYC78RhI4oRZfEe2LUxrVchfan3KLLbrlL9rTaP/MyFiiMRmRbQRUyBiX3tB2pgVo9CSjwnG1DOSqTPOKpk7z/LXNFpmKs8jZ/oD4Yjs7++Nwn/Lk11/v3fBLFl/dfEBndsa2Q+u/zTIxicW6Uh1EV+LjlMsPrZpQl4UGyPifCm9F7LRBmSpWXl7+EsvCD8fEP7yFT9aVK1XGBhmvVg++ZebTwtBpQ1NtiO4nhal5LbwQ/2htfEXHf1UoPvja7LH+m6I6fhR+VEQgxdmMKeE9w0+XPmt/5/hCneP7ppbpFN/4FDEqyfthilc4H/aDAG/z96q3lwgSvwuP0p9v++cnY7ymqrNs9VbPi6JnlpAs650jb6KSgiZPYfFUSect4q+erQ5SYXQFdpf5wfHFZSK6+YAl9n/yMxZ/4cGRT7ln9RlL7y/o0HZ2Y1EW63P54whfn8vtY+gui9Ock4deRROy6HCWrc5gKfwdx5x32aM7/unUjRo+2T1ufPlqFkpBVdmGX6JltSKqTvybJyXk1WM91hV1eBp/gA4NKsCqxh//PTSlyahvtzElo0km/o+NKYPQ+PFfsMavCaHQS4MCHA8EfPliafRAjiqlDp4ugtb1B8+v6KwvsQzzm9OvcSfDj+T5AoSrs6CN//ryM2z/zMg22W4+5MorQ6F7FlUlhqNJlq50ibYKK3Oi1gN1pzGR7RYSnhPG7x/f+vJXH/05mg85V36P57P9eZr3uPf8mS/E2hDafzvPqmuLzlLNrhW1FDWP9F5wFRkfbV45J4anI2+kE5LMtq2gYl4c4k+VpPhsE/yJ3+zhOcEHzxk6s146n7bEmoUfDOQyMInR/lcs2Kr7QtLdrkpZy9benfu/40fvRAEFqw+Ns1v7m/gLHzPObHkUvj8G+EfuL3lRy+enb/PAh7OzpyYam21lVU+KR8v/qgvIZ5jDFpGHbE7URt6KJ7MFLTwnjN8O/3hEUyXTGs8NMkKJIn5oQ8obaPFaAN8Y455Uh/Ky+EJHt5+UnWxk/BHxP2M2fp8/b1G9x3L7I/L/4I9+nSvQ47/OG4qKgp3g8LGaw4N+2CkINKuSB/1XV3RUoCo+0S/GhITCjn/wU9LII7csobCLZKvixqfhnsS/1e74CljHVRXO/hyng0FcWGpukOZHc6OV/OCUiLKn/ktX36n/dOSlb8EFf/w/aX/aVQCHPeoFjuc48qGJXBMh7m9wHvzHO3yulo7M/1wbkXUl9fyI7S+x/Q74vbTuSuhdnDNCHtcmpNoU04rfVrKyFibBmxrdFVMgzRrp3WoEO9sPjO+VzHv83eW82feZ3+NbYH/ioe0PWXq7ZtEc/hMN/+WSTCKjydWx43BtZEyiI7T/ykwjJEcpetSJgt3/Oaeti1xT5v7h+KWtEPdt9ALicLMvx0dTm3GCH5rWXYh/W42/h/873sgeNJ0bqfI6ZejOENiG7/4LOzw6XUPl4b+5Pf7yjsiR4VyYTvEKF7Be5ZbSOxz48oMzsXSv0OdJOATP4790XPC/DKuaaNOLdL5dBh3+b1ZWTJ5y++eBFr1pS07WQHpMwCnT9EoyJrrVePtwStfe1oihXV1rX5oo82ok/wX+qeBTxzd38O0WF0L8PrGP5d3ni2Av4ss9OrYvYviapJ+yyUVYw3DBf2NVzyWX/7JMHPTfvFehckvqgv/erTP5/HI6DOyS1OPWZrzj2x5WWrLWW11DdmYS06pdmnIVzOOK/+o8W/37+uKOL/eOL27axiPwxbWavRBWbN0mwNcE9U0b8yhGjr4z/Mf5r5gDqrPtS3Tal6jQV9i/6UsP3FrypYc1YPwE298l/yc2E5LEy0gaNokGpQt/sr+PHMeyGTeqKiWV/e1NWnKXtXNp7pkJmnn3ODpLQ+mqET4sNC4vgFnq21Iutz/58rmbj1lf/5Xfd/WZbV++MNU5K7Lg22BjJZsaF6GTWcGOxvFD6VhohrTh2+u6M6lH+eEUo7jLPlFlyG0jZ5iU1iYy7X/tlG2OZPfjsjXqN/xWz077xFSmtJQ028FvrDCw2fFLbMdTyYpYBpw1mFevLzWlnnCc4lu44/ukiBfSFPX6gi/+/5vnwnReZ+BbFPjnI5hHOuwp/ziWNPg768StHImKE/yn3P6m/g9bxxhRK13Cx23IO28qRcIhmNbpVBEygZ0Zd0RD56Cd8nDyBR0K2W70BjUN1jCGXGxC/sj46YBY5buot1iWObrf4RMv9R4qD5N8wSOfTEW+WeWPseuGTuQ8Ev/TwaV1BzdbgZt9X71uX/U/YbMYZeInKtmXZDqRTMFxX80vM3OrzVI80VQxSfxMmR6IYppGb5mHbNSpSosv4Eu+hK+E+JFzUwrDrcy3xY/M4Gu7tnXa8cvYGB98Z+DbbKwvX/h/nRXVv9KJ89MtlLnSOhJ6je5PuP09afvnJ16pjnRMh6OuGWvWfKqpAjpHe1C6Nx68GfXgbOZ5TE7CcaEL3VR6joWxNfyE8b3N7gUvl9a+OeXs/D6z8/tM2R+y94r3tObcUtL5M/9tPvN6nvNLGiaxcgbR/1qKH/F3WVwDQnHDVSrl71TzFEZNHaU3bvyG2aoFZ+FH1oLT+NfAfOCns4wT2S+XBr5xH48/MRn/Y+8F/PX71PpoR34UPvGN/zy48VvOg//QHfcl8i9zNdqXH/wwnuf5+q/1P9f2V5F/fPxz1brbXVXSOliZors1KATnNBF0ZwjIdU+QoJFP/E4a2bncocUSw520DlZmSn5UfK1xHvRKth3ZW1R/4+9jlt6fsR6/T4e+zy2rPJUF8yX/u6vE2ZWP3sN/45gwB62iUk0RRnt+x//gq/hnLKQDZEZHR1g7/ln+W0dGslR2iQT9arIZ88Ic1IM3Bc3Ervgu1/9FfGQcb4LBpjUdSE14FL6PVd5COae+PJ3FBS0e6Pj9rfqe1h2ua/yajvwstr8KmhUzUQuFzcTfp/snEUGXY2wpJ0qW0ADSQWstXIossyWZRtoKmnwK2IQWJaEkxyaTx/Ds+58B/peE6x4O5Ao3ndffbH6Xc+cPWGv/nYdKfGIsLVy/2v/MHhzu/tuRLZ45jWzJEf+60t1zcsdfTh9dqOVyctWRVNqiVkkwUBzyhfj3WVGwz4qDv+o/J4wqPupfPwZfhHS4xlfhwkfsYfjhkVfV8sVgMqa9/i/g6zWPRfNDfi/cvM5pjx+Hf5lAOgP/mhmYs6AV+tLHdgMIFJufc/uLPxf633EfOZ5vUV3ZlalAW4FN8sJQKpMA53aFrdOyk2R1dXNNzVlIJkrInvBvWCu7Mj85/K+YgT/l3pQXwT7kdtXHPlzC7Ss7uT8DCzlXuXf/05Eu+G9oHEAdRo1p4uL+yITD4+JFK/on/nnabOI/8opH2RH/mblzOmO54e00+B5OHQ+tOuAcaesp/gP1P3rP8KPHnqQhpPSz5NRZ/nson6LeNbjNTMsj0bzzzDvmnAP/S65E24k5N6ZjJ2YqGv9bX+1iqRrzv/w13wb2rng9kJ+0sitDUVvYpJ9W+8/7dm342K8vGJuRK0ZDyF4iZUkhHP62zJSe7qeKSsay5OZwkw3pZ4JvA/Kil+8781BYblP5mOcHzNIfeB7NPWg//ufS1meBjULm0jSIasuJ8Zn/LksN0KX4H+0PfaPHgCJjW1b0PDmT1i2gxofBOKdTnwlItwOlw7n3mH/SlQo7B3UxCjp57dXWMEVBmNdmxx9dsomf220edIo4uuyTXqjyKvTvmXJ9vdCvdTj75hyYfX5QHB6hs9n0tLrePZvtT6cTL93nzQvy46ghOY+Go6TN7xjVE/1ED5q1vmrRuFlwRo/abEp/ZMSZIfTnj2+UPAXh/Qs68Zd5htsP//0jb1bZ2Z/LfWg/2+tpS5aoF/w3EhMpAkQ6jb+hM/4V9n5X+XHxj57ROp35wfhby+INZzI7vjgpbHzqOYOJ9DWKyHBW/2f41Zk3fOQ9t7djet7r7SJOfXMe/KozsEtpnsy6zXPReUlp7qA8FOcMv23Wt/w9g+2PjuxzS3gaZ/XTvCT+zD8iGZaDgwZHgPLEjAE7KWxdDN2zHKmAosAG8Izge2XWTwjd42X0WVrfJbyf8+f3tt9lpv6I9Tarb5bc+J2Yn/qf+E3809Fh7hR28hNzJR0KK12Of/HUIJOps9v4Hn8740qPqf+2Nux7Xn0OAf6L7i48xz+pfzgduByVXDr7IM5r9NS3+VLH7+i4L1Lqk1g8WZnXT535D3+DErSy/bL/U5a2/Ay3v+0cea8Ww+uteMPGomzvoF1PCdAS2YnnAVbXMco78qb6HIWtxJWWsip/BvD1yK92+lkhb1v9Fzee/TSvF8vu8+d7yKzA09Hv07F9E6ki4t7ZzreUHx7/DmXiZdSnFk4jqS5n4cyTuZAmZ13ALJkIwnMMEY0/9Q/D6qADIjcimNxyl/FT140vgr/c4HewvC/viwvOvKqww9qR83ohvxjycu7d2wIf7v9h8mYUunZPBn84ntX2l45ct40MQD9Ho9c0sKrgaiK1tO4rqUYqJ1jsDVsih9CK4ITNMvI5ibLwcnqW8Z2h/cTsF8zSPurJNbH8KLsPiDlb/42O/d98Q+xjCPfo2Hmp1FCumdOwdoOmWSfEbjr+drlUFBiTrYqTjuSF+LdEKiM1BU+Jn9b/qHwUfkCj8DL+Xv/qS4fl5NcO+w5r6N9xqdklvR36Be4L/4a2cptyJuE0G40U/9r+7JAP1v/E/5iRU6OGzWSlUDtGPq1D2l79vYyS5FA/yWP4KvDJVpuKrEMvDBkgdl0tvEM96/i4zCqbjswnerla9i4ztZ8c4n+9bYX/3uZy1r7P/kvqwqV4frI04Tri7zPL9dBFxXufS61CQ1l1d8R/ZiVLVnpE/EvNVq9TxxQEv5VYvf6Ynu3G+7x+fsYfO/Per8+ua5tLaK88v0bPrY7slyppMdAVrcTBtf0ljlV3RsXgEJeko/6n/9GRjZhM/PVFmLAbS6gZ0RNUDzrA4W2lW8eU3zTyqQyPFJPOJvvhCkFuqfz9gvCdeb2SnUc9mZnvM2N/if92YA5vPiWuviPtvelPWH97f/oegfQiWaosgyxR6/g7ZxlF08TfW0I5QYIw1SSP5Vkqb/HPAPA8vQ4Zx2Yncnn9nnPdO5bGyoBy/9kW1FMrhxq6NcmZ1avKvrTgJ2VfhvAKS2YvYs0sy2ScT+1468hnoGueUSc59KvXTWyNIZZJkyjV43AdjsFgiSklbsJLhv+WPcvtj7qmWRiXeJuMsaiUgoSlAiE1EenyfWfAw9oMS9ZjUsrTnDzgr6NLBV/xj/gbIWdmf/f5b3Tgj7ky9ncIn2WG9py7omcE5YWcju+5OBN8OnnoFNjxrFx5PX2pD+NZSVKocXcn8a9jOfKHbD756zEE+iOdkY6HTOWLLq8d3u+g+SUOl8c+qPEKvdfP6vjm0S0UPMcnO7v7F8ID+BBUNmm1obGYgjJ9OI79L7z9HTPyFrSKjhGtRmAlrmIDmWhPRJsnQlaEzCUbUrNHfkRWgQRq3NpZAFP4y8W3c/rtsC+Y7rwY5gzt8tpoufGD+HbQ+mY3z3vDM1fH7/KQSs7D0/FrdreDq8PZc9p7dEXjafydNa1CL0jNhSl+uyxXkO/QKe/QSX9DT/ZClQ9qyGNzUE7j7Pg554VuZ/fFfmdpa9PT+mRkTZJwit8F7JS4tr+EjFCs7iGhYzP78NR95K1MJqUS3wpm6ttsH6qqDmgZJx3X5U0vjYYlwM0eRPI2KGr15Pdhl24yV/xHxt8wujS/z29Bf8Hei2g+ePI5nbi+Oeanf/s2F/vM1JGp0Fqf9eqfi9quoI6/Lxm4fH7BZS8Vns4IjQvJN7c4qAcyfKLqee73fk0n9Yvcpqrca/3/OO3/uNjVHXhG7KobKofzlqqkUE47c9UdBdOBmzCdcsqzZ5M+6pKODCN27w7FNKArfoU4QXFAe0T8XWazos7yei6IuYT2PrWinHYnzs7wE+/81MqF+LvkzTKc6rbGrUI79HOcN1u7TKzM0vxRKMUO7gyreZGFR75IKmy2D2svs3Zd6//7aP/Vka1Ya8XAd5o6yKHLp1Q+R2kc7Keymv/y7pzp7HhArvjX+F/b33fqfw6+dEo76t4Vt+WBZDua5dOZQ3NDkrYLR8/QSumoXsu4EZPNdMU/CaEHE5rE5xr/is+1/dUEaqNYnar6Gh2Z7jVEyz3nPWlGLpigFacqkkYk/TjLvy5IC7R09ByNsu5fFp99t9IV/xr/aQvX9vek/Y/bTzSjtKTufNl1fu+UWVJL6LW12dUZrYghzP6cVPTWHNkMsLlYJrVLsuu8IkO/4hNiA3KNf9ra1sxsJb/09lf34lcgyGSx3eT0LyLmnlSzb3oXtzLcd959fi8nXN33oNnmEK4Zp5REwulYkWZ3N7qu+MbiGv+0Fjc2umo61/Znh8lgTkjO+t+6ak13o2NN70LAS50KrRkT2pbCn7KNuLJG3hGhZ4+hh4zOkD3wT+vMXfGv8b+2v+4O37r/rRnZ2/jdo2oGTSe252daTX87znY9rA5YQtUlJ786vzqS6sZERJyec4Lc5972ZdIV/xr/NATaQ1Zw1/ZXfe4b9r96lzxBs0dVr1qdlIjmXVX7o/ltBk3Qu4+bry4bRnjhDMFasVA9B1dqStqQrviJ0TX+1/ZXXSI9o/pcD2iP63/pyJl1E0NnBTKe70YXx6G7qcnbJXD32uPXAkQPMWtmst1J7c0aIjlPJbSstOrpEbviE6DE+Rr/a/uzj3z7/lfPWruWyQ35Wu7mQ2p2zCyBu4+m46W12WtJXd4dMh28qN1J1QlBEVirobLfspJTeMW/xv/a/tJvnAKfpP/9Yn8feQaQBC7jCcOKA4qD16wW1uhjWY85rCYq0AoNeQoh1OiUsjWAqZKGmkfzLMkAWXhX/D6RyyqNQF3j/0TtjxnZ92L67Lfb40krJMBp37ZkG6k8e7pE28vJn6iNPEJWWGSrNNvKtnQrvuJf45+mks21/dlH9tTdhMWvuepXc+G6+FqCXkxvL9KcyuWo5I6OzXGT1h4+tdSYy+Lb8vyNbhWVUCYpl+IrDc8V/xr/a/tLt3hE/7v+PjLjyAw0GVN6/OhpkPjVQLPGl2aqAeqgnuRGh7yzjD5GvKI5qsHn7opvjAlG7xLLWgaSlbinYrrG/zQy/x8J60YnRA7oHQAAAABJRU5ErkJggg==;clipPath=inset(2.56% 4.96% 5.98% 8.26%);" vertex="1" parent="1">
          <mxGeometry x="280" y="320" width="72.62" height="74" as="geometry" />
        </mxCell>
      </root>
    </mxGraphModel>
  </diagram>
</mxfile>
